<?xml version="1.0" encoding="utf-8"?>
<!-- Generator: Adobe Illustrator 19.0.0, SVG Export Plug-In . SVG Version: 6.00 Build 0)  -->
<svg version="1.1" id="Camada_1" xmlns="http://www.w3.org/2000/svg" xmlns:xlink="http://www.w3.org/1999/xlink" x="0px" y="0px"
	 viewBox="0 0 248.3 88" style="enable-background:new 0 0 248.3 88;" xml:space="preserve">
<style type="text/css">
	.st0{fill:#363636;}
</style>
<g id="XMLID_1_">
	<path id="XMLID_23_" class="st0" d="M55.4,39.3H36.7c-0.5,0-0.9,0.4-0.9,0.9v9.2c0,0.5,0.4,0.9,0.9,0.9H44v11.4
		c0,0-1.6,0.6-6.2,0.6c-5.4,0-12.9-2-12.9-18.4c0-16.5,7.8-18.7,15.1-18.7c6.3,0,9.1,1.1,10.8,1.7c0.5,0.2,1.1-0.4,1.1-0.9L54,17
		c0-0.2-0.1-0.5-0.3-0.7c-0.7-0.5-5-2.9-15.9-2.9c-12.5,0-25.4,5.3-25.4,31c0,25.6,14.7,29.5,27.1,29.5c10.3,0,16.5-4.4,16.5-4.4
		c0.3-0.1,0.3-0.5,0.3-0.7V40.2C56.3,39.7,55.9,39.3,55.4,39.3z"/>
	<path id="XMLID_20_" class="st0" d="M152.2,16.5c0-0.5-0.4-0.9-0.9-0.9h-10.6c-0.5,0-0.9,0.4-0.9,0.9c0,0,0,20.4,0,20.4h-16.5V16.5
		c0-0.5-0.4-0.9-0.9-0.9H112c-0.5,0-0.9,0.4-0.9,0.9v55.3c0,0.5,0.4,0.9,0.9,0.9h10.6c0.5,0,0.9-0.4,0.9-0.9V48.2h16.5
		c0,0,0,23.7,0,23.7c0,0.5,0.4,0.9,0.9,0.9h10.6c0.5,0,0.9-0.4,0.9-0.9V16.5z"/>
	<g id="XMLID_90_">
		<g id="XMLID_135_">
			<path id="XMLID_138_" class="st0" d="M75.4,23.8c0-3.8-3.1-6.9-6.8-6.9c-3.8,0-6.8,3.1-6.8,6.9c0,3.8,3.1,6.9,6.8,6.9
				C72.3,30.6,75.4,27.6,75.4,23.8z"/>
			<path id="XMLID_136_" class="st0" d="M74.6,60.2c0-1.4,0-25.5,0-25.5c0-0.5-0.4-0.9-0.9-0.9H63.2c-0.5,0-0.9,0.5-0.9,1
				c0,0,0,30.7,0,36.6c0,1.1,0.7,1.4,1.5,1.4c0,0,4.5,0,9.5,0c1,0,1.3-0.5,1.3-1.4C74.6,69.3,74.6,61.6,74.6,60.2z"/>
		</g>
	</g>
	<path id="XMLID_84_" class="st0" d="M192.4,33.8h-10.5c-0.5,0-0.9,0.4-0.9,0.9v27.1c0,0-2.7,2-6.4,2c-3.8,0-4.8-1.7-4.8-5.4
		c0-3.7,0-23.7,0-23.7c0-0.5-0.4-0.9-0.9-0.9h-10.6c-0.5,0-0.9,0.4-0.9,0.9c0,0,0,14.4,0,25.5c0,11,6.1,13.7,14.6,13.7
		c6.9,0,12.5-3.8,12.5-3.8s0.3,2,0.4,2.3c0.1,0.2,0.4,0.5,0.8,0.5l6.8,0c0.5,0,0.9-0.4,0.9-0.9l0-37.1
		C193.3,34.2,192.9,33.8,192.4,33.8z"/>
	<path id="XMLID_5_" class="st0" d="M221.1,32.6c-6,0-10,2.7-10,2.7V16.5c0-0.5-0.4-0.9-0.9-0.9h-10.6c-0.5,0-0.9,0.4-0.9,0.9v55.3
		c0,0.5,0.4,0.9,0.9,0.9c0,0,7.4,0,7.4,0c0.3,0,0.6-0.2,0.8-0.5c0.2-0.3,0.4-2.6,0.4-2.6s4.3,4.1,12.5,4.1c9.6,0,15.2-4.9,15.2-21.9
		C235.9,34.8,227.1,32.6,221.1,32.6z M217,63.8c-3.6-0.1-6.1-1.8-6.1-1.8V44.5c0,0,2.4-1.5,5.4-1.8c3.8-0.3,7.4,0.8,7.4,9.8
		C223.7,62,222,63.9,217,63.8z"/>
	<path id="XMLID_2_" class="st0" d="M105,33.7h-7.9c0,0,0-10.5,0-10.5c0-0.4-0.2-0.6-0.7-0.6H85.6c-0.4,0-0.6,0.2-0.6,0.6v10.8
		c0,0-5.4,1.3-5.8,1.4c-0.4,0.1-0.6,0.4-0.6,0.8v6.8c0,0.5,0.4,0.9,0.9,0.9H85c0,0,0,7.1,0,16.4c0,12.2,8.5,13.4,14.3,13.4
		c2.6,0,5.8-0.8,6.3-1c0.3-0.1,0.5-0.4,0.5-0.8l0-7.5c0-0.5-0.4-0.9-0.9-0.9c-0.5,0-1.6,0.2-2.9,0.2c-3.9,0-5.2-1.8-5.2-4.2
		c0-2.3,0-15.6,0-15.6h7.9c0.5,0,0.9-0.4,0.9-0.9v-8.5C105.9,34.1,105.5,33.7,105,33.7z"/>
</g>
</svg>
