<?xml version="1.0" encoding="utf-8"?>
<!-- Generator: Adobe Illustrator 19.0.0, SVG Export Plug-In . SVG Version: 6.00 Build 0)  -->
<svg version="1.1" id="Camada_1" xmlns="http://www.w3.org/2000/svg" xmlns:xlink="http://www.w3.org/1999/xlink" x="0px" y="0px"
	 viewBox="0 0 248.3 164" style="enable-background:new 0 0 248.3 164;" xml:space="preserve">
<style type="text/css">
	.st0{fill:#7B9D66;}
	.st1{fill-rule:evenodd;clip-rule:evenodd;fill:#363636;}
	.st2{fill-rule:evenodd;clip-rule:evenodd;fill:#7B9D66;}
	.st3{clip-path:url(#XMLID_134_);}
	.st4{fill:none;}
	.st5{fill:url(#XMLID_135_);}
	.st6{fill:url(#XMLID_136_);}
	.st7{fill:url(#XMLID_137_);}
	.st8{fill:url(#XMLID_138_);}
	.st9{fill:url(#XMLID_139_);}
	.st10{fill:url(#XMLID_140_);}
</style>
<g id="XMLID_21_">
	<g id="XMLID_90_">
		<path id="XMLID_92_" class="st0" d="M122.3,147.9c-0.7,0-1.4-0.2-2-0.5l-6.3-3.7c-0.9-0.5-0.5-0.7-0.2-0.8
			c1.3-0.4,1.5-0.5,2.9-1.3c0.1-0.1,0.3,0,0.5,0l4.8,2.9c0.2,0.1,0.4,0.1,0.6,0l18.9-10.9c0.2-0.1,0.3-0.3,0.3-0.5v-21.8
			c0-0.2-0.1-0.4-0.3-0.5l-18.9-10.9c-0.2-0.1-0.4-0.1-0.6,0l-18.9,10.9c-0.2,0.1-0.3,0.3-0.3,0.5v21.8c0,0.2,0.1,0.4,0.3,0.5l5.2,3
			c2.8,1.4,4.5-0.2,4.5-1.9v-21.5c0-0.3,0.2-0.5,0.5-0.5h2.4c0.3,0,0.5,0.2,0.5,0.5v21.5c0,3.7-2,5.9-5.6,5.9c-1.1,0-2,0-4.4-1.2
			l-5-2.9c-1.2-0.7-2-2-2-3.4v-21.8c0-1.4,0.8-2.7,2-3.4l18.9-10.9c1.2-0.7,2.8-0.7,4,0l18.9,10.9c1.2,0.7,2,2,2,3.4v21.8
			c0,1.4-0.8,2.7-2,3.4l-18.9,10.9C123.7,147.8,123,147.9,122.3,147.9z"/>
		<path id="XMLID_91_" class="st0" d="M128.2,132.9c-8.3,0-10-3.8-10-7c0-0.3,0.2-0.5,0.5-0.5h2.4c0.3,0,0.5,0.2,0.5,0.5
			c0.4,2.5,1.5,3.7,6.5,3.7c4,0,5.7-0.9,5.7-3c0-1.2-0.5-2.1-6.7-2.7c-5.2-0.5-8.4-1.7-8.4-5.8c0-3.8,3.2-6.1,8.6-6.1
			c6.1,0,9,2.1,9.4,6.6c0,0.2,0,0.3-0.1,0.4c-0.1,0.1-0.2,0.2-0.4,0.2h-2.5c-0.3,0-0.5-0.2-0.5-0.4c-0.6-2.6-2-3.5-5.9-3.5
			c-4.3,0-4.8,1.5-4.8,2.6c0,1.4,0.6,1.8,6.5,2.6c5.8,0.8,8.6,1.9,8.6,5.9C137.6,130.6,134.1,132.9,128.2,132.9z"/>
	</g>
	<g id="XMLID_84_">
		<path id="XMLID_85_" class="st0" d="M155.4,110.1c0,2-1.6,3.6-3.6,3.6c-2,0-3.6-1.6-3.6-3.6c0-2.1,1.7-3.6,3.6-3.6
			C153.7,106.4,155.4,108,155.4,110.1z M148.7,110.1c0,1.7,1.4,3.1,3,3.1c1.7,0,3.1-1.4,3.1-3.1c0-1.7-1.4-3-3.1-3
			C150.1,107,148.7,108.3,148.7,110.1z M150.4,108h1.4c0.5,0,1.4,0,1.4,1.1c0,0.8-0.5,0.9-0.8,1c0.6,0,0.6,0.4,0.7,0.9
			c0,0.3,0.1,0.9,0.2,1.1h-0.9c0-0.2-0.2-1.2-0.2-1.3c-0.1-0.2-0.1-0.3-0.4-0.3h-0.7v1.6h-0.8V108z M151.2,109.8h0.6
			c0.5,0,0.6-0.4,0.6-0.6c0-0.6-0.4-0.6-0.6-0.6h-0.7V109.8z"/>
	</g>
	<path id="XMLID_82_" class="st1" d="M63.8,62.7c0-0.9-0.5-1.7-1.2-2.1L42.6,49c-0.3-0.2-0.7-0.3-1.1-0.3c0,0-0.2,0-0.2,0
		c-0.4,0-0.8,0.1-1.1,0.3l-20,11.5c-0.7,0.4-1.2,1.2-1.2,2.1l0,31c0,0.4,0.2,0.8,0.6,1c0.4,0.2,0.8,0.2,1.2,0l11.9-6.8
		c0.8-0.4,1.2-1.2,1.2-2.1V71.3c0-0.9,0.5-1.7,1.2-2.1l5.1-2.9c0.4-0.2,0.8-0.3,1.2-0.3c0.4,0,0.8,0.1,1.2,0.3l5.1,2.9
		c0.7,0.4,1.2,1.2,1.2,2.1v14.5c0,0.9,0.5,1.7,1.2,2.1L62,94.7c0.4,0.2,0.8,0.2,1.2,0c0.4-0.2,0.6-0.6,0.6-1L63.8,62.7z"/>
	<path id="XMLID_24_" class="st1" d="M160.2,20c-0.4-0.2-0.8-0.2-1.2,0c-0.4,0.2-0.6,0.6-0.6,1v30.7c0,0.3-0.2,0.6-0.4,0.7
		c-0.3,0.2-0.6,0.2-0.8,0l-5-2.9c-0.7-0.4-1.7-0.4-2.4,0l-20,11.6c-0.7,0.4-1.2,1.2-1.2,2.1v23.1c0,0.9,0.5,1.7,1.2,2.1l20,11.6
		c0.7,0.4,1.7,0.4,2.4,0l20-11.6c0.7-0.4,1.2-1.2,1.2-2.1V28.8c0-0.9-0.5-1.7-1.2-2.1L160.2,20z M158.3,78.8c0,0.2-0.1,0.4-0.3,0.5
		l-6.9,4c-0.2,0.1-0.4,0.1-0.6,0l-6.9-4c-0.2-0.1-0.3-0.3-0.3-0.5v-7.9c0-0.2,0.1-0.4,0.3-0.5l6.9-4c0.2-0.1,0.4-0.1,0.6,0l6.9,4
		c0.2,0.1,0.3,0.3,0.3,0.5V78.8z"/>
	<g id="XMLID_12_">
		<path id="XMLID_16_" class="st1" d="M226.9,70.7c0.7-0.4,1.2-1.2,1.2-2.1V63c0-0.9-0.5-1.7-1.2-2.1L207,49.3
			c-0.7-0.4-1.7-0.4-2.4,0l-20,11.6c-0.7,0.4-1.2,1.2-1.2,2.1v23.1c0,0.9,0.5,1.7,1.2,2.1l19.9,11.3c0.7,0.4,1.6,0.4,2.4,0l12-6.7
			c0.4-0.2,0.6-0.6,0.6-1c0-0.4-0.2-0.8-0.6-1.1l-20.2-11.6c-0.4-0.2-0.6-0.6-0.6-1v-7.2c0-0.4,0.2-0.8,0.6-1l6.3-3.6
			c0.4-0.2,0.8-0.2,1.2,0l6.3,3.6c0.4,0.2,0.6,0.6,0.6,1v5.7c0,0.4,0.2,0.8,0.6,1c0.4,0.2,0.8,0.2,1.2,0L226.9,70.7z"/>
		<path id="XMLID_13_" class="st2" d="M205.5,69.6c0.1-0.1,0.3-0.1,0.5,0l3.8,2.2c0.1,0.1,0.2,0.2,0.2,0.4v4.4
			c0,0.2-0.1,0.3-0.2,0.4l-3.8,2.2c-0.1,0.1-0.3,0.1-0.5,0l-3.8-2.2c-0.1-0.1-0.2-0.2-0.2-0.4v-4.4c0-0.2,0.1-0.3,0.2-0.4
			L205.5,69.6z"/>
	</g>
	<g id="XMLID_1_">
		<defs>
			<path id="XMLID_143_" d="M97.3,49.4c-0.7-0.4-1.7-0.4-2.4,0L75,60.9c-0.7,0.4-1.2,1.2-1.2,2.1v23c0,0.9,0.5,1.7,1.2,2.1
				l19.9,11.5c0.7,0.4,1.7,0.4,2.4,0l19.9-11.5c0.7-0.4,1.2-1.2,1.2-2.1V63c0-0.9-0.5-1.7-1.2-2.1L97.3,49.4z"/>
		</defs>
		<linearGradient id="XMLID_133_" gradientUnits="userSpaceOnUse" x1="104.2352" y1="58.0003" x2="86.2375" y2="94.7157">
			<stop  offset="0" style="stop-color:#5D8645"/>
			<stop  offset="0.3302" style="stop-color:#5E8A44"/>
			<stop  offset="0.6379" style="stop-color:#639541"/>
			<stop  offset="0.9359" style="stop-color:#6CA83C"/>
			<stop  offset="1" style="stop-color:#6EAD3B"/>
		</linearGradient>
		<use xlink:href="#XMLID_143_"  style="overflow:visible;fill-rule:evenodd;clip-rule:evenodd;fill:url(#XMLID_133_);"/>
		<clipPath id="XMLID_134_">
			<use xlink:href="#XMLID_143_"  style="overflow:visible;"/>
		</clipPath>
		<g id="XMLID_8_" class="st3">
			<path id="XMLID_11_" class="st4" d="M94.9,49.4l-20,11.5c-0.7,0.4-1.3,1.2-1.3,2.1v23c0,0.6,0.2,1.1,0.6,1.5l22.4-38.4
				C96.1,49,95.4,49.1,94.9,49.4z"/>
			<path id="XMLID_10_" class="st4" d="M96.8,99.9c0.2-0.1,0.4-0.1,0.6-0.2l19.5-11.5c0.7-0.4,0.8-1.2,0.8-2.1V63
				c0-0.6,0.2-1.2-0.3-1.7L96.8,99.9z"/>
			<linearGradient id="XMLID_135_" gradientUnits="userSpaceOnUse" x1="93.1032" y1="77.2151" x2="143.6036" y2="39.9027">
				<stop  offset="0.1376" style="stop-color:#5D8645"/>
				<stop  offset="0.4016" style="stop-color:#709F4C"/>
				<stop  offset="0.7129" style="stop-color:#83B652"/>
				<stop  offset="0.9081" style="stop-color:#8ABF54"/>
			</linearGradient>
			<path id="XMLID_9_" class="st5" d="M117.3,60.9l-20-11.5c-0.2-0.1-0.4-0.2-0.6-0.2L74.3,87.6c0.2,0.2,0.4,0.4,0.7,0.6l20,11.5
				c0.6,0.3,1.2,0.4,1.9,0.2l21-38.5C117.7,61.2,117.5,61,117.3,60.9z"/>
		</g>
		<g id="XMLID_2_" class="st3">
			<path id="XMLID_7_" class="st4" d="M117.7,86V63c0-0.9-0.1-1.7-0.8-2.1L97.1,49.4c-0.2-0.1-0.4-0.2-0.6-0.3L118,86.6
				C118,86.4,117.7,86.2,117.7,86z"/>
			<path id="XMLID_6_" class="st4" d="M74.9,60.9c-0.7,0.4-1.3,1.2-1.3,2.1v23c0,0.9,0.5,1.7,1.3,2.1l20,11.5c0.5,0.3,1,0.4,1.5,0.3
				L75.1,60.9L74.9,60.9z"/>
			<linearGradient id="XMLID_136_" gradientUnits="userSpaceOnUse" x1="73.1052" y1="45.2908" x2="119.1657" y2="45.2908">
				<stop  offset="9.191646e-002" style="stop-color:#8ABF54"/>
				<stop  offset="0.2871" style="stop-color:#83B652"/>
				<stop  offset="0.5984" style="stop-color:#709F4C"/>
				<stop  offset="0.8624" style="stop-color:#5D8645"/>
			</linearGradient>
			<polygon id="XMLID_5_" class="st6" points="94.3,45.2 94,45.4 94.4,45.4 			"/>
			<linearGradient id="XMLID_137_" gradientUnits="userSpaceOnUse" x1="73.1052" y1="74.5191" x2="119.1657" y2="74.5191">
				<stop  offset="9.191646e-002" style="stop-color:#8ABF54"/>
				<stop  offset="0.2871" style="stop-color:#83B652"/>
				<stop  offset="0.5984" style="stop-color:#709F4C"/>
				<stop  offset="0.8624" style="stop-color:#5D8645"/>
			</linearGradient>
			<path id="XMLID_4_" class="st7" d="M117.3,88.1c0.6-0.3,1-0.9,1.2-1.5L96.6,49.2c-0.6-0.1-1.2,0-1.7,0.3L75.1,60.9l21.4,39.1
				c0.3,0,0.6-0.1,0.9-0.3L117.3,88.1z"/>
			<linearGradient id="XMLID_138_" gradientUnits="userSpaceOnUse" x1="73.1052" y1="87.6685" x2="119.1657" y2="87.6685">
				<stop  offset="9.191646e-002" style="stop-color:#8ABF54"/>
				<stop  offset="0.2871" style="stop-color:#83B652"/>
				<stop  offset="0.5984" style="stop-color:#709F4C"/>
				<stop  offset="0.8624" style="stop-color:#5D8645"/>
			</linearGradient>
			<polygon id="XMLID_3_" class="st8" points="119.2,87.7 119,87.5 119,87.8 			"/>
			<linearGradient id="XMLID_139_" gradientUnits="userSpaceOnUse" x1="73.4857" y1="93.6116" x2="118.7966" y2="93.6116">
				<stop  offset="9.191646e-002" style="stop-color:#8ABF54"/>
				<stop  offset="0.2871" style="stop-color:#83B652"/>
				<stop  offset="0.5984" style="stop-color:#709F4C"/>
				<stop  offset="0.8624" style="stop-color:#5D8645"/>
			</linearGradient>
			<path id="XMLID_23_" class="st9" d="M117.3,88.1L97.4,99.6c-0.3,0.2-0.6,0.3-0.9,0.3l0.2,0.7l22-12.8v-0.3l-0.4-0.9
				C118.1,87.2,117.9,87.8,117.3,88.1z"/>
			<linearGradient id="XMLID_140_" gradientUnits="userSpaceOnUse" x1="125.6927" y1="56.9117" x2="97.2855" y2="114.8624">
				<stop  offset="0" style="stop-color:#5D8645"/>
				<stop  offset="0.3302" style="stop-color:#5E8A44"/>
				<stop  offset="0.6379" style="stop-color:#639541"/>
				<stop  offset="0.9359" style="stop-color:#6CA83C"/>
				<stop  offset="1" style="stop-color:#6EAD3B"/>
			</linearGradient>
			<path id="XMLID_22_" class="st10" d="M117.3,88.1L97.4,99.6c-0.3,0.2-0.6,0.3-0.9,0.3l0.2,0.7l22-12.8v-0.3l-0.4-0.9
				C118.1,87.2,117.9,87.8,117.3,88.1z"/>
		</g>
	</g>
</g>
</svg>
