<?xml version="1.0" encoding="utf-8"?>
<!-- Generator: Adobe Illustrator 19.0.0, SVG Export Plug-In . SVG Version: 6.00 Build 0)  -->
<svg version="1.1" id="Camada_1" xmlns="http://www.w3.org/2000/svg" xmlns:xlink="http://www.w3.org/1999/xlink" x="0px" y="0px"
	 viewBox="0 0 647 174" style="enable-background:new 0 0 647 174;" xml:space="preserve">
<style type="text/css">
	.st0{fill:#FFFFFF;}
	.st1{fill:none;stroke:#675849;stroke-width:0.2609;stroke-linecap:round;stroke-linejoin:round;stroke-miterlimit:10;}
	.st2{fill:#F3DD74;}
	.st3{opacity:0.5;fill:#268DC0;}
	.st4{opacity:0.5;fill:#D1761C;}
	.st5{fill:none;stroke:#FFFFFF;stroke-width:0.3914;stroke-linecap:round;stroke-linejoin:round;stroke-miterlimit:10;}
	.st6{fill:none;stroke:#EDEDEF;stroke-width:0.3914;stroke-linecap:round;stroke-linejoin:round;stroke-miterlimit:10;}
	.st7{opacity:0.4;fill:none;stroke:#C4BC9E;stroke-width:0.3914;stroke-linecap:round;stroke-linejoin:round;stroke-miterlimit:10;}
	.st8{fill:none;stroke:#D9912B;stroke-width:0.3914;stroke-linecap:round;stroke-linejoin:round;stroke-miterlimit:10;}
</style>
<g id="XMLID_63_">
	<g id="XMLID_49_">
		<path id="XMLID_64_" class="st0" d="M25,109.4c1.1-19.7,1.6-37.2,1.6-52.7c0-15.4,0-25.6-0.1-30.4c9-4.3,18.4-6.4,28.2-6.4
			c7.2,0,13.3,2.3,18.1,6.9c4.9,4.6,7.3,11.1,7.3,19.4c0,9.7-6.9,19-20.5,27.9c7.5,9.4,15.1,19.6,22.9,30.9l-11.8,8.7
			c-5.2-7.8-14.4-20.5-27.8-38.1c-0.2,12.6-0.6,24.5-1.1,35.6L25,109.4z M58.7,56.7c4.3-4.2,6.4-8.1,6.4-11.5c0-3.4-1-6.1-3-8
			c-2-1.9-4.7-2.8-7.9-2.8c-3.3,0-6.9,0.7-10.8,2.1c0,13.9,0,24.2-0.1,30.9C49.3,64.5,54.4,61,58.7,56.7z"/>
		<path id="XMLID_68_" class="st0" d="M91.4,28l13.8,1.6L104,43.4l-13.8-1.7L91.4,28z M90.5,49.6l14,1.4v59.1l-14-1.4V49.6z"/>
		<path id="XMLID_71_" class="st0" d="M140.3,110.3l-15.7-1.5c-6.1-24.4-9.8-43.6-11.1-57.5l14,1.2c1.4,15.1,3.3,28.6,5.8,40.6
			c3.4-12.3,6.9-27.8,10.7-46.4l13.3,1.1C152.6,69.5,146.9,90.3,140.3,110.3z"/>
	</g>
	<g id="XMLID_43_">
		<path id="XMLID_47_" class="st0" d="M260.6,73.5c0-4.9-1.2-7.4-3.7-7.4c-1.2,0-2.4,0.6-3.4,1.8c-1,1.2-1.5,2.8-1.5,4.8
			c0,2,0.4,3.7,1.2,5c0.8,1.3,2.2,2.6,4.3,3.9c2.1,1.3,3.7,2.3,4.9,3.1c1.2,0.8,2.6,1.9,4.2,3.3c3.4,3,5,6.7,5,11.4
			c0,4.6-1.7,8.4-5.2,11.3c-3.5,2.9-7.4,4.3-11.8,4.3c-4.3,0-8.3-1.2-11.8-3.5c-3.5-2.3-6.3-5.3-8.4-8.8l6.6-7.5
			c3.3,5.7,6.7,8.5,10.3,8.5c1.2,0,2.3-0.3,3.2-1c0.9-0.7,1.4-1.7,1.4-2.9c0-2.6-1.9-5-5.7-7.3c-4-2.2-7.2-4.7-9.5-7.4
			c-2.3-2.7-3.4-6.5-3.4-11.5c0-5,2-9.4,6.2-13.4c4.1-4,8.5-6,13.2-6c4.7,0,8.4,1.6,11.2,4.9c2.7,3.2,4.1,7.6,4.1,13.1
			c0,2.2-0.2,4.6-0.7,7.1l-11.2-1C260.5,76.3,260.6,74.8,260.6,73.5z"/>
	</g>
	<path id="XMLID_26_" class="st1" d="M156.5,115.4"/>
	<path id="XMLID_24_" class="st1" d="M228.1,21.6"/>
	<line id="XMLID_62_" class="st1" x1="168" y1="32" x2="232" y2="80.6"/>
	<polygon id="XMLID_61_" class="st2" points="226.6,23.5 169.4,33.1 157.5,113.9 230.7,79.6 	"/>
	<polygon id="XMLID_60_" class="st3" points="226.6,23.5 202.1,57.9 230.7,79.6 	"/>
	<polygon id="XMLID_59_" class="st4" points="202.1,57.9 169.4,33.1 157.5,113.9 	"/>
	<g id="XMLID_31_">
		<line id="XMLID_34_" class="st5" x1="169.4" y1="33.1" x2="199.3" y2="80.6"/>
		<line id="XMLID_33_" class="st6" x1="199.3" y1="80.6" x2="227.1" y2="161.9"/>
		<line id="XMLID_32_" class="st5" x1="199.3" y1="80.6" x2="230.7" y2="79.6"/>
	</g>
	<g id="XMLID_27_">
		<line id="XMLID_30_" class="st7" x1="169.4" y1="33.1" x2="199" y2="86.8"/>
		<line id="XMLID_29_" class="st7" x1="199" y1="86.8" x2="201.3" y2="93.4"/>
		<line id="XMLID_28_" class="st7" x1="199" y1="86.8" x2="230.7" y2="79.6"/>
	</g>
	<g id="XMLID_56_">
		<polygon id="XMLID_58_" class="st0" points="154,133.9 151.5,125.2 145.5,134.7 		"/>
		<polygon id="XMLID_57_" class="st2" points="154,133.9 157.7,142.6 162.9,133 		"/>
	</g>
	<g id="XMLID_53_">
		<polygon id="XMLID_55_" class="st0" points="123.1,144.9 129.2,138.2 117.9,138.1 		"/>
		<polygon id="XMLID_54_" class="st2" points="123.1,144.9 117.7,152.7 128.6,152.1 		"/>
	</g>
	<g id="XMLID_50_">
		<polygon id="XMLID_52_" class="st0" points="90.9,140.1 83.3,145 94.2,148 		"/>
		<polygon id="XMLID_51_" class="st2" points="90.9,140.1 98.1,134 87.5,131.8 		"/>
	</g>
	<g id="XMLID_44_">
		<polygon id="XMLID_46_" class="st0" points="55.8,129.8 63.3,124.7 52.4,121.9 		"/>
		<polygon id="XMLID_45_" class="st2" points="55.8,129.8 48.6,136 59.3,138 		"/>
	</g>
	<path id="XMLID_5_" class="st8" d="M15.8,128.8"/>
	<path id="XMLID_4_" class="st8" d="M157.5,113.9c0,0,9.5,41-52.3,29.2c-56.4-10.8-67.2-25.9-89.3-14.3"/>
</g>
<g id="XMLID_18_">
	<path id="XMLID_19_" class="st2" d="M339,95.3c-2.9,0-8.5,0.5-16.9,1.5l-14.7-10c0-2,3.9-9.9,11.6-23.7c7.8-13.8,13.9-23.2,18.3-28
		l20.3,2c-2,15.4-3.2,30.4-3.7,44.7l7.9,0.7l-1.7,12.9h-6.4c0,9.4,0.2,17.3,0.6,23.7l-14.8-1.2C339.2,112,339,104.5,339,95.3z
		 M325.8,82.5c4.1-0.6,8.5-0.9,13.3-0.9c0.6-10.8,1.6-21,3-30.4C335.1,63.3,329.7,73.7,325.8,82.5z"/>
	<path id="XMLID_23_" class="st2" d="M417.3,35.8v13.6c-6.6,0-13.8,0.6-21.6,1.8c-0.1,0.8-0.9,6.5-2.6,17c8.4,0,15,1.7,20,5.2
		c4.9,3.5,7.4,8.4,7.4,14.8c0,14.6-13.5,24.8-40.5,30.6l-3.5-13.3c18.6-4.1,28-9.4,28-16c0-2.3-1.2-4.2-3.6-5.7
		c-2.4-1.5-5.4-2.2-8.8-2.2c-1.1,0-4.1,0.5-9.2,1.6l-7.1-5.7l6.9-37.3C396.2,37.3,407.8,35.8,417.3,35.8z"/>
	<path id="XMLID_35_" class="st2" d="M447.8,95.8c0.9,2.9,1.4,6.6,1.4,11c0,4.5-0.6,8.2-1.7,11.2l-16.6-1.4c0.7-6.2,1.1-11,1.1-14.4
		s0-6-0.1-7.9L447.8,95.8z"/>
	<path id="XMLID_37_" class="st2" d="M477.7,38.6c4-1.6,8.5-2.4,13.5-2.4c5,0,9.4,1.7,13.1,5.1c3.7,3.4,5.5,8.1,5.5,14.1
		c0,6-4.8,12.4-14.3,19c8.2,4.3,12.3,10,12.3,17.3c0,7.3-2.7,13.2-8.1,17.9c-5.4,4.7-10.8,7-16.3,7s-10.4-0.9-14.9-2.6l-2.2-13.6
		c2.9,0.9,6.4,1.4,10.6,1.4s7.9-0.9,11.2-2.8c3.3-1.8,4.9-4,4.9-6.5c0-2.5-1-4.6-3.1-6.3c-2.1-1.7-4.7-2.5-7.9-2.5
		s-6.7,0.6-10.4,1.7l-4.2-12.7c8.6-2.9,15.3-5.9,19.9-9.2c4.6-3.2,7-6.2,7-8.8c0-3-1.6-4.4-4.8-4.4c-4.3,0-10.1,2.5-17.4,7.6
		l-7.9-11.7C469.3,42.8,473.7,40.2,477.7,38.6z"/>
	<path id="XMLID_39_" class="st2" d="M537.3,38.6c4-1.6,8.5-2.4,13.5-2.4c5,0,9.4,1.7,13.1,5.1c3.7,3.4,5.5,8.1,5.5,14.1
		c0,6-4.8,12.4-14.3,19c8.2,4.3,12.3,10,12.3,17.3c0,7.3-2.7,13.2-8.1,17.9c-5.4,4.7-10.8,7-16.3,7c-5.4,0-10.4-0.9-14.9-2.6
		l-2.2-13.6c2.9,0.9,6.4,1.4,10.6,1.4s7.9-0.9,11.2-2.8c3.3-1.8,4.9-4,4.9-6.5c0-2.5-1-4.6-3.1-6.3c-2.1-1.7-4.7-2.5-7.9-2.5
		c-3.2,0-6.7,0.6-10.4,1.7l-4.2-12.7c8.6-2.9,15.3-5.9,19.9-9.2c4.6-3.2,7-6.2,7-8.8c0-3-1.6-4.4-4.8-4.4c-4.3,0-10.1,2.5-17.4,7.6
		L524,46.3C528.9,42.8,533.3,40.2,537.3,38.6z"/>
	<path id="XMLID_41_" class="st2" d="M597,38.6c4-1.6,8.5-2.4,13.5-2.4c5,0,9.4,1.7,13.1,5.1c3.7,3.4,5.5,8.1,5.5,14.1
		c0,6-4.8,12.4-14.3,19c8.2,4.3,12.3,10,12.3,17.3c0,7.3-2.7,13.2-8.1,17.9c-5.4,4.7-10.8,7-16.3,7c-5.4,0-10.4-0.9-14.9-2.6
		l-2.2-13.6c2.9,0.9,6.4,1.4,10.6,1.4s7.9-0.9,11.2-2.8c3.3-1.8,4.9-4,4.9-6.5c0-2.5-1-4.6-3.1-6.3c-2.1-1.7-4.7-2.5-7.9-2.5
		c-3.2,0-6.7,0.6-10.4,1.7l-4.2-12.7c8.6-2.9,15.3-5.9,19.9-9.2c4.6-3.2,7-6.2,7-8.8c0-3-1.6-4.4-4.8-4.4c-4.3,0-10.1,2.5-17.4,7.6
		l-7.9-11.7C588.5,42.8,593,40.2,597,38.6z"/>
</g>
</svg>
