<?xml version="1.0" encoding="utf-8"?>
<!-- Generator: Adobe Illustrator 19.0.0, SVG Export Plug-In . SVG Version: 6.00 Build 0)  -->
<svg version="1.1" id="Camada_1" xmlns="http://www.w3.org/2000/svg" xmlns:xlink="http://www.w3.org/1999/xlink" x="0px" y="0px"
	 viewBox="-166 349.3 278.8 95.7" style="enable-background:new -166 349.3 278.8 95.7;" xml:space="preserve">
<style type="text/css">
	.st0{fill:#F5DDEA;}
	.st1{fill:#FFF5FC;}
</style>
<polyline id="XMLID_5_" class="st0" points="-61.7,397.2 -87.2,441.4 -61.9,441.4 -36.7,397.1 -36.7,397.1 -61.9,353.4 -87.2,353.4 
	-61.8,397.4 "/>
<polyline id="XMLID_4_" class="st0" points="-138.2,397.4 -112.9,441.4 -138,441.4 -163.7,397.5 -163.7,397.5 -138,353.4 
	-112.9,353.4 -138.1,397.4 "/>
<polygon id="XMLID_3_" class="st1" points="-87.3,353.4 -138.2,441.4 -112.8,441.4 -61.9,353.4 "/>
<g id="XMLID_1_">
	<path id="XMLID_7_" class="st0" d="M-9.3,355.1c2.3,0,4,0.2,5,0.7s1.5,1,1.5,1.6s-0.3,1.2-0.8,1.7c-0.4-0.3-1.1-0.6-2.1-0.9
		c-1-0.3-2.1-0.5-3.5-0.5c-1.8,0-3.2,0.4-4.3,1.2c-1.1,0.8-1.6,1.9-1.6,3.2c0,1.1,0.3,2,0.8,2.9c0.5,0.9,1.2,1.8,2.1,2.7l6.2,6.4
		c1.5,1.6,2.4,3,3,4.4c0.5,1.4,0.8,2.9,0.8,4.6c0,1.4-0.2,2.6-0.5,3.8c-0.3,1.2-0.9,2.2-1.6,3c-0.7,0.8-1.7,1.5-2.8,2
		s-2.5,0.7-4.2,0.7c-1.2,0-2.2-0.1-3.1-0.3c-0.8-0.2-1.6-0.4-2.1-0.7c-0.6-0.3-1-0.6-1.2-0.9c-0.2-0.3-0.4-0.6-0.4-0.9
		s0.1-0.7,0.2-1.1c0.1-0.4,0.3-0.7,0.6-1c0.6,0.5,1.3,1,2.2,1.3c0.9,0.4,2.1,0.5,3.6,0.5c2.2,0,3.8-0.6,4.8-1.8
		c1-1.2,1.4-2.7,1.4-4.6c0-0.7-0.1-1.4-0.2-2.1c-0.1-0.6-0.3-1.3-0.6-1.9c-0.3-0.6-0.6-1.3-1.1-1.9s-1-1.3-1.7-2.1l-5.6-5.9
		c-1.2-1.3-2.1-2.5-2.6-3.7c-0.6-1.1-0.9-2.4-0.9-3.7c0-2,0.8-3.7,2.3-5C-14.3,355.7-12.1,355.1-9.3,355.1z"/>
	<path id="XMLID_9_" class="st0" d="M4.5,368.5H0.7c0-1.1,0-1.9,0.1-2.1c0.1-0.3,0.3-0.4,0.6-0.4h3.2v-8.2c0-0.6,0.2-0.9,0.5-1
		s1.1-0.1,2.3-0.1v9.3h6.3c0,1.1,0,1.9-0.1,2.1c-0.1,0.3-0.2,0.4-0.5,0.4H7.4v15.9c0,0.8,0,1.5,0.1,2.1c0,0.7,0.1,1.2,0.3,1.7
		s0.4,0.9,0.7,1.2c0.3,0.3,0.8,0.4,1.4,0.4c0.7,0,1.3-0.1,1.8-0.2c0.5-0.1,1-0.3,1.6-0.6c0.1,0.2,0.1,0.4,0.2,0.7
		c0,0.3,0.1,0.5,0.1,0.8c0,0.3-0.1,0.6-0.4,0.9c-0.2,0.2-0.6,0.4-1,0.6c-0.4,0.2-0.8,0.3-1.3,0.3c-0.5,0.1-1,0.1-1.5,0.1
		c-1.1,0-1.9-0.2-2.5-0.6s-1.1-1-1.4-1.7c-0.3-0.7-0.5-1.6-0.6-2.5c-0.1-1-0.1-2.1-0.1-3.2v-15.9H4.5z"/>
	<path id="XMLID_11_" class="st0" d="M25.1,365.5c2.3,0,3.9,0.7,5,2.2c1,1.4,1.6,3.5,1.6,6c0,1.1,0,2.2-0.1,3.3
		c-0.1,1.1-0.2,2.1-0.4,2.9c-1.1,0.2-2.3,0.4-3.5,0.5s-2.4,0.2-3.5,0.3s-2.2,0.1-3.1,0.1c-1,0-1.7,0-2.3,0c0,1.9,0.1,3.4,0.4,4.6
		c0.3,1.2,0.7,2.1,1.2,2.7c0.5,0.6,1.2,1,1.9,1.2s1.6,0.3,2.5,0.3c1.2,0,2.3-0.1,3.4-0.4c1.1-0.3,2-0.7,2.8-1.3
		c0.1,0.3,0.2,0.7,0.3,1.1c0.1,0.4,0.1,0.7,0.1,1c0,0.3-0.2,0.6-0.6,0.9c-0.4,0.3-0.9,0.6-1.5,0.8c-0.6,0.2-1.4,0.4-2.3,0.6
		c-0.9,0.2-1.8,0.2-2.7,0.2c-1.2,0-2.4-0.1-3.4-0.4c-1-0.3-1.9-0.8-2.7-1.7c-0.7-0.9-1.3-2.1-1.8-3.7c-0.4-1.6-0.6-3.7-0.6-6.3
		c0-3.3,0.3-6,0.9-7.9c0.6-2,1.3-3.5,2.2-4.5s1.9-1.7,3-2C23,365.6,24.1,365.5,25.1,365.5z M24.9,368.1c-0.7,0-1.3,0.1-2,0.3
		c-0.7,0.2-1.3,0.7-1.9,1.4c-0.6,0.7-1,1.8-1.4,3.1c-0.4,1.4-0.6,3.2-0.7,5.5c0.5,0,1.2,0,2,0s1.7,0,2.6-0.1
		c0.9-0.1,1.9-0.1,2.8-0.2c0.9-0.1,1.7-0.2,2.5-0.4c0.1-0.6,0.1-1.2,0.2-1.8s0.1-1.1,0.1-1.7c0-2.1-0.3-3.6-0.9-4.6
		C27.5,368.6,26.4,368.1,24.9,368.1z"/>
	<path id="XMLID_14_" class="st0" d="M34.5,366.7c0-0.2,0-0.3,0-0.4s0.1-0.2,0.3-0.2s0.5-0.1,0.9-0.1s1,0,1.7,0l2.1,9.4
		c0.3,1.7,0.7,3.3,0.9,4.8c0.3,1.5,0.5,2.9,0.8,4.1c0.2,1.4,0.5,2.8,0.7,4h0.2c0.1-0.5,0.2-1.2,0.4-2.1s0.3-1.8,0.5-2.9
		c0.2-1,0.4-2.1,0.6-3.2c0.2-1.1,0.4-2.1,0.6-3.1l1.8-9.5c0-0.3,0.1-0.5,0.2-0.6c0.1-0.1,0.4-0.2,0.8-0.2h1.9l2.2,10.3
		c0.3,1.3,0.6,2.7,0.9,4c0.3,1.3,0.5,2.5,0.8,3.6c0.2,1.2,0.5,2.4,0.7,3.6h0.2c0.1-0.7,0.2-1.5,0.3-2.5s0.3-2.1,0.5-3.2
		c0.2-1.2,0.4-2.4,0.6-3.6c0.2-1.2,0.5-2.4,0.7-3.6l1.8-8.7c0-0.2,0.1-0.3,0.1-0.4c0.1-0.1,0.2-0.2,0.4-0.2c0.2-0.1,0.5-0.1,0.8-0.1
		c0.4,0,0.9,0,1.6,0c-1.1,4.9-2,9.3-2.9,13.1c-0.4,1.7-0.7,3.3-1.1,4.9c-0.3,1.6-0.7,3-0.9,4.2c-0.3,1.2-0.6,2.6-1,4.1
		c-0.2,0-0.3,0.1-0.5,0.1s-0.4,0.1-0.6,0.1c-0.2,0-0.4,0-0.7,0c-0.2,0-0.5-0.3-0.8-0.8s-0.6-1.2-0.8-2.1l-0.8-3.6
		c-0.3-1.4-0.7-2.8-1-4.3c-0.3-1.4-0.6-2.8-0.9-4c-0.3-1.3-0.5-2.4-0.7-3.5s-0.4-1.9-0.5-2.7c-0.1,0.7-0.3,1.6-0.4,2.7
		c-0.2,1.1-0.4,2.3-0.6,3.5c-0.2,1.3-0.5,2.6-0.8,4s-0.6,2.8-1,4.3l-1.4,6.3c-0.3,0-0.6,0.1-0.8,0.1s-0.5,0.1-0.8,0.1s-0.5,0-0.6,0
		c-0.2,0-0.5-0.2-0.7-0.7s-0.4-1.1-0.6-1.8c-0.2-0.8-0.4-1.8-0.7-2.9s-0.5-2.3-0.8-3.5s-0.6-2.5-0.9-3.8c-0.3-1.3-0.6-2.6-0.9-3.8
		C35.9,372.9,35.2,369.9,34.5,366.7z"/>
	<path id="XMLID_16_" class="st0" d="M63.2,367.9c0-0.5,0.1-0.8,0.4-1c0.5-0.3,1.5-0.6,3-0.9c1.5-0.3,3.2-0.4,5.1-0.4
		c2.1,0,3.6,0.5,4.7,1.4c1,0.9,1.6,2.6,1.6,4.9v3.1c0,3,0,5.8-0.1,8.6c-0.1,2.7-0.1,5.1-0.2,7.2c-0.6,0.4-1.5,0.8-2.6,1.2
		c-1.1,0.4-2.6,0.6-4.5,0.6c-0.9,0-1.9-0.1-2.8-0.2c-0.9-0.1-1.7-0.5-2.4-1s-1.3-1.3-1.7-2.3s-0.6-2.4-0.6-4.2
		c0-1.8,0.2-3.3,0.6-4.4c0.4-1.1,1-2,1.7-2.6s1.6-1,2.5-1.2c0.9-0.2,1.9-0.3,2.9-0.3c0.7,0,1.4,0,2.2,0.1c0.8,0.1,1.5,0.3,2.1,0.5
		v-4.7c0-0.8-0.1-1.5-0.3-2.1c-0.2-0.5-0.5-1-0.8-1.3c-0.3-0.3-0.8-0.5-1.3-0.6s-1.1-0.2-1.7-0.2c-1.7,0-3.1,0.1-4.5,0.4
		c-1.3,0.3-2.3,0.6-3,0.9C63.3,369,63.2,368.4,63.2,367.9z M75.2,379c-0.5-0.2-1-0.3-1.7-0.4c-0.6-0.1-1.2-0.1-1.7-0.1
		c-0.7,0-1.4,0.1-2.1,0.2c-0.7,0.1-1.3,0.4-1.8,0.8c-0.5,0.4-0.9,1-1.2,1.8s-0.5,1.9-0.5,3.3c0,1.2,0.1,2.2,0.4,2.9
		c0.3,0.7,0.6,1.2,1.1,1.6c0.5,0.4,1,0.6,1.6,0.7s1.2,0.1,1.9,0.1c0.8,0,1.6-0.1,2.3-0.4c0.7-0.2,1.2-0.5,1.5-0.8
		c0-0.6,0.1-1.2,0.1-2c0-0.8,0.1-1.6,0.1-2.5s0-1.8,0.1-2.7C75.2,380.7,75.2,379.9,75.2,379z"/>
	<path id="XMLID_19_" class="st0" d="M83.2,367.3c1.2-0.5,2.6-1,4-1.3c1.5-0.3,2.9-0.5,4.4-0.5c1.4,0,2.5,0.1,3.5,0.4
		c0.9,0.3,1.7,0.7,2.2,1.3c0.6,0.6,0.9,1.3,1.1,2.2s0.3,2,0.3,3.2v18.7c0,0.2,0,0.3-0.1,0.4c0,0.1-0.1,0.2-0.3,0.2
		c-0.2,0.1-0.5,0.1-0.9,0.1s-0.9,0-1.7,0v-18.6c0-0.9-0.1-1.7-0.2-2.4c-0.1-0.7-0.3-1.2-0.6-1.7c-0.3-0.4-0.7-0.8-1.3-1
		s-1.3-0.3-2.2-0.3c-0.8,0-1.7,0.1-2.7,0.3s-2,0.5-2.8,0.9v22.1c0,0.2,0,0.3-0.1,0.4c0,0.1-0.1,0.2-0.3,0.2
		c-0.2,0.1-0.5,0.1-0.9,0.1s-0.9,0-1.6,0v-24.7H83.2z"/>
	<path id="XMLID_21_" class="st0" d="M-17,402.3c0-0.5,0.2-0.7,0.7-0.7h5.4c3.3,0,5.6,0.9,7,2.6c1.4,1.8,2.1,4.2,2.1,7.2
		c0,2-0.2,3.7-0.7,5.1c-0.5,1.4-1.1,2.6-1.9,3.5c-0.8,0.9-1.8,1.6-3,2c-1.1,0.4-2.4,0.6-3.7,0.6h-3.1v14.7c0,0.2,0,0.3-0.1,0.4
		c0,0.1-0.1,0.2-0.3,0.2c-0.2,0.1-0.5,0.1-0.8,0.1c-0.4,0-0.9,0-1.6,0L-17,402.3L-17,402.3z M-5,411.3c0-1-0.1-1.9-0.3-2.8
		c-0.2-0.9-0.5-1.6-0.9-2.2c-0.5-0.6-1-1.1-1.8-1.5c-0.7-0.4-1.6-0.5-2.8-0.5h-3.5V420h3.3C-7,419.9-5,417-5,411.3z"/>
	<path id="XMLID_24_" class="st0" d="M0.5,413.9c0-0.5,0.1-0.8,0.4-1c0.5-0.3,1.5-0.6,3-0.9c1.5-0.3,3.2-0.4,5.1-0.4
		c2.1,0,3.6,0.5,4.7,1.4c1,0.9,1.6,2.6,1.6,4.9v3.1c0,3,0,5.8-0.1,8.6c-0.1,2.7-0.1,5.1-0.2,7.2c-0.6,0.4-1.5,0.8-2.6,1.2
		s-2.6,0.6-4.5,0.6c-0.9,0-1.9-0.1-2.8-0.2c-0.9-0.1-1.7-0.5-2.4-1s-1.3-1.3-1.7-2.3s-0.6-2.4-0.6-4.2c0-1.8,0.2-3.3,0.6-4.4
		c0.4-1.1,1-2,1.7-2.6c0.7-0.6,1.6-1,2.5-1.2s1.9-0.3,2.9-0.3c0.7,0,1.4,0,2.2,0.1s1.5,0.3,2,0.5v-4.7c0-0.8-0.1-1.5-0.3-2.1
		c-0.2-0.5-0.5-1-0.8-1.3c-0.3-0.3-0.8-0.5-1.3-0.6s-1.1-0.2-1.7-0.2c-1.7,0-3.1,0.1-4.5,0.4c-1.4,0.3-2.3,0.6-3,0.9
		C0.7,415,0.5,414.4,0.5,413.9z M12.5,425c-0.5-0.2-1-0.3-1.7-0.4c-0.6-0.1-1.2-0.1-1.7-0.1c-0.7,0-1.4,0.1-2.1,0.2
		c-0.7,0.1-1.3,0.4-1.8,0.8c-0.5,0.4-0.9,1-1.2,1.8s-0.5,1.9-0.5,3.3c0,1.2,0.1,2.2,0.4,2.9c0.3,0.7,0.6,1.2,1.1,1.6
		c0.4,0.4,1,0.6,1.6,0.7s1.2,0.1,1.9,0.1c0.8,0,1.6-0.1,2.3-0.4c0.7-0.3,1.2-0.5,1.5-0.8c0-0.6,0.1-1.2,0.1-2s0.1-1.6,0.1-2.5
		s0-1.8,0.1-2.7C12.5,426.7,12.5,425.9,12.5,425z"/>
	<path id="XMLID_27_" class="st0" d="M33.5,413.6c0,0.2,0,0.5-0.1,0.8s-0.1,0.6-0.3,0.9c-0.4-0.3-1-0.5-1.7-0.8
		c-0.7-0.3-1.5-0.4-2.4-0.4c-0.7,0-1.4,0.1-2.2,0.3c-0.8,0.2-1.5,0.7-2.1,1.6c-0.6,0.8-1.1,2-1.5,3.5s-0.6,3.6-0.6,6.2
		c0,2.1,0.1,3.8,0.4,5.2c0.3,1.3,0.6,2.4,1.1,3.1c0.5,0.7,1.1,1.2,1.8,1.5c0.7,0.3,1.5,0.4,2.3,0.4c1.1,0,2-0.2,2.9-0.5
		c0.8-0.3,1.5-0.7,1.9-1.1c0.2,0.6,0.4,1.1,0.4,1.7c0,0.6-0.5,1.2-1.6,1.7s-2.5,0.8-4.3,0.8c-1.2,0-2.2-0.1-3.2-0.4
		c-1-0.3-1.8-0.9-2.4-1.8c-0.7-0.9-1.2-2.2-1.6-3.9c-0.4-1.7-0.6-3.9-0.6-6.7c0-3.1,0.3-5.6,0.9-7.4c0.6-1.9,1.3-3.3,2.2-4.3
		s1.9-1.6,3-1.9s2.2-0.4,3.2-0.4c1.2,0,2.2,0.2,3.1,0.6C33.1,412.5,33.5,413,33.5,413.6z"/>
	<path id="XMLID_29_" class="st0" d="M37.7,401.2c0-0.7,0.2-1.1,0.6-1.2c0.4-0.1,1.1-0.2,2.3-0.2v13.9c1-0.8,2.1-1.4,3.2-1.7
		c1.2-0.3,2.3-0.5,3.3-0.5c1.2,0,2.2,0.2,3,0.5c0.8,0.3,1.4,0.8,1.8,1.4c0.4,0.6,0.8,1.3,0.9,2.2c0.2,0.9,0.2,1.8,0.2,2.9v18.8
		c0,0.2,0,0.3-0.1,0.4s-0.2,0.2-0.4,0.2S52,438,51.6,438s-0.9,0-1.6,0v-18.9c0-0.7-0.1-1.4-0.2-2c-0.1-0.6-0.3-1.1-0.6-1.5
		c-0.3-0.4-0.7-0.8-1.3-1c-0.5-0.2-1.2-0.4-2.1-0.4c-0.8,0-1.7,0.1-2.7,0.4c-1,0.3-1.9,0.8-2.8,1.6v21c0,0.2,0,0.3-0.1,0.4
		c0,0.1-0.1,0.2-0.3,0.2s-0.5,0.1-0.8,0.1c-0.4,0-0.9,0-1.7,0v-36.7H37.7z"/>
	<path id="XMLID_31_" class="st0" d="M66.7,411.5c2.3,0,3.9,0.7,5,2.2c1,1.4,1.6,3.5,1.6,6c0,1.1,0,2.2-0.1,3.3
		c-0.1,1.1-0.2,2.1-0.4,2.9c-1.1,0.2-2.3,0.4-3.5,0.5s-2.4,0.2-3.5,0.3c-1.1,0.1-2.2,0.1-3.1,0.1s-1.7,0-2.3,0
		c0,1.9,0.1,3.4,0.4,4.6c0.3,1.2,0.7,2.1,1.2,2.7c0.5,0.6,1.2,1,1.9,1.2s1.6,0.3,2.5,0.3c1.2,0,2.3-0.1,3.4-0.4
		c1.1-0.3,2-0.7,2.8-1.3c0.1,0.3,0.2,0.7,0.3,1.1c0.1,0.4,0.1,0.7,0.1,1c0,0.3-0.2,0.6-0.6,0.9c-0.4,0.3-0.9,0.6-1.5,0.8
		c-0.6,0.2-1.4,0.4-2.3,0.6c-0.9,0.2-1.8,0.2-2.7,0.2c-1.2,0-2.4-0.1-3.4-0.4c-1-0.3-1.9-0.8-2.7-1.7s-1.3-2.1-1.8-3.7
		c-0.4-1.6-0.6-3.7-0.6-6.3c0-3.3,0.3-6,0.9-7.9c0.6-2,1.3-3.5,2.2-4.5s1.9-1.7,3-2C64.5,411.6,65.6,411.5,66.7,411.5z M66.5,414.1
		c-0.7,0-1.3,0.1-2,0.3c-0.7,0.2-1.3,0.7-1.9,1.4c-0.6,0.7-1,1.8-1.4,3.1s-0.6,3.2-0.7,5.5c0.5,0,1.2,0,2,0s1.7,0,2.6-0.1
		c0.9-0.1,1.9-0.1,2.8-0.2c0.9-0.1,1.7-0.2,2.5-0.4c0.1-0.6,0.1-1.2,0.2-1.8s0.1-1.1,0.1-1.7c0-2.1-0.3-3.6-0.9-4.6
		C69.1,414.6,68,414.1,66.5,414.1z"/>
	<path id="XMLID_34_" class="st0" d="M90.7,413.6c0,0.2,0,0.5-0.1,0.8s-0.1,0.6-0.3,0.9c-0.4-0.3-1-0.5-1.7-0.8
		c-0.7-0.3-1.5-0.4-2.4-0.4c-0.7,0-1.4,0.1-2.2,0.3c-0.8,0.2-1.5,0.7-2.1,1.6c-0.6,0.8-1.1,2-1.5,3.5s-0.6,3.6-0.6,6.2
		c0,2.1,0.1,3.8,0.4,5.2c0.3,1.3,0.6,2.4,1.1,3.1c0.5,0.7,1.1,1.2,1.8,1.5c0.7,0.3,1.5,0.4,2.3,0.4c1.1,0,2-0.2,2.9-0.5
		c0.8-0.3,1.5-0.7,1.9-1.1c0.2,0.6,0.4,1.1,0.4,1.7c0,0.6-0.5,1.2-1.6,1.7s-2.5,0.8-4.3,0.8c-1.2,0-2.2-0.1-3.2-0.4
		c-1-0.3-1.8-0.9-2.4-1.8c-0.7-0.9-1.2-2.2-1.6-3.9c-0.4-1.7-0.6-3.9-0.6-6.7c0-3.1,0.3-5.6,0.9-7.4c0.6-1.9,1.3-3.3,2.2-4.3
		s1.9-1.6,3-1.9s2.2-0.4,3.2-0.4c1.2,0,2.2,0.2,3.1,0.6C90.3,412.5,90.7,413,90.7,413.6z"/>
	<path id="XMLID_36_" class="st0" d="M93.2,425c0-4.8,0.8-8.3,2.3-10.4c1.5-2.1,3.7-3.2,6.4-3.2c1.3,0,2.5,0.2,3.5,0.6
		c1,0.4,1.8,1.1,2.5,2.2c0.7,1,1.2,2.4,1.5,4.1c0.3,1.7,0.5,3.9,0.5,6.6c0,4.7-0.7,8.1-2.2,10.3c-1.5,2.2-3.6,3.2-6.4,3.2
		c-1.2,0-2.4-0.1-3.4-0.4c-1-0.3-1.9-0.9-2.6-1.9s-1.2-2.3-1.6-4.1C93.4,430.3,93.2,428,93.2,425z M96.3,425.2
		c0,2.3,0.1,4.1,0.3,5.5c0.2,1.4,0.6,2.5,1,3.3c0.4,0.8,1,1.3,1.6,1.6c0.6,0.3,1.3,0.4,2.2,0.4c0.8,0,1.6-0.2,2.2-0.6
		c0.7-0.4,1.2-1,1.7-1.9c0.5-0.9,0.9-2,1.1-3.4c0.3-1.4,0.4-3.1,0.4-5.2c0-2.2-0.1-4.1-0.3-5.5c-0.2-1.4-0.6-2.5-1-3.3
		c-0.4-0.8-1-1.3-1.6-1.6s-1.3-0.4-2.2-0.4c-0.8,0-1.6,0.2-2.3,0.5c-0.7,0.3-1.3,1-1.7,1.8c-0.5,0.9-0.9,2-1.1,3.5
		C96.4,421.2,96.3,423.1,96.3,425.2z"/>
</g>
</svg>
