<?xml version="1.0" encoding="utf-8"?>
<!-- Generator: Adobe Illustrator 19.0.0, SVG Export Plug-In . SVG Version: 6.00 Build 0)  -->
<svg version="1.1" id="Camada_1" xmlns="http://www.w3.org/2000/svg" xmlns:xlink="http://www.w3.org/1999/xlink" x="0px" y="0px"
	 viewBox="0 0 278.8 95.7" style="enable-background:new 0 0 278.8 95.7;" xml:space="preserve">
<style type="text/css">
	.st0{fill:#D8D9DD;}
	.st1{fill:#F7F7F8;}
</style>
<polyline id="XMLID_5_" class="st0" points="104.3,47.9 78.8,92.1 104.1,92.1 129.3,47.8 129.3,47.8 104.1,4.1 78.8,4.1 104.2,48.1 
	"/>
<polyline id="XMLID_4_" class="st0" points="27.8,48.1 53.1,92.1 28,92.1 2.3,48.2 2.3,48.2 28,4.1 53.1,4.1 27.9,48.1 "/>
<polygon id="XMLID_3_" class="st1" points="78.7,4.1 27.8,92.1 53.2,92.1 104.1,4.1 "/>
<g id="XMLID_1_">
	<path id="XMLID_7_" class="st1" d="M156.7,5.8c2.3,0,4,0.2,5,0.7c1,0.5,1.5,1,1.5,1.6c0,0.6-0.3,1.2-0.8,1.7
		c-0.4-0.3-1.1-0.6-2.1-0.9s-2.1-0.5-3.5-0.5c-1.8,0-3.2,0.4-4.3,1.2c-1.1,0.8-1.6,1.9-1.6,3.2c0,1.1,0.3,2,0.8,2.9
		c0.5,0.9,1.2,1.8,2.1,2.7l6.2,6.4c1.5,1.6,2.4,3,3,4.4c0.5,1.4,0.8,2.9,0.8,4.6c0,1.4-0.2,2.6-0.5,3.8c-0.3,1.2-0.9,2.2-1.6,3
		c-0.7,0.8-1.7,1.5-2.8,2c-1.1,0.5-2.5,0.7-4.2,0.7c-1.2,0-2.2-0.1-3.1-0.3c-0.8-0.2-1.6-0.4-2.1-0.7c-0.6-0.3-1-0.6-1.2-0.9
		s-0.4-0.6-0.4-0.9c0-0.3,0.1-0.7,0.2-1.1c0.1-0.4,0.3-0.7,0.6-1c0.6,0.5,1.3,1,2.2,1.3c0.9,0.4,2.1,0.5,3.6,0.5
		c2.2,0,3.8-0.6,4.8-1.8c1-1.2,1.4-2.7,1.4-4.6c0-0.7-0.1-1.4-0.2-2.1c-0.1-0.6-0.3-1.3-0.6-1.9s-0.6-1.3-1.1-1.9
		c-0.5-0.6-1-1.3-1.7-2.1l-5.6-5.9c-1.2-1.3-2.1-2.5-2.6-3.7c-0.6-1.1-0.9-2.4-0.9-3.7c0-2,0.8-3.7,2.3-5
		C151.7,6.4,153.9,5.8,156.7,5.8z"/>
	<path id="XMLID_9_" class="st1" d="M170.5,19.2h-3.8c0-1.1,0-1.9,0.1-2.1c0.1-0.3,0.3-0.4,0.6-0.4h3.2V8.5c0-0.6,0.2-0.9,0.5-1
		c0.3-0.1,1.1-0.1,2.3-0.1v9.3h6.3c0,1.1,0,1.9-0.1,2.1c-0.1,0.3-0.2,0.4-0.5,0.4h-5.7v15.9c0,0.8,0,1.5,0.1,2.1
		c0,0.7,0.1,1.2,0.3,1.7c0.2,0.5,0.4,0.9,0.7,1.2c0.3,0.3,0.8,0.4,1.4,0.4c0.7,0,1.3-0.1,1.8-0.2c0.5-0.1,1-0.3,1.6-0.6
		c0.1,0.2,0.1,0.4,0.2,0.7c0,0.3,0.1,0.5,0.1,0.8c0,0.3-0.1,0.6-0.4,0.9c-0.2,0.2-0.6,0.4-1,0.6c-0.4,0.2-0.8,0.3-1.3,0.3
		c-0.5,0.1-1,0.1-1.5,0.1c-1.1,0-1.9-0.2-2.5-0.6c-0.6-0.4-1.1-1-1.4-1.7c-0.3-0.7-0.5-1.6-0.6-2.5c-0.1-1-0.1-2.1-0.1-3.2V19.2z"/>
	<path id="XMLID_11_" class="st1" d="M191.1,16.2c2.3,0,3.9,0.7,5,2.2c1,1.4,1.6,3.5,1.6,6c0,1.1,0,2.2-0.1,3.3
		c-0.1,1.1-0.2,2.1-0.4,2.9c-1.1,0.2-2.3,0.4-3.5,0.5c-1.2,0.1-2.4,0.2-3.5,0.3c-1.1,0.1-2.2,0.1-3.1,0.1c-1,0-1.7,0-2.3,0
		c0,1.9,0.1,3.4,0.4,4.6c0.3,1.2,0.7,2.1,1.2,2.7c0.5,0.6,1.2,1,1.9,1.2c0.7,0.2,1.6,0.3,2.5,0.3c1.2,0,2.3-0.1,3.4-0.4
		c1.1-0.3,2-0.7,2.8-1.3c0.1,0.3,0.2,0.7,0.3,1.1c0.1,0.4,0.1,0.7,0.1,1c0,0.3-0.2,0.6-0.6,0.9s-0.9,0.6-1.5,0.8
		c-0.6,0.2-1.4,0.4-2.3,0.6c-0.9,0.2-1.8,0.2-2.7,0.2c-1.2,0-2.4-0.1-3.4-0.4c-1-0.3-1.9-0.8-2.7-1.7c-0.7-0.9-1.3-2.1-1.8-3.7
		c-0.4-1.6-0.6-3.7-0.6-6.3c0-3.3,0.3-6,0.9-7.9c0.6-2,1.3-3.5,2.2-4.5c0.9-1,1.9-1.7,3-2C189,16.3,190.1,16.2,191.1,16.2z
		 M190.9,18.8c-0.7,0-1.3,0.1-2,0.3c-0.7,0.2-1.3,0.7-1.9,1.4c-0.6,0.7-1,1.8-1.4,3.1c-0.4,1.4-0.6,3.2-0.7,5.5c0.5,0,1.2,0,2,0
		c0.8,0,1.7,0,2.6-0.1c0.9-0.1,1.9-0.1,2.8-0.2c0.9-0.1,1.7-0.2,2.5-0.4c0.1-0.6,0.1-1.2,0.2-1.8s0.1-1.1,0.1-1.7
		c0-2.1-0.3-3.6-0.9-4.6C193.5,19.3,192.4,18.8,190.9,18.8z"/>
	<path id="XMLID_14_" class="st1" d="M200.5,17.4c0-0.2,0-0.3,0-0.4c0-0.1,0.1-0.2,0.3-0.2s0.5-0.1,0.9-0.1s1,0,1.7,0l2.1,9.4
		c0.3,1.7,0.7,3.3,0.9,4.8c0.3,1.5,0.5,2.9,0.8,4.1c0.2,1.4,0.5,2.8,0.7,4h0.2c0.1-0.5,0.2-1.2,0.4-2.1c0.2-0.9,0.3-1.8,0.5-2.9
		c0.2-1,0.4-2.1,0.6-3.2c0.2-1.1,0.4-2.1,0.6-3.1l1.8-9.5c0-0.3,0.1-0.5,0.2-0.6s0.4-0.2,0.8-0.2h1.9l2.2,10.3
		c0.3,1.3,0.6,2.7,0.9,4c0.3,1.3,0.5,2.5,0.8,3.6c0.2,1.2,0.5,2.4,0.7,3.6h0.2c0.1-0.7,0.2-1.5,0.3-2.5c0.1-1,0.3-2.1,0.5-3.2
		c0.2-1.2,0.4-2.4,0.6-3.6c0.2-1.2,0.5-2.4,0.7-3.6l1.8-8.7c0-0.2,0.1-0.3,0.1-0.4c0.1-0.1,0.2-0.2,0.4-0.2c0.2-0.1,0.5-0.1,0.8-0.1
		c0.4,0,0.9,0,1.6,0c-1.1,4.9-2,9.3-2.9,13.1c-0.4,1.7-0.7,3.3-1.1,4.9c-0.3,1.6-0.7,3-0.9,4.2c-0.3,1.2-0.6,2.6-1,4.1
		c-0.2,0-0.3,0.1-0.5,0.1c-0.2,0-0.4,0.1-0.6,0.1c-0.2,0-0.4,0-0.7,0c-0.2,0-0.5-0.3-0.8-0.8s-0.6-1.2-0.8-2.1l-0.8-3.6
		c-0.3-1.4-0.7-2.8-1-4.3c-0.3-1.4-0.6-2.8-0.9-4c-0.3-1.3-0.5-2.4-0.7-3.5c-0.2-1.1-0.4-1.9-0.5-2.7c-0.1,0.7-0.3,1.6-0.4,2.7
		c-0.2,1.1-0.4,2.3-0.6,3.5c-0.2,1.3-0.5,2.6-0.8,4c-0.3,1.4-0.6,2.8-1,4.3l-1.4,6.3c-0.3,0-0.6,0.1-0.8,0.1c-0.2,0-0.5,0.1-0.8,0.1
		s-0.5,0-0.6,0c-0.2,0-0.5-0.2-0.7-0.7c-0.2-0.5-0.4-1.1-0.6-1.8c-0.2-0.8-0.4-1.8-0.7-2.9s-0.5-2.3-0.8-3.5
		c-0.3-1.2-0.6-2.5-0.9-3.8s-0.6-2.6-0.9-3.8C201.9,23.6,201.2,20.6,200.5,17.4z"/>
	<path id="XMLID_16_" class="st1" d="M229.2,18.6c0-0.5,0.1-0.8,0.4-1c0.5-0.3,1.5-0.6,3-0.9c1.5-0.3,3.2-0.4,5.1-0.4
		c2.1,0,3.6,0.5,4.7,1.4c1,0.9,1.6,2.6,1.6,4.9v3.1c0,3,0,5.8-0.1,8.6c-0.1,2.7-0.1,5.1-0.2,7.2c-0.6,0.4-1.5,0.8-2.6,1.2
		c-1.1,0.4-2.6,0.6-4.5,0.6c-0.9,0-1.9-0.1-2.8-0.2c-0.9-0.1-1.7-0.5-2.4-1s-1.3-1.3-1.7-2.3c-0.4-1-0.6-2.4-0.6-4.2
		c0-1.8,0.2-3.3,0.6-4.4c0.4-1.1,1-2,1.7-2.6c0.7-0.6,1.6-1,2.5-1.2c0.9-0.2,1.9-0.3,2.9-0.3c0.7,0,1.4,0,2.2,0.1
		c0.8,0.1,1.5,0.3,2.1,0.5V23c0-0.8-0.1-1.5-0.3-2.1c-0.2-0.5-0.5-1-0.8-1.3s-0.8-0.5-1.3-0.6c-0.5-0.1-1.1-0.2-1.7-0.2
		c-1.7,0-3.1,0.1-4.5,0.4c-1.3,0.3-2.3,0.6-3,0.9C229.3,19.7,229.2,19.1,229.2,18.6z M241.2,29.7c-0.5-0.2-1-0.3-1.7-0.4
		c-0.6-0.1-1.2-0.1-1.7-0.1c-0.7,0-1.4,0.1-2.1,0.2c-0.7,0.1-1.3,0.4-1.8,0.8c-0.5,0.4-0.9,1-1.2,1.8c-0.3,0.8-0.5,1.9-0.5,3.3
		c0,1.2,0.1,2.2,0.4,2.9c0.3,0.7,0.6,1.2,1.1,1.6s1,0.6,1.6,0.7c0.6,0.1,1.2,0.1,1.9,0.1c0.8,0,1.6-0.1,2.3-0.4
		c0.7-0.2,1.2-0.5,1.5-0.8c0-0.6,0.1-1.2,0.1-2s0.1-1.6,0.1-2.5c0-0.9,0-1.8,0.1-2.7C241.2,31.4,241.2,30.6,241.2,29.7z"/>
	<path id="XMLID_19_" class="st1" d="M249.2,18c1.2-0.5,2.6-1,4-1.3c1.5-0.3,2.9-0.5,4.4-0.5c1.4,0,2.5,0.1,3.5,0.4
		c0.9,0.3,1.7,0.7,2.2,1.3c0.6,0.6,0.9,1.3,1.1,2.2c0.2,0.9,0.3,2,0.3,3.2V42c0,0.2,0,0.3-0.1,0.4c0,0.1-0.1,0.2-0.3,0.2
		c-0.2,0.1-0.5,0.1-0.9,0.1s-0.9,0-1.7,0V24.1c0-0.9-0.1-1.7-0.2-2.4c-0.1-0.7-0.3-1.2-0.6-1.7c-0.3-0.4-0.7-0.8-1.3-1
		s-1.3-0.3-2.2-0.3c-0.8,0-1.7,0.1-2.7,0.3c-1,0.2-2,0.5-2.8,0.9V42c0,0.2,0,0.3-0.1,0.4c0,0.1-0.1,0.2-0.3,0.2
		c-0.2,0.1-0.5,0.1-0.9,0.1c-0.4,0-0.9,0-1.6,0V18z"/>
	<path id="XMLID_21_" class="st1" d="M149,53c0-0.5,0.2-0.7,0.7-0.7h5.4c3.3,0,5.6,0.9,7,2.6c1.4,1.8,2.1,4.2,2.1,7.2
		c0,2-0.2,3.7-0.7,5.1s-1.1,2.6-1.9,3.5c-0.8,0.9-1.8,1.6-3,2c-1.1,0.4-2.4,0.6-3.7,0.6h-3.1V88c0,0.2,0,0.3-0.1,0.4
		c0,0.1-0.1,0.2-0.3,0.2c-0.2,0.1-0.5,0.1-0.8,0.1c-0.4,0-0.9,0-1.6,0V53z M161,62c0-1-0.1-1.9-0.3-2.8c-0.2-0.9-0.5-1.6-0.9-2.2
		c-0.5-0.6-1-1.1-1.8-1.5c-0.7-0.4-1.6-0.5-2.8-0.5h-3.5v15.7h3.3C159,70.6,161,67.7,161,62z"/>
	<path id="XMLID_24_" class="st1" d="M166.5,64.6c0-0.5,0.1-0.8,0.4-1c0.5-0.3,1.5-0.6,3-0.9c1.5-0.3,3.2-0.4,5.1-0.4
		c2.1,0,3.6,0.5,4.7,1.4c1,0.9,1.6,2.6,1.6,4.9v3.1c0,3,0,5.8-0.1,8.6c-0.1,2.7-0.1,5.1-0.2,7.2c-0.6,0.4-1.5,0.8-2.6,1.2
		s-2.6,0.6-4.5,0.6c-0.9,0-1.9-0.1-2.8-0.2c-0.9-0.1-1.7-0.5-2.4-1c-0.7-0.5-1.3-1.3-1.7-2.3c-0.4-1-0.6-2.4-0.6-4.2
		c0-1.8,0.2-3.3,0.6-4.4c0.4-1.1,1-2,1.7-2.6c0.7-0.6,1.6-1,2.5-1.2s1.9-0.3,2.9-0.3c0.7,0,1.4,0,2.2,0.1c0.8,0.1,1.5,0.3,2,0.5V69
		c0-0.8-0.1-1.5-0.3-2.1c-0.2-0.5-0.5-1-0.8-1.3s-0.8-0.5-1.3-0.6c-0.5-0.1-1.1-0.2-1.7-0.2c-1.7,0-3.1,0.1-4.5,0.4s-2.3,0.6-3,0.9
		C166.7,65.7,166.5,65.1,166.5,64.6z M178.5,75.7c-0.5-0.2-1-0.3-1.7-0.4c-0.6-0.1-1.2-0.1-1.7-0.1c-0.7,0-1.4,0.1-2.1,0.2
		c-0.7,0.1-1.3,0.4-1.8,0.8c-0.5,0.4-0.9,1-1.2,1.8c-0.3,0.8-0.5,1.9-0.5,3.3c0,1.2,0.1,2.2,0.4,2.9c0.3,0.7,0.6,1.2,1.1,1.6
		c0.4,0.4,1,0.6,1.6,0.7c0.6,0.1,1.2,0.1,1.9,0.1c0.8,0,1.6-0.1,2.3-0.4s1.2-0.5,1.5-0.8c0-0.6,0.1-1.2,0.1-2c0-0.8,0.1-1.6,0.1-2.5
		s0-1.8,0.1-2.7C178.5,77.4,178.5,76.6,178.5,75.7z"/>
	<path id="XMLID_27_" class="st1" d="M199.5,64.3c0,0.2,0,0.5-0.1,0.8s-0.1,0.6-0.3,0.9c-0.4-0.3-1-0.5-1.7-0.8
		c-0.7-0.3-1.5-0.4-2.4-0.4c-0.7,0-1.4,0.1-2.2,0.3c-0.8,0.2-1.5,0.7-2.1,1.6c-0.6,0.8-1.1,2-1.5,3.5c-0.4,1.5-0.6,3.6-0.6,6.2
		c0,2.1,0.1,3.8,0.4,5.2c0.3,1.3,0.6,2.4,1.1,3.1c0.5,0.7,1.1,1.2,1.8,1.5c0.7,0.3,1.5,0.4,2.3,0.4c1.1,0,2-0.2,2.9-0.5
		c0.8-0.3,1.5-0.7,1.9-1.1c0.2,0.6,0.4,1.1,0.4,1.7c0,0.6-0.5,1.2-1.6,1.7c-1.1,0.5-2.5,0.8-4.3,0.8c-1.2,0-2.2-0.1-3.2-0.4
		c-1-0.3-1.8-0.9-2.4-1.8c-0.7-0.9-1.2-2.2-1.6-3.9c-0.4-1.7-0.6-3.9-0.6-6.7c0-3.1,0.3-5.6,0.9-7.4c0.6-1.9,1.3-3.3,2.2-4.3
		c0.9-1,1.9-1.6,3-1.9s2.2-0.4,3.2-0.4c1.2,0,2.2,0.2,3.1,0.6C199.1,63.2,199.5,63.7,199.5,64.3z"/>
	<path id="XMLID_29_" class="st1" d="M203.7,51.9c0-0.7,0.2-1.1,0.6-1.2s1.1-0.2,2.3-0.2v13.9c1-0.8,2.1-1.4,3.2-1.7
		c1.2-0.3,2.3-0.5,3.3-0.5c1.2,0,2.2,0.2,3,0.5c0.8,0.3,1.4,0.8,1.8,1.4c0.4,0.6,0.8,1.3,0.9,2.2c0.2,0.9,0.2,1.8,0.2,2.9V88
		c0,0.2,0,0.3-0.1,0.4c-0.1,0.1-0.2,0.2-0.4,0.2s-0.5,0.1-0.9,0.1s-0.9,0-1.6,0V69.8c0-0.7-0.1-1.4-0.2-2c-0.1-0.6-0.3-1.1-0.6-1.5
		c-0.3-0.4-0.7-0.8-1.3-1c-0.5-0.2-1.2-0.4-2.1-0.4c-0.8,0-1.7,0.1-2.7,0.4c-1,0.3-1.9,0.8-2.8,1.6v21c0,0.2,0,0.3-0.1,0.4
		c0,0.1-0.1,0.2-0.3,0.2s-0.5,0.1-0.8,0.1c-0.4,0-0.9,0-1.7,0V51.9z"/>
	<path id="XMLID_31_" class="st1" d="M232.7,62.2c2.3,0,3.9,0.7,5,2.2c1,1.4,1.6,3.5,1.6,6c0,1.1,0,2.2-0.1,3.3
		c-0.1,1.1-0.2,2.1-0.4,2.9c-1.1,0.2-2.3,0.4-3.5,0.5c-1.2,0.1-2.4,0.2-3.5,0.3c-1.1,0.1-2.2,0.1-3.1,0.1s-1.7,0-2.3,0
		c0,1.9,0.1,3.4,0.4,4.6c0.3,1.2,0.7,2.1,1.2,2.7c0.5,0.6,1.2,1,1.9,1.2c0.7,0.2,1.6,0.3,2.5,0.3c1.2,0,2.3-0.1,3.4-0.4
		s2-0.7,2.8-1.3c0.1,0.3,0.2,0.7,0.3,1.1c0.1,0.4,0.1,0.7,0.1,1c0,0.3-0.2,0.6-0.6,0.9s-0.9,0.6-1.5,0.8c-0.6,0.2-1.4,0.4-2.3,0.6
		c-0.9,0.2-1.8,0.2-2.7,0.2c-1.2,0-2.4-0.1-3.4-0.4s-1.9-0.8-2.7-1.7s-1.3-2.1-1.8-3.7c-0.4-1.6-0.6-3.7-0.6-6.3
		c0-3.3,0.3-6,0.9-7.9c0.6-2,1.3-3.5,2.2-4.5c0.9-1,1.9-1.7,3-2C230.5,62.3,231.6,62.2,232.7,62.2z M232.5,64.8
		c-0.7,0-1.3,0.1-2,0.3c-0.7,0.2-1.3,0.7-1.9,1.4c-0.6,0.7-1,1.8-1.4,3.1s-0.6,3.2-0.7,5.5c0.5,0,1.2,0,2,0c0.8,0,1.7,0,2.6-0.1
		c0.9-0.1,1.9-0.1,2.8-0.2c0.9-0.1,1.7-0.2,2.5-0.4c0.1-0.6,0.1-1.2,0.2-1.8s0.1-1.1,0.1-1.7c0-2.1-0.3-3.6-0.9-4.6
		C235.1,65.3,234,64.8,232.5,64.8z"/>
	<path id="XMLID_34_" class="st1" d="M256.7,64.3c0,0.2,0,0.5-0.1,0.8s-0.1,0.6-0.3,0.9c-0.4-0.3-1-0.5-1.7-0.8
		c-0.7-0.3-1.5-0.4-2.4-0.4c-0.7,0-1.4,0.1-2.2,0.3c-0.8,0.2-1.5,0.7-2.1,1.6c-0.6,0.8-1.1,2-1.5,3.5c-0.4,1.5-0.6,3.6-0.6,6.2
		c0,2.1,0.1,3.8,0.4,5.2c0.3,1.3,0.6,2.4,1.1,3.1c0.5,0.7,1.1,1.2,1.8,1.5c0.7,0.3,1.5,0.4,2.3,0.4c1.1,0,2-0.2,2.9-0.5
		c0.8-0.3,1.5-0.7,1.9-1.1c0.2,0.6,0.4,1.1,0.4,1.7c0,0.6-0.5,1.2-1.6,1.7c-1.1,0.5-2.5,0.8-4.3,0.8c-1.2,0-2.2-0.1-3.2-0.4
		c-1-0.3-1.8-0.9-2.4-1.8c-0.7-0.9-1.2-2.2-1.6-3.9c-0.4-1.7-0.6-3.9-0.6-6.7c0-3.1,0.3-5.6,0.9-7.4c0.6-1.9,1.3-3.3,2.2-4.3
		c0.9-1,1.9-1.6,3-1.9s2.2-0.4,3.2-0.4c1.2,0,2.2,0.2,3.1,0.6C256.3,63.2,256.7,63.7,256.7,64.3z"/>
	<path id="XMLID_36_" class="st1" d="M259.2,75.7c0-4.8,0.8-8.3,2.3-10.4c1.5-2.1,3.7-3.2,6.4-3.2c1.3,0,2.5,0.2,3.5,0.6
		c1,0.4,1.8,1.1,2.5,2.2c0.7,1,1.2,2.4,1.5,4.1c0.3,1.7,0.5,3.9,0.5,6.6c0,4.7-0.7,8.1-2.2,10.3c-1.5,2.2-3.6,3.2-6.4,3.2
		c-1.2,0-2.4-0.1-3.4-0.4c-1-0.3-1.9-0.9-2.6-1.9c-0.7-1-1.2-2.3-1.6-4.1C259.4,81,259.2,78.7,259.2,75.7z M262.3,75.9
		c0,2.3,0.1,4.1,0.3,5.5c0.2,1.4,0.6,2.5,1,3.3c0.4,0.8,1,1.3,1.6,1.6c0.6,0.3,1.3,0.4,2.2,0.4c0.8,0,1.6-0.2,2.2-0.6
		c0.7-0.4,1.2-1,1.7-1.9c0.5-0.9,0.9-2,1.1-3.4c0.3-1.4,0.4-3.1,0.4-5.2c0-2.2-0.1-4.1-0.3-5.5c-0.2-1.4-0.6-2.5-1-3.3
		c-0.4-0.8-1-1.3-1.6-1.6s-1.3-0.4-2.2-0.4c-0.8,0-1.6,0.2-2.3,0.5c-0.7,0.3-1.3,1-1.7,1.8c-0.5,0.9-0.9,2-1.1,3.5
		C262.4,71.9,262.3,73.8,262.3,75.9z"/>
</g>
</svg>
