<?xml version="1.0" encoding="utf-8"?>
<!-- Generator: Adobe Illustrator 19.0.0, SVG Export Plug-In . SVG Version: 6.00 Build 0)  -->
<svg version="1.1" id="Camada_1" xmlns="http://www.w3.org/2000/svg" xmlns:xlink="http://www.w3.org/1999/xlink" x="0px" y="0px"
	 viewBox="0 0 278.8 95.7" style="enable-background:new 0 0 278.8 95.7;" xml:space="preserve">
<style type="text/css">
	.st0{fill:#BD9E5F;}
	.st1{fill:#F7E984;}
</style>
<polyline id="XMLID_368_" class="st0" points="104.5,47.6 79,91.8 104.4,91.8 129.6,47.5 129.6,47.5 104.4,3.8 79,3.8 104.5,47.7 
	"/>
<polyline id="XMLID_363_" class="st0" points="28.1,47.8 53.3,91.8 28.2,91.8 2.6,47.9 2.6,47.8 28.2,3.8 53.3,3.8 28.1,47.8 "/>
<polygon id="XMLID_358_" class="st1" points="79,3.8 28.1,91.8 53.4,91.8 104.4,3.8 "/>
<path id="XMLID_349_" class="st0" d="M156.9,5.2c2.3,0,4,0.2,5,0.7c1,0.5,1.5,1,1.5,1.6c0,0.6-0.3,1.2-0.8,1.7
	c-0.4-0.3-1.1-0.6-2.1-0.9s-2.1-0.5-3.5-0.5c-1.8,0-3.2,0.4-4.3,1.2c-1.1,0.8-1.6,1.9-1.6,3.2c0,1.1,0.3,2,0.8,2.9
	c0.5,0.9,1.2,1.8,2.1,2.7l6.2,6.4c1.5,1.6,2.4,3,3,4.4c0.5,1.4,0.8,2.9,0.8,4.6c0,1.4-0.2,2.6-0.5,3.8c-0.3,1.2-0.9,2.2-1.6,3
	c-0.7,0.8-1.7,1.5-2.8,2c-1.1,0.5-2.5,0.7-4.2,0.7c-1.2,0-2.2-0.1-3.1-0.3c-0.8-0.2-1.6-0.4-2.1-0.7c-0.6-0.3-1-0.6-1.2-0.9
	s-0.4-0.6-0.4-0.9c0-0.3,0.1-0.7,0.2-1.1c0.1-0.4,0.3-0.7,0.6-1c0.6,0.5,1.3,1,2.2,1.3c0.9,0.4,2.1,0.5,3.6,0.5
	c2.2,0,3.8-0.6,4.8-1.8c1-1.2,1.4-2.7,1.4-4.6c0-0.7-0.1-1.4-0.2-2.1c-0.1-0.6-0.3-1.3-0.6-1.9s-0.6-1.3-1.1-1.9
	c-0.5-0.6-1-1.3-1.7-2.1l-5.6-5.9c-1.2-1.3-2.1-2.5-2.6-3.7c-0.6-1.1-0.9-2.4-0.9-3.7c0-2,0.8-3.7,2.3-5
	C152,5.8,154.1,5.2,156.9,5.2z"/>
<path id="XMLID_341_" class="st0" d="M170.8,18.6h-3.8c0-1.1,0-1.9,0.1-2.1c0.1-0.3,0.3-0.4,0.6-0.4h3.2V7.9c0-0.6,0.2-0.9,0.5-1
	c0.3-0.1,1.1-0.1,2.3-0.1v9.3h6.3c0,1.1,0,1.9-0.1,2.1c-0.1,0.3-0.2,0.4-0.5,0.4h-5.7v15.9c0,0.8,0,1.5,0.1,2.1
	c0,0.7,0.1,1.2,0.3,1.7c0.2,0.5,0.4,0.9,0.7,1.2c0.3,0.3,0.8,0.4,1.4,0.4c0.7,0,1.3-0.1,1.8-0.2c0.5-0.1,1-0.3,1.6-0.6
	c0.1,0.2,0.1,0.4,0.2,0.7c0,0.3,0.1,0.5,0.1,0.8c0,0.3-0.1,0.6-0.4,0.9c-0.2,0.2-0.6,0.4-1,0.6c-0.4,0.2-0.8,0.3-1.3,0.3
	c-0.5,0.1-1,0.1-1.5,0.1c-1.1,0-1.9-0.2-2.5-0.6c-0.6-0.4-1.1-1-1.4-1.7c-0.3-0.7-0.5-1.6-0.6-2.5c-0.1-1-0.1-2.1-0.1-3.2V18.6z"/>
<path id="XMLID_330_" class="st0" d="M191.4,15.5c2.3,0,3.9,0.7,5,2.2c1,1.4,1.6,3.5,1.6,6c0,1.1,0,2.2-0.1,3.3
	c-0.1,1.1-0.2,2.1-0.4,2.9c-1.1,0.2-2.3,0.4-3.5,0.5c-1.2,0.1-2.4,0.2-3.5,0.3c-1.1,0.1-2.2,0.1-3.1,0.1c-1,0-1.7,0-2.3,0
	c0,1.9,0.1,3.4,0.4,4.6c0.3,1.2,0.7,2.1,1.2,2.7c0.5,0.6,1.2,1,1.9,1.2c0.7,0.2,1.6,0.3,2.5,0.3c1.2,0,2.3-0.1,3.4-0.4
	c1.1-0.3,2-0.7,2.8-1.3c0.1,0.3,0.2,0.7,0.3,1.1c0.1,0.4,0.1,0.7,0.1,1c0,0.3-0.2,0.6-0.6,0.9s-0.9,0.6-1.5,0.8
	c-0.6,0.2-1.4,0.4-2.3,0.6c-0.9,0.2-1.8,0.2-2.7,0.2c-1.2,0-2.4-0.1-3.4-0.4c-1-0.3-1.9-0.8-2.7-1.7c-0.7-0.9-1.3-2.1-1.8-3.7
	c-0.4-1.6-0.6-3.7-0.6-6.3c0-3.3,0.3-6,0.9-7.9c0.6-2,1.3-3.5,2.2-4.5c0.9-1,1.9-1.7,3-2C189.2,15.7,190.3,15.5,191.4,15.5z
	 M191.1,18.1c-0.7,0-1.3,0.1-2,0.3c-0.7,0.2-1.3,0.7-1.9,1.4c-0.6,0.7-1,1.8-1.4,3.1c-0.4,1.4-0.6,3.2-0.7,5.5c0.5,0,1.2,0,2,0
	c0.8,0,1.7,0,2.6-0.1c0.9-0.1,1.9-0.1,2.8-0.2c0.9-0.1,1.7-0.2,2.5-0.4c0.1-0.6,0.1-1.2,0.2-1.8s0.1-1.1,0.1-1.7
	c0-2.1-0.3-3.6-0.9-4.6C193.7,18.6,192.7,18.1,191.1,18.1z"/>
<path id="XMLID_324_" class="st0" d="M200.7,16.8c0-0.2,0-0.3,0-0.4c0-0.1,0.1-0.2,0.3-0.2s0.5-0.1,0.9-0.1s1,0,1.7,0l2.1,9.4
	c0.3,1.7,0.7,3.3,0.9,4.8c0.3,1.5,0.5,2.9,0.8,4.1c0.2,1.4,0.5,2.8,0.7,4h0.2c0.1-0.5,0.2-1.2,0.4-2.1c0.2-0.9,0.3-1.8,0.5-2.9
	c0.2-1,0.4-2.1,0.6-3.2c0.2-1.1,0.4-2.1,0.6-3.1l1.8-9.5c0-0.3,0.1-0.5,0.2-0.6s0.4-0.2,0.8-0.2h1.9l2.2,10.3c0.3,1.3,0.6,2.7,0.9,4
	c0.3,1.3,0.5,2.5,0.8,3.6c0.2,1.2,0.5,2.4,0.7,3.6h0.2c0.1-0.7,0.2-1.5,0.3-2.5c0.1-1,0.3-2.1,0.5-3.2c0.2-1.2,0.4-2.4,0.6-3.6
	c0.2-1.2,0.5-2.4,0.7-3.6l1.8-8.7c0-0.2,0.1-0.3,0.1-0.4c0.1-0.1,0.2-0.2,0.4-0.2c0.2-0.1,0.5-0.1,0.8-0.1c0.4,0,0.9,0,1.6,0
	c-1.1,4.9-2,9.3-2.9,13.1c-0.4,1.7-0.7,3.3-1.1,4.9c-0.3,1.6-0.7,3-0.9,4.2c-0.3,1.2-0.6,2.6-1,4.1c-0.2,0-0.3,0.1-0.5,0.1
	c-0.2,0-0.4,0.1-0.6,0.1c-0.2,0-0.4,0-0.7,0c-0.2,0-0.5-0.3-0.8-0.8s-0.6-1.2-0.8-2.1l-0.8-3.6c-0.3-1.4-0.7-2.8-1-4.3
	c-0.3-1.4-0.6-2.8-0.9-4c-0.3-1.3-0.5-2.4-0.7-3.5c-0.2-1.1-0.4-1.9-0.5-2.7c-0.1,0.7-0.3,1.6-0.4,2.7c-0.2,1.1-0.4,2.3-0.6,3.5
	c-0.2,1.3-0.5,2.6-0.8,4c-0.3,1.4-0.6,2.8-1,4.3l-1.4,6.3c-0.3,0-0.6,0.1-0.8,0.1c-0.2,0-0.5,0.1-0.8,0.1s-0.5,0-0.6,0
	c-0.2,0-0.5-0.2-0.7-0.7c-0.2-0.5-0.4-1.1-0.6-1.8c-0.2-0.8-0.4-1.8-0.7-2.9s-0.5-2.3-0.8-3.5c-0.3-1.2-0.6-2.5-0.9-3.8
	s-0.6-2.6-0.9-3.8C202.2,23,201.5,19.9,200.7,16.8z"/>
<path id="XMLID_315_" class="st0" d="M229.4,17.9c0-0.5,0.1-0.8,0.4-1c0.5-0.3,1.5-0.6,3-0.9c1.5-0.3,3.2-0.4,5.1-0.4
	c2.1,0,3.6,0.5,4.7,1.4c1,0.9,1.6,2.6,1.6,4.9v3.1c0,3,0,5.8-0.1,8.6c-0.1,2.7-0.1,5.1-0.2,7.2c-0.6,0.4-1.5,0.8-2.6,1.2
	c-1.1,0.4-2.6,0.6-4.5,0.6c-0.9,0-1.9-0.1-2.8-0.2c-0.9-0.1-1.7-0.5-2.4-1s-1.3-1.3-1.7-2.3c-0.4-1-0.6-2.4-0.6-4.2
	c0-1.8,0.2-3.3,0.6-4.4c0.4-1.1,1-2,1.7-2.6c0.7-0.6,1.6-1,2.5-1.2c0.9-0.2,1.9-0.3,2.9-0.3c0.7,0,1.4,0,2.2,0.1
	c0.8,0.1,1.5,0.3,2.1,0.5v-4.6c0-0.8-0.1-1.5-0.3-2.1c-0.2-0.5-0.5-1-0.8-1.3s-0.8-0.5-1.3-0.6c-0.5-0.1-1.1-0.2-1.7-0.2
	c-1.7,0-3.1,0.1-4.5,0.4c-1.3,0.3-2.3,0.6-3,0.9C229.6,19,229.4,18.5,229.4,17.9z M241.4,29.1c-0.5-0.2-1-0.3-1.7-0.4
	c-0.6-0.1-1.2-0.1-1.7-0.1c-0.7,0-1.4,0.1-2.1,0.2c-0.7,0.1-1.3,0.4-1.8,0.8c-0.5,0.4-0.9,1-1.2,1.8c-0.3,0.8-0.5,1.9-0.5,3.3
	c0,1.2,0.1,2.2,0.4,2.9c0.3,0.7,0.6,1.2,1.1,1.6s1,0.6,1.6,0.7c0.6,0.1,1.2,0.1,1.9,0.1c0.8,0,1.6-0.1,2.3-0.4
	c0.7-0.2,1.2-0.5,1.5-0.8c0-0.6,0.1-1.2,0.1-2s0.1-1.6,0.1-2.5c0-0.9,0-1.8,0.1-2.7C241.4,30.8,241.4,29.9,241.4,29.1z"/>
<path id="XMLID_309_" class="st0" d="M249.5,17.4c1.2-0.5,2.6-1,4-1.3c1.5-0.3,2.9-0.5,4.4-0.5c1.4,0,2.5,0.1,3.5,0.4
	c0.9,0.3,1.7,0.7,2.2,1.3c0.6,0.6,0.9,1.3,1.1,2.2c0.2,0.9,0.3,2,0.3,3.2v18.7c0,0.2,0,0.3-0.1,0.4c0,0.1-0.1,0.2-0.3,0.2
	c-0.2,0.1-0.5,0.1-0.9,0.1s-0.9,0-1.7,0V23.4c0-0.9-0.1-1.7-0.2-2.4c-0.1-0.7-0.3-1.2-0.6-1.7c-0.3-0.4-0.7-0.8-1.3-1
	s-1.3-0.3-2.2-0.3c-0.8,0-1.7,0.1-2.7,0.3c-1,0.2-2,0.5-2.8,0.9v22.1c0,0.2,0,0.3-0.1,0.4c0,0.1-0.1,0.2-0.3,0.2
	c-0.2,0.1-0.5,0.1-0.9,0.1c-0.4,0-0.9,0-1.6,0V17.4z"/>
<path id="XMLID_301_" class="st0" d="M149.2,52.4c0-0.5,0.2-0.7,0.7-0.7h5.4c3.3,0,5.6,0.9,7,2.6c1.4,1.8,2.1,4.2,2.1,7.2
	c0,2-0.2,3.7-0.7,5.1s-1.1,2.6-1.9,3.5c-0.8,0.9-1.8,1.6-3,2c-1.1,0.4-2.4,0.6-3.7,0.6H152v14.7c0,0.2,0,0.3-0.1,0.4
	c0,0.1-0.1,0.2-0.3,0.2c-0.2,0.1-0.5,0.1-0.8,0.1c-0.4,0-0.9,0-1.6,0V52.4z M161.3,61.3c0-1-0.1-1.9-0.3-2.8
	c-0.2-0.9-0.5-1.6-0.9-2.2c-0.5-0.6-1-1.1-1.8-1.5c-0.7-0.4-1.6-0.5-2.8-0.5H152v15.7h3.3C159.3,69.9,161.3,67.1,161.3,61.3z"/>
<path id="XMLID_293_" class="st0" d="M166.8,63.9c0-0.5,0.1-0.8,0.4-1c0.5-0.3,1.5-0.6,3-0.9c1.5-0.3,3.2-0.4,5.1-0.4
	c2.1,0,3.6,0.5,4.7,1.4s1.6,2.6,1.6,4.9v3.1c0,3,0,5.8-0.1,8.6c-0.1,2.7-0.1,5.1-0.2,7.2c-0.6,0.4-1.5,0.8-2.6,1.2s-2.6,0.6-4.5,0.6
	c-0.9,0-1.9-0.1-2.8-0.2c-0.9-0.1-1.7-0.5-2.4-1c-0.7-0.5-1.3-1.3-1.7-2.3c-0.4-1-0.6-2.4-0.6-4.2c0-1.8,0.2-3.3,0.6-4.4
	c0.4-1.1,1-2,1.7-2.6c0.7-0.6,1.6-1,2.5-1.2s1.9-0.3,2.9-0.3c0.7,0,1.4,0,2.2,0.1c0.8,0.1,1.5,0.3,2,0.5v-4.6c0-0.8-0.1-1.5-0.3-2.1
	c-0.2-0.5-0.5-1-0.8-1.3s-0.8-0.5-1.3-0.6c-0.5-0.1-1.1-0.2-1.7-0.2c-1.7,0-3.1,0.1-4.5,0.4s-2.3,0.6-3,0.9
	C166.9,65,166.8,64.5,166.8,63.9z M178.8,75.1c-0.5-0.2-1-0.3-1.7-0.4c-0.6-0.1-1.2-0.1-1.7-0.1c-0.7,0-1.4,0.1-2.1,0.2
	c-0.7,0.1-1.3,0.4-1.8,0.8c-0.5,0.4-0.9,1-1.2,1.8c-0.3,0.8-0.5,1.9-0.5,3.3c0,1.2,0.1,2.2,0.4,2.9c0.3,0.7,0.6,1.2,1.1,1.6
	c0.4,0.4,1,0.6,1.6,0.7c0.6,0.1,1.2,0.1,1.9,0.1c0.8,0,1.6-0.1,2.3-0.4s1.2-0.5,1.5-0.8c0-0.6,0.1-1.2,0.1-2c0-0.8,0.1-1.6,0.1-2.5
	s0-1.8,0.1-2.7C178.8,76.8,178.8,75.9,178.8,75.1z"/>
<path id="XMLID_287_" class="st0" d="M199.7,63.6c0,0.2,0,0.5-0.1,0.8s-0.1,0.6-0.3,0.9c-0.4-0.3-1-0.5-1.7-0.8
	c-0.7-0.3-1.5-0.4-2.4-0.4c-0.7,0-1.4,0.1-2.2,0.3c-0.8,0.2-1.5,0.7-2.1,1.6c-0.6,0.8-1.1,2-1.5,3.5c-0.4,1.5-0.6,3.6-0.6,6.2
	c0,2.1,0.1,3.8,0.4,5.2c0.3,1.3,0.6,2.4,1.1,3.1c0.5,0.7,1.1,1.2,1.8,1.5c0.7,0.3,1.5,0.4,2.3,0.4c1.1,0,2-0.2,2.9-0.5
	c0.8-0.3,1.5-0.7,1.9-1.1c0.2,0.6,0.4,1.1,0.4,1.7c0,0.6-0.5,1.2-1.6,1.7c-1.1,0.5-2.5,0.8-4.3,0.8c-1.2,0-2.2-0.1-3.2-0.4
	c-1-0.3-1.8-0.9-2.4-1.8c-0.7-0.9-1.2-2.2-1.6-3.9c-0.4-1.7-0.6-3.9-0.6-6.7c0-3.1,0.3-5.6,0.9-7.4c0.6-1.9,1.3-3.3,2.2-4.3
	s1.9-1.6,3-1.9s2.2-0.4,3.2-0.4c1.2,0,2.2,0.2,3.1,0.6C199.3,62.5,199.7,63,199.7,63.6z"/>
<path id="XMLID_281_" class="st0" d="M204,51.3c0-0.7,0.2-1.1,0.6-1.2s1.1-0.2,2.3-0.2v13.9c1-0.8,2.1-1.4,3.2-1.7
	c1.2-0.3,2.3-0.5,3.3-0.5c1.2,0,2.2,0.2,3,0.5c0.8,0.3,1.4,0.8,1.8,1.4c0.4,0.6,0.8,1.3,0.9,2.2c0.2,0.9,0.2,1.8,0.2,2.9v18.8
	c0,0.2,0,0.3-0.1,0.4c-0.1,0.1-0.2,0.2-0.4,0.2s-0.5,0.1-0.9,0.1s-0.9,0-1.6,0V69.1c0-0.7-0.1-1.4-0.2-2c-0.1-0.6-0.3-1.1-0.6-1.5
	c-0.3-0.4-0.7-0.8-1.3-1c-0.5-0.2-1.2-0.4-2.1-0.4c-0.8,0-1.7,0.1-2.7,0.4c-1,0.3-1.9,0.8-2.8,1.6v21c0,0.2,0,0.3-0.1,0.4
	c0,0.1-0.1,0.2-0.3,0.2S206,88,205.6,88c-0.4,0-0.9,0-1.7,0V51.3z"/>
<path id="XMLID_273_" class="st0" d="M233,61.5c2.3,0,3.9,0.7,5,2.2c1,1.4,1.6,3.5,1.6,6c0,1.1,0,2.2-0.1,3.3
	c-0.1,1.1-0.2,2.1-0.4,2.9c-1.1,0.2-2.3,0.4-3.5,0.5c-1.2,0.1-2.4,0.2-3.5,0.3c-1.1,0.1-2.2,0.1-3.1,0.1s-1.7,0-2.3,0
	c0,1.9,0.1,3.4,0.4,4.6c0.3,1.2,0.7,2.1,1.2,2.7c0.5,0.6,1.2,1,1.9,1.2c0.7,0.2,1.6,0.3,2.5,0.3c1.2,0,2.3-0.1,3.4-0.4
	s2-0.7,2.8-1.3c0.1,0.3,0.2,0.7,0.3,1.1c0.1,0.4,0.1,0.7,0.1,1c0,0.3-0.2,0.6-0.6,0.9s-0.9,0.6-1.5,0.8c-0.6,0.2-1.4,0.4-2.3,0.6
	c-0.9,0.2-1.8,0.2-2.7,0.2c-1.2,0-2.4-0.1-3.4-0.4s-1.9-0.8-2.7-1.7s-1.3-2.1-1.8-3.7c-0.4-1.6-0.6-3.7-0.6-6.3c0-3.3,0.3-6,0.9-7.9
	c0.6-2,1.3-3.5,2.2-4.5c0.9-1,1.9-1.7,3-2C230.8,61.7,231.9,61.5,233,61.5z M232.7,64.1c-0.7,0-1.3,0.1-2,0.3
	c-0.7,0.2-1.3,0.7-1.9,1.4c-0.6,0.7-1,1.8-1.4,3.1s-0.6,3.2-0.7,5.5c0.5,0,1.2,0,2,0c0.8,0,1.7,0,2.6-0.1c0.9-0.1,1.9-0.1,2.8-0.2
	c0.9-0.1,1.7-0.2,2.5-0.4c0.1-0.6,0.1-1.2,0.2-1.8s0.1-1.1,0.1-1.7c0-2.1-0.3-3.6-0.9-4.6C235.3,64.6,234.3,64.1,232.7,64.1z"/>
<path id="XMLID_263_" class="st0" d="M257,63.6c0,0.2,0,0.5-0.1,0.8s-0.1,0.6-0.3,0.9c-0.4-0.3-1-0.5-1.7-0.8
	c-0.7-0.3-1.5-0.4-2.4-0.4c-0.7,0-1.4,0.1-2.2,0.3c-0.8,0.2-1.5,0.7-2.1,1.6c-0.6,0.8-1.1,2-1.5,3.5c-0.4,1.5-0.6,3.6-0.6,6.2
	c0,2.1,0.1,3.8,0.4,5.2c0.3,1.3,0.6,2.4,1.1,3.1c0.5,0.7,1.1,1.2,1.8,1.5c0.7,0.3,1.5,0.4,2.3,0.4c1.1,0,2-0.2,2.9-0.5
	c0.8-0.3,1.5-0.7,1.9-1.1c0.2,0.6,0.4,1.1,0.4,1.7c0,0.6-0.5,1.2-1.6,1.7c-1.1,0.5-2.5,0.8-4.3,0.8c-1.2,0-2.2-0.1-3.2-0.4
	c-1-0.3-1.8-0.9-2.4-1.8c-0.7-0.9-1.2-2.2-1.6-3.9c-0.4-1.7-0.6-3.9-0.6-6.7c0-3.1,0.3-5.6,0.9-7.4c0.6-1.9,1.3-3.3,2.2-4.3
	s1.9-1.6,3-1.9s2.2-0.4,3.2-0.4c1.2,0,2.2,0.2,3.1,0.6C256.5,62.5,257,63,257,63.6z"/>
<path id="XMLID_246_" class="st0" d="M259.5,75.1c0-4.8,0.8-8.3,2.3-10.4c1.5-2.1,3.7-3.2,6.4-3.2c1.3,0,2.5,0.2,3.5,0.6
	c1,0.4,1.8,1.1,2.5,2.2c0.7,1,1.2,2.4,1.5,4.1c0.3,1.7,0.5,3.9,0.5,6.6c0,4.7-0.7,8.1-2.2,10.3c-1.5,2.2-3.6,3.2-6.4,3.2
	c-1.2,0-2.4-0.1-3.4-0.4c-1-0.3-1.9-0.9-2.6-1.9c-0.7-1-1.2-2.3-1.6-4.1C259.7,80.4,259.5,78,259.5,75.1z M262.6,75.3
	c0,2.3,0.1,4.1,0.3,5.5c0.2,1.4,0.6,2.5,1,3.3c0.4,0.8,1,1.3,1.6,1.6c0.6,0.3,1.3,0.4,2.2,0.4c0.8,0,1.6-0.2,2.2-0.6
	c0.7-0.4,1.2-1,1.7-1.9c0.5-0.9,0.9-2,1.1-3.4c0.3-1.4,0.4-3.1,0.4-5.2c0-2.2-0.1-4.1-0.3-5.5c-0.2-1.4-0.6-2.5-1-3.3
	c-0.4-0.8-1-1.3-1.6-1.6s-1.3-0.4-2.2-0.4c-0.8,0-1.6,0.2-2.3,0.5c-0.7,0.3-1.3,1-1.7,1.8c-0.5,0.9-0.9,2-1.1,3.5
	C262.7,71.3,262.6,73.1,262.6,75.3z"/>
</svg>
