<?xml version="1.0" encoding="utf-8"?>
<!-- Generator: Adobe Illustrator 19.0.0, SVG Export Plug-In . SVG Version: 6.00 Build 0)  -->
<svg version="1.1" id="Camada_1" xmlns="http://www.w3.org/2000/svg" xmlns:xlink="http://www.w3.org/1999/xlink" x="0px" y="0px"
	 viewBox="0 0 1038 426" style="enable-background:new 0 0 1038 426;" xml:space="preserve">
<style type="text/css">
	.st0{fill:#B2B2B2;}
	.st1{fill:#AB3332;}
	.st2{fill:#C33D3E;}
	.st3{fill:#EDEEF0;}
	.st4{fill:#D8D9DD;}
	.st5{fill:none;}
	.st6{fill:#E6E6E6;}
</style>
<g id="XMLID_29_">
	<path id="XMLID_30_" class="st0" d="M498.4,233.6h-40.8l-9.4,34.9c-0.2,0.6-0.6,1-1,1.1c-0.5,0.2-1.2,0.3-2.1,0.3
		c-0.2,0-0.7,0-1.3,0c-0.6,0-1.4-0.1-2.2-0.2l34.4-122.3c0-0.5,0.5-0.7,1.6-0.7c1.2,0,1.9,0.2,2.3,0.5l34.5,120.6
		c0.3,1.4-0.3,2.1-2.1,2.1c-0.5,0-1,0-1.7,0s-1.3-0.1-1.9-0.2L498.4,233.6z M459,228.2h38l-10.6-38.4c-1-3.8-2.1-7.6-3.1-11.3
		c-1-3.7-1.9-7-2.6-10.1c-0.8-3.1-1.4-5.8-1.9-8.1c-0.5-2.3-0.8-4-1-5.1c-0.1,1-0.4,2.7-1,5.1c-0.5,2.3-1.2,5-1.9,8.1
		c-0.8,3.1-1.6,6.5-2.5,10.1c-0.9,3.7-1.9,7.4-3,11.3L459,228.2z"/>
	<path id="XMLID_33_" class="st0" d="M527.6,187.9c3.8-2.4,7.7-4.2,11.7-5.4c4-1.2,8.4-1.7,13.3-1.7c4.5,0,8.6,0.6,12.2,1.8
		c3.6,1.2,6.7,3.3,9.2,6.2c2.5,2.9,4.4,6.8,5.7,11.6c1.3,4.8,1.9,10.8,1.9,17.9c0,11.9-1.1,21.3-3.3,28.3c-2.2,7-4.9,12.3-8.1,16.1
		c-3.2,3.7-6.6,6.1-10.1,7.2c-3.5,1.1-6.7,1.7-9.3,1.7c-4.2,0-7.8-0.8-10.9-2.4c-3.1-1.6-5.2-3.3-6.4-4.9v39.4c-1,0.3-2,0.5-3,0.5
		c-1.9,0-2.8-0.8-2.8-2.3V187.9z M533.3,256.1c2,3.4,4.4,5.9,7.4,7.5c3,1.6,6,2.4,9,2.4c2.1,0,4.6-0.5,7.6-1.4c3-0.9,5.8-2.9,8.5-6
		c2.7-3.1,5-7.6,6.9-13.7c1.9-6,2.9-14.2,2.9-24.6c0-6.7-0.5-12.3-1.5-16.8c-1-4.4-2.5-7.9-4.4-10.5c-2-2.6-4.4-4.4-7.3-5.4
		c-2.9-1-6.3-1.6-10.1-1.6c-3.7,0-7.1,0.5-10.2,1.4c-3.1,0.9-6,2.2-8.6,3.8V256.1z"/>
	<path id="XMLID_37_" class="st0" d="M599.6,187.9c3.8-2.4,7.7-4.2,11.7-5.4c4-1.2,8.4-1.7,13.3-1.7c4.5,0,8.6,0.6,12.2,1.8
		c3.6,1.2,6.7,3.3,9.2,6.2c2.5,2.9,4.4,6.8,5.7,11.6c1.3,4.8,1.9,10.8,1.9,17.9c0,11.9-1.1,21.3-3.3,28.3c-2.2,7-4.9,12.3-8.1,16.1
		c-3.2,3.7-6.6,6.1-10.1,7.2c-3.5,1.1-6.7,1.7-9.3,1.7c-4.2,0-7.8-0.8-10.9-2.4c-3.1-1.6-5.2-3.3-6.4-4.9v39.4c-1,0.3-2,0.5-3,0.5
		c-1.9,0-2.8-0.8-2.8-2.3V187.9z M605.4,256.1c2,3.4,4.4,5.9,7.4,7.5c3,1.6,6,2.4,9,2.4c2.1,0,4.6-0.5,7.6-1.4c3-0.9,5.8-2.9,8.5-6
		c2.7-3.1,5-7.6,6.9-13.7c1.9-6,2.9-14.2,2.9-24.6c0-6.7-0.5-12.3-1.5-16.8c-1-4.4-2.5-7.9-4.4-10.5c-2-2.6-4.4-4.4-7.3-5.4
		c-2.9-1-6.3-1.6-10.1-1.6c-3.7,0-7.1,0.5-10.2,1.4c-3.1,0.9-6,2.2-8.6,3.8V256.1z"/>
	<path id="XMLID_40_" class="st0" d="M662.8,187.9c0-2.6,0.1-4.1,0.3-4.6c0.2-0.5,0.8-0.8,1.8-0.8h12.4V171c0-6.7,0.9-12.1,2.6-16.1
		c1.7-4,4-7.1,6.7-9.2c2.7-2.1,5.7-3.5,8.9-4.1c3.2-0.6,6.3-1,9.3-1c5.2,0,8.9,0.5,11.1,1.4c2.2,0.9,3.2,1.8,3.2,2.6
		c0,0.7-0.1,1.3-0.3,1.8s-0.4,1.1-0.6,1.7c-2.1-0.7-4.2-1.2-6.2-1.5c-2-0.3-4.4-0.4-7.1-0.4c-2.4,0-5,0.2-7.6,0.6
		c-2.6,0.4-5,1.5-7.2,3.1c-2.2,1.7-3.9,4.2-5.2,7.6c-1.3,3.4-2,8-2,13.8v11.2h20.4c0,2.6-0.1,4.1-0.3,4.6c-0.2,0.5-0.7,0.8-1.7,0.8
		H683v79.9c0,1.3-0.6,1.9-1.9,1.9h-3.8v-81.8H662.8z"/>
	<path id="XMLID_42_" class="st0" d="M709.7,184.6c-0.3-1-0.3-1.7,0.2-1.8c0.5-0.2,2.2-0.3,5.1-0.3l16.2,59.3c0.8,3,1.5,6,2.1,8.8
		c0.6,2.9,1.2,5.4,1.7,7.8c0.5,2.7,1,5.2,1.6,7.7c0.5-2.4,0.9-5,1.4-7.7c0.5-2.3,1-4.9,1.6-7.9c0.6-2.9,1.3-5.9,2.1-8.9l14.8-57.1
		c0.2-1,0.6-1.7,1.1-1.8c0.5-0.2,2.3-0.3,5.3-0.3l-24.4,93.2c-2.8,10.4-6.1,17.6-10,21.6c-3.9,4.1-8.4,6.1-13.5,6.1
		c-3.4,0-6.1-0.3-8.3-1c-2.2-0.6-3.2-1.6-3.2-2.9c0-0.6,0.1-1.3,0.4-2c0.3-0.8,0.7-1.3,1.1-1.7c1.4,0.7,3.1,1.2,5.1,1.6
		c2,0.3,3.6,0.5,4.9,0.5c3.7,0,7.2-1.9,10.4-5.6c3.2-3.7,6-10.4,8.3-19.9L709.7,184.6z"/>
	<path id="XMLID_44_" class="st0" d="M802.2,150.4c-0.1-0.6-0.2-1.2-0.2-1.8c0-0.6,0.4-1,1.2-1h4.4l18.8,84.3
		c0.7,3.3,1.3,6.1,1.8,8.6c0.5,2.5,1,4.9,1.4,7.1c0.4,2.2,0.8,4.4,1.1,6.6c0.3,2.2,0.8,4.6,1.2,7.2h0.3c0.6-5.5,1.3-10.4,2.1-14.9
		c0.8-4.5,1.7-9.3,2.8-14.6l15.7-74.7c0.2-0.8,0.4-1.5,0.6-1.9c0.2-0.5,0.6-0.8,1.3-0.9h4.4l17.6,77.5c0.7,3.3,1.3,6.1,1.8,8.5
		s1,4.8,1.3,7c0.3,2.2,0.7,4.4,1,6.5c0.3,2.2,0.8,4.5,1.2,7.1h0.5c0.6-4.1,1.2-8.6,1.9-13.5c0.7-4.9,1.6-10.1,2.8-15.6l17.1-81.5
		c0.2-0.9,0.4-1.6,0.6-2.1c0.2-0.5,0.7-0.7,1.5-0.7h4.4l-26.2,123.5c-0.3,0.1-0.8,0.2-1.3,0.3c-0.5,0.1-1.3,0.2-2.4,0.2
		c-0.6,0-1.1-0.8-1.7-2.4s-1.1-3.5-1.7-5.8l-16.8-71l-4.9-27.4c-0.3,1.7-0.8,4-1.2,6.9c-0.5,2.9-1,5.7-1.5,8.5
		c-0.5,2.9-1,5.4-1.4,7.6c-0.4,2.2-0.6,3.5-0.6,4l-16.9,79c-0.3,0.1-0.8,0.2-1.5,0.3c-0.6,0.1-1.5,0.1-2.5,0.1
		c-0.6,0-1.2-0.9-1.7-2.8c-0.6-1.9-1.2-4.5-1.9-7.9c-0.8-3.7-1.8-8.2-3-13.3c-1.2-5.2-2.4-10.7-3.7-16.6c-1.3-5.9-2.6-12-4-18.2
		c-1.4-6.3-2.8-12.4-4.2-18.3C809,180.3,805.7,165.6,802.2,150.4z"/>
	<path id="XMLID_46_" class="st0" d="M922.4,151.4c0.1-3.8,1.5-5.8,4-5.8c2.6,0,3.8,2,3.8,5.9c-0.2,3.7-1.6,5.6-4.2,5.6
		C923.4,157.1,922.2,155.1,922.4,151.4z M929.4,267.8c0,0.9-0.3,1.5-0.9,1.7c-0.6,0.2-2.3,0.3-5.2,0.3v-84.1c0-1.6,0.5-2.6,1.4-2.8
		c0.9-0.2,2.5-0.3,4.7-0.3V267.8z"/>
	<path id="XMLID_49_" class="st0" d="M952.4,144.6c0-1.6,0.4-2.6,1.1-2.8c0.8-0.2,2.3-0.3,4.6-0.3v52.2c1.9-2.1,4-4,6.4-5.6
		c2.4-1.6,4.8-3,7.2-4.1c2.4-1.1,4.8-1.9,7.2-2.4c2.3-0.5,4.4-0.8,6.3-0.8c5.6,0,9.6,1.3,12,3.9c2.4,2.6,3.6,6.5,3.6,11.6
		c0,4.2-0.9,7.9-2.7,11.1c-1.8,3.2-3.9,6-6.2,8.3c-2.3,2.3-4.7,4.2-7.2,5.6c-2.4,1.4-4.2,2.4-5.4,3c1.7-0.2,3.9,0,6.4,0.7
		c2.5,0.7,5,2,7.4,3.8c2.4,1.9,4.7,4.4,6.6,7.5c2,3.1,3.4,7.1,4.4,11.9c0.2,1.4,0.4,2.9,0.5,4.4c0.1,1.5,0.2,3.1,0.2,4.9
		c0,1.6-0.1,3.3-0.2,4.9c-0.1,1.6-0.3,3.4-0.5,5.2c-0.1,0.6-0.2,1-0.3,1.3c-0.1,0.3-0.3,0.5-0.7,0.7c-0.4,0.2-1,0.3-1.8,0.3
		c-0.8,0-2,0-3.5,0c0.2-2.2,0.4-4.3,0.6-6.2c0.2-1.9,0.3-3.8,0.3-5.5c0-3.3-0.2-6.2-0.7-8.8c-0.5-2.6-1-4.9-1.7-6.9
		c-1-2.8-2.4-5.1-4-7c-1.6-1.9-3.3-3.3-5.1-4.4c-1.8-1-3.6-1.8-5.5-2.2c-1.9-0.4-3.7-0.6-5.4-0.6c-1,0-2,0.1-3,0.2
		c-0.9,0.1-1.8,0.3-2.6,0.5c-0.9,0.2-2.1,0.6-3.5,1c-1.4,0.5-2.7,1-4,1.6c-1.5,0.6-3.1,1.2-4.9,1.9v34.4c0,0.9-0.2,1.5-0.6,1.7
		c-0.4,0.2-2.1,0.3-5.1,0.3V144.6z M994.8,196.9c0-7.1-3.7-10.6-11-10.6c-3.8,0-8,1-12.5,3.1c-4.5,2-8.9,5.6-13.2,10.6V228
		c5-1.5,9.7-3.3,14.1-5.3c4.4-2,8.3-4.3,11.6-6.9c3.3-2.6,6-5.4,7.9-8.5C993.8,204.1,994.8,200.7,994.8,196.9z"/>
	<path id="XMLID_54_" class="st0" d="M1021.3,151.4c0.1-3.8,1.5-5.8,4-5.8c2.6,0,3.8,2,3.8,5.9c-0.2,3.7-1.6,5.6-4.2,5.6
		C1022.3,157.1,1021.1,155.1,1021.3,151.4z M1028.3,267.8c0,0.9-0.3,1.5-0.9,1.7c-0.6,0.2-2.3,0.3-5.2,0.3v-84.1
		c0-1.6,0.5-2.6,1.4-2.8c0.9-0.2,2.5-0.3,4.7-0.3V267.8z"/>
</g>
<g id="XMLID_10_">
	<polygon id="XMLID_12_" class="st0" points="200.4,11.2 200,11.3 10.3,78.1 40.3,327.1 199.9,414.8 200,414.8 361.7,325.9 
		391.7,76.9 	"/>
	<g id="XMLID_7_">
		<polygon id="XMLID_9_" class="st1" points="200,32.4 200,394.1 344.8,314 372.7,91.3 		"/>
		<polygon id="XMLID_11_" class="st1" points="57.4,315.1 199.9,394.1 200,32.4 31.6,92.3 		"/>
	</g>
	<g id="XMLID_3_">
		<polygon id="XMLID_6_" class="st2" points="200,32.4 200,394.1 344.8,314 372.7,91.3 		"/>
		<polygon id="XMLID_8_" class="st2" points="57.4,315.1 199.9,394.1 200,32.4 31.6,92.3 		"/>
	</g>
	<polygon id="XMLID_65_" class="st1" points="372.7,91.3 200,32.4 200,394.1 344.8,314 	"/>
	<g id="XMLID_2_">
		<path id="XMLID_51_" class="st3" d="M136.8,175.2c0,0,21.9,10,30.1,9.6c6.4,3.2,2.8,27.1-12.1,32.2
			C139.8,222.2,123.9,197.7,136.8,175.2z"/>
		<path id="XMLID_50_" class="st4" d="M261.7,175.2c0,0-21.9,10-30.1,9.6c-6.4,3.2-2.8,27.1,12.1,32.2S274.6,197.7,261.7,175.2z"/>
		<g id="XMLID_4_">
			<path id="XMLID_5_" class="st5" d="M269.3,168.3c0,0-2-2.4-23.1-4c-21.4,0.3-40.4,0.1-46.2,0c-1.2,0-1.8,0-1.8,0
				s-22.2,0.4-47.9,0c-21.1,1.6-23.1,4-23.1,4c-30.3,21.6-4.1,50.1-4.1,50.1c29,2,42.7-6.5,54.3-9.3c11.6-2.8,20.9-2.8,20.9-2.8
				s0.6,0,1.8,0c3.2,0.1,10.6,0.7,19.1,2.7c11.6,2.8,25.3,11.3,54.3,9.3C273.4,218.5,299.6,189.9,269.3,168.3z"/>
			<path id="XMLID_18_" class="st6" d="M297.4,114.6c3.2-16.4,1.5-32.5-3.5-42.1c-20,1.1-31.6,6.9-46.1,18c-20.7-5-34.6-5-47.8-5.5
				c-13.2,0.5-27.1,0.5-47.8,5.5c-14.5-11.1-26.1-16.9-46.1-18c-5,9.6-6.7,25.6-3.5,42.1c-9.4,13.8-27.3,40.1-19,53.1
				c-1.5,11.6,0.5,27.8,7.5,44.6c5.1,28,47.9,44.4,73.2,43.9c-9.6,4.9-6.5,7.2-5.5,7.8c-4.1,10.2-8.8,16.7-6,36
				c0,7.8-0.1,27.8,0.2,28.2c0.3,0.5,1.1,0.5,1.4,1.2c0.2,0.7,0.2,4.5,0,5.4c-0.2,1-1.6,8.4-11.5,13.8c-6,4.1-1,6.5,0.7,6.8
				c5.5,0,9.5,0.3,19.2-3.7c9.7-4.8,3.6-18.8,9.7-23.8c0.4-0.3,0.2,0,0.5-0.5s-1.5-39.6,2.9-44.1c1.9,0.2-2.4,13.2-0.5,35.7
				c0.3,2.7,2.3,7.8,2.8,10.5c1.4,6.6,2.7,16.5-6.6,26c-6.1,6.2-3.9,7.7-2.5,8.8c3.2,2.3,22-0.9,24.1-6.7c1.3-3.7-1.3-2.5-1.7-3.4
				c6.8-7,6.2-16.3,5.9-24.2c-0.2-0.3-1.1-0.2-1.1-0.6c1.6-2.8,2.8-2.5,2.4-8.9c-0.1-8.1,0.9-13.5-0.1-17.9c-0.1-0.5-0.6-1.3,1-1.8
				h0.7h0.7c1.6,0.5,1.1,1.3,1,1.8c-1,4.4,0,9.8-0.1,17.9c-0.4,6.4,0.8,6.1,2.4,8.9c0,0.3-0.9,0.3-1.1,0.6
				c-0.3,7.9-0.9,17.2,5.9,24.2c-0.4,0.9-3-0.3-1.7,3.4c2,5.8,20.9,9.1,24.1,6.7c1.4-1,3.5-2.6-2.5-8.8c-9.3-9.5-8-19.5-6.6-26
				c0.6-2.7,2.5-7.8,2.8-10.5c2-22.5-2.4-35.5-0.5-35.7c4.4,4.5,2.7,43.6,2.9,44.1c0.3,0.5,0.1,0.2,0.5,0.5c6,5,0,19,9.7,23.8
				c9.7,4,13.7,3.7,19.2,3.7c1.7-0.3,6.7-2.7,0.7-6.8c-10-5.3-11.3-12.8-11.5-13.8c-0.2-1-0.2-4.8,0-5.4c0.2-0.7,1.1-0.7,1.4-1.2
				c0.3-0.5,0.2-20.5,0.2-28.2c2.7-19.4-1.9-25.9-6-36c1-0.7,4.1-2.9-5.5-7.8c25.3,0.4,68.1-15.9,73.2-43.9c7-16.7,9-33,7.5-44.6
				C324.7,154.7,306.8,128.3,297.4,114.6z M273.4,218.5c-29,2-42.7-6.5-54.3-9.3c-8.5-2.1-15.9-2.6-19.1-2.7c-1.1,0-1.8,0-1.8,0
				s-9.4,0-20.9,2.8c-11.6,2.8-25.3,11.3-54.3,9.3c0,0-26.2-28.5,4.1-50.1c0,0,2-2.4,23.1-4c25.7,0.4,47.9,0,47.9,0s0.6,0,1.8,0
				c5.7,0.1,24.7,0.3,46.2,0c21.1,1.6,23.1,4,23.1,4C299.6,189.9,273.4,218.5,273.4,218.5z"/>
		</g>
		<g id="XMLID_35_">
			<path id="XMLID_58_" class="st3" d="M198.2,206.4c0,0-9.4,0-20.9,2.8c-11.6,2.8-25.3,11.3-54.3,9.3c0,0-26.2-28.5,4.1-50.1
				c0,0,2-2.4,23.1-4c25.7,0.4,47.9,0,47.9,0s0.6,0,1.8,0V85c-13.2,0.5-27.1,0.5-47.8,5.5c-14.5-11.1-26.1-16.9-46.1-18
				c-5,9.6-6.7,25.6-3.5,42.1c-9.4,13.8-27.3,40.1-19,53.1c-1.5,11.6,0.5,27.8,7.5,44.6c5.1,28,47.9,44.4,73.2,43.9
				c-9.6,4.9-6.5,7.2-5.5,7.8c-4.1,10.2-8.8,16.7-6,36c0,7.8-0.1,27.8,0.2,28.2c0.3,0.5,1.1,0.5,1.4,1.2c0.2,0.7,0.2,4.5,0,5.4
				c-0.2,1-1.6,8.4-11.5,13.8c-6,4.1-1,6.5,0.7,6.8c5.5,0,9.5,0.3,19.2-3.7c9.7-4.8,3.6-18.8,9.7-23.8c0.4-0.3,0.2,0,0.5-0.5
				s-1.5-39.6,2.9-44.1c1.9,0.2-2.4,13.2-0.5,35.7c0.3,2.7,2.3,7.8,2.8,10.5c1.4,6.6,2.7,16.5-6.6,26c-6.1,6.2-3.9,7.7-2.5,8.8
				c3.2,2.3,22-0.9,24.1-6.7c1.3-3.7-1.3-2.5-1.7-3.4c6.8-7,6.2-16.3,5.9-24.2c-0.2-0.3-1.1-0.2-1.1-0.6c1.6-2.8,2.8-2.5,2.4-8.9
				c-0.1-8.1,0.9-13.5-0.1-17.9c-0.1-0.5-0.6-1.3,1-1.8h0.7v-94.3C198.9,206.4,198.2,206.4,198.2,206.4z"/>
			<path id="XMLID_66_" class="st4" d="M297.4,114.6c3.2-16.4,1.5-32.5-3.5-42.1c-20,1.1-31.6,6.9-46.1,18c-20.7-5-34.6-5-47.8-5.5
				v79.4c5.7,0.1,24.7,0.3,46.2,0c21.1,1.6,23.1,4,23.1,4c30.3,21.6,4.1,50.1,4.1,50.1c-29,2-42.7-6.5-54.3-9.3
				c-8.5-2.1-15.9-2.6-19.1-2.7v94.3h0.7c1.6,0.5,1.1,1.3,1,1.8c-1,4.4,0,9.8-0.1,17.9c-0.4,6.4,0.8,6.1,2.4,8.9
				c0,0.3-0.9,0.3-1.1,0.6c-0.3,7.9-0.9,17.2,5.9,24.2c-0.4,0.9-3-0.3-1.7,3.4c2,5.8,20.9,9.1,24.1,6.7c1.4-1,3.5-2.6-2.5-8.8
				c-9.3-9.5-8-19.5-6.6-26c0.6-2.7,2.5-7.8,2.8-10.5c2-22.5-2.4-35.5-0.5-35.7c4.4,4.5,2.7,43.6,2.9,44.1c0.3,0.5,0.1,0.2,0.5,0.5
				c6,5,0,19,9.7,23.8c9.7,4,13.7,3.7,19.2,3.7c1.7-0.3,6.7-2.7,0.7-6.8c-10-5.3-11.3-12.8-11.5-13.8c-0.2-1-0.2-4.8,0-5.4
				c0.2-0.7,1.1-0.7,1.4-1.2c0.3-0.5,0.2-20.5,0.2-28.2c2.7-19.4-1.9-25.9-6-36c1-0.7,4.1-2.9-5.5-7.8c25.3,0.4,68.1-15.9,73.2-43.9
				c7-16.7,9-33,7.5-44.6C324.7,154.7,306.8,128.3,297.4,114.6z"/>
		</g>
	</g>
</g>
</svg>
