<?xml version="1.0" encoding="utf-8"?>
<!-- Generator: Adobe Illustrator 19.0.0, SVG Export Plug-In . SVG Version: 6.00 Build 0)  -->
<svg version="1.1" id="Camada_1" xmlns="http://www.w3.org/2000/svg" xmlns:xlink="http://www.w3.org/1999/xlink" x="0px" y="0px"
	 viewBox="0 0 211 229" style="enable-background:new 0 0 211 229;" xml:space="preserve">
<style type="text/css">
	.st0{fill:#B2B2B2;}
	.st1{fill:#AB3332;}
	.st2{fill:#C33D3E;}
	.st3{fill:#F2F2F2;}
	.st4{fill:#DCDDE1;}
	.st5{fill:#444242;}
	.st6{fill:#3B3939;}
</style>
<g id="XMLID_1_">
	<path id="XMLID_15_" class="st0" d="M95.7,14L13,43.1l13.1,108.3l69.7,38.3l70.1-38.8l13.1-108.3L95.7,14z M95.7,14"/>
	<path id="XMLID_12_" class="st1" d="M170.7,48.8L95.5,23.2v157.4l63-34.9L170.7,48.8z M170.7,48.8"/>
	<path id="XMLID_9_" class="st2" d="M22.3,49.3l11.2,96.9l62,34.4V23.2L22.3,49.3z M22.3,49.3"/>
	<path id="XMLID_5_" class="st3" d="M112.9,101.5L95.6,65.4l-15.2,36.1H112.9z M119.5,116.7H73.7l-10.3,25.6l-19.1,0.4L95.5,28.9
		l52.9,113.7h-17.7L119.5,116.7z M119.5,116.7"/>
	<path id="XMLID_2_" class="st0" d="M95.5,28.9l0.1,36.5l17.3,36.1H95.5l0,15.1l24,0l11.2,26L149,143L95.5,28.9z M95.5,28.9"/>
</g>
<g id="XMLID_18_">
	<ellipse id="XMLID_24_" class="st4" cx="150.1" cy="147.9" rx="39.7" ry="16.3"/>
	<path id="XMLID_51_" class="st5" d="M124.4,140.2c0,0,8.9,4.1,12.2,3.9c2.6,1.3,1.2,11-4.9,13.1
		C125.7,159.2,119.2,149.3,124.4,140.2z"/>
	<path id="XMLID_50_" class="st6" d="M175.1,140.2c0,0-8.9,4.1-12.2,3.9c-2.6,1.3-1.2,11,4.9,13.1
		C173.9,159.2,180.3,149.3,175.1,140.2z"/>
	<path id="XMLID_58_" class="st5" d="M149.4,152.8c0,0-3.8,0-8.5,1.1c-4.7,1.1-10.3,4.6-22,3.8c0,0-10.6-11.6,1.7-20.3
		c0,0,0.8-1,9.4-1.6c10.4,0.2,19.4,0,19.4,0s0.3,0,0.7,0v-32.2c-5.4,0.2-11,0.2-19.4,2.2c-5.9-4.5-10.6-6.8-18.7-7.3
		c-2,3.9-2.7,10.4-1.4,17.1c-3.8,5.6-11.1,16.3-7.7,21.5c-0.6,4.7,0.2,11.3,3,18.1c2.1,11.4,19.4,18,29.7,17.8
		c-3.9,2-2.6,2.9-2.2,3.2c-1.7,4.1-3.6,6.8-2.5,14.6c0,3.1,0,11.3,0.1,11.4c0.1,0.2,0.5,0.2,0.6,0.5c0.1,0.3,0.1,1.8,0,2.2
		c-0.1,0.4-0.6,3.4-4.7,5.6c-2.5,1.7-0.4,2.6,0.3,2.8c2.2,0,3.9,0.1,7.8-1.5c3.9-1.9,1.5-7.6,3.9-9.6c0.2-0.1,0.1,0,0.2-0.2
		c0.1-0.2-0.6-16.1,1.2-17.9c0.8,0.1-1,5.3-0.2,14.5c0.1,1.1,0.9,3.2,1.2,4.2c0.6,2.7,1.1,6.7-2.7,10.6c-2.5,2.5-1.6,3.1-1,3.6
		c1.3,0.9,8.9-0.4,9.8-2.7c0.5-1.5-0.5-1-0.7-1.4c2.7-2.8,2.5-6.6,2.4-9.8c-0.1-0.1-0.5-0.1-0.5-0.2c0.6-1.1,1.1-1,1-3.6
		c-0.1-3.3,0.4-5.5-0.1-7.3c0-0.2-0.3-0.5,0.4-0.7h0.3v-38.3C149.6,152.8,149.4,152.8,149.4,152.8z"/>
	<path id="XMLID_66_" class="st6" d="M188.6,115.6c1.3-6.7,0.6-13.2-1.4-17.1c-8.1,0.5-12.8,2.8-18.7,7.3c-8.4-2-14-2-19.4-2.2v32.2
		c2.3,0,10,0.1,18.7,0c8.6,0.6,9.4,1.6,9.4,1.6c12.3,8.8,1.7,20.3,1.7,20.3c-11.8,0.8-17.3-2.7-22-3.8c-3.5-0.8-6.4-1-7.8-1.1v38.3
		h0.3c0.7,0.2,0.4,0.5,0.4,0.7c-0.4,1.8,0,4-0.1,7.3c-0.2,2.6,0.3,2.5,1,3.6c0,0.1-0.4,0.1-0.5,0.2c-0.1,3.2-0.4,7,2.4,9.8
		c-0.1,0.4-1.2-0.1-0.7,1.4c0.8,2.4,8.5,3.7,9.8,2.7c0.6-0.4,1.4-1-1-3.6c-3.8-3.9-3.2-7.9-2.7-10.6c0.2-1.1,1-3.2,1.2-4.2
		c0.8-9.1-1-14.4-0.2-14.5c1.8,1.8,1.1,17.7,1.2,17.9c0.1,0.2,0,0.1,0.2,0.2c2.4,2,0,7.7,3.9,9.6c3.9,1.6,5.6,1.5,7.8,1.5
		c0.7-0.1,2.7-1.1,0.3-2.8c-4-2.2-4.6-5.2-4.7-5.6c-0.1-0.4-0.1-1.9,0-2.2c0.1-0.3,0.4-0.3,0.6-0.5c0.1-0.2,0.1-8.3,0.1-11.4
		c1.1-7.9-0.8-10.5-2.5-14.6c0.4-0.3,1.7-1.2-2.2-3.2c10.3,0.2,27.6-6.4,29.7-17.8c2.8-6.8,3.7-13.4,3-18.1
		C199.7,131.8,192.4,121.1,188.6,115.6z"/>
</g>
</svg>
