<?xml version="1.0" encoding="utf-8"?>
<!-- Generator: Adobe Illustrator 19.0.0, SVG Export Plug-In . SVG Version: 6.00 Build 0)  -->
<svg version="1.1" id="Camada_1" xmlns="http://www.w3.org/2000/svg" xmlns:xlink="http://www.w3.org/1999/xlink" x="0px" y="0px"
	 viewBox="0 0 204.7 44.2" style="enable-background:new 0 0 204.7 44.2;" xml:space="preserve">
<style type="text/css">
	.st0{fill:#4D4D4D;}
	.st1{fill:#FE7812;}
</style>
<g id="XMLID_86_">
	<path id="XMLID_87_" class="st0" d="M20,24.5h-11v14.1c0,1.2-0.3,2.1-0.8,2.6C7.6,41.8,6.8,42,5.7,42c-1.6,0-2.4-0.9-2.4-2.6v-32
		c0-1.7,0.8-2.6,2.4-2.6h17.8c1.1,0,1.9,0.1,2.4,0.4c0.5,0.3,0.8,0.8,0.8,1.6v4c0,0.9-0.2,1.6-0.6,2c-0.4,0.4-0.9,0.6-1.7,0.6
		c-1,0-1.8-0.3-2.3-0.8c-0.5-0.5-0.8-1.4-0.8-2.6V7.6H8.9v14h11c0.5,0,0.8,0.1,1.1,0.4c0.2,0.3,0.4,0.6,0.4,1.1c0,0.2,0,0.3-0.1,0.5
		c-0.1,0.2-0.2,0.3-0.3,0.4c-0.1,0.1-0.3,0.2-0.5,0.3C20.3,24.5,20.1,24.5,20,24.5z"/>
</g>
<path id="XMLID_72_" class="st0" d="M71.5,18c0,1.4-0.7,2-2,2h-1.7c-1.4,0-2.5,0.2-3.5,0.6c-1,0.4-1.8,0.9-2.4,1.5
	c-0.6,0.6-1.1,1.3-1.4,2.1c-0.3,0.8-0.4,1.6-0.4,2.4v11.8c0,0.8-0.1,1.4-0.2,1.8c-0.1,0.5-0.3,0.9-0.6,1.1c-0.3,0.3-0.6,0.5-1,0.6
	C57.7,42,57.2,42,56.6,42c-0.8,0-1.4-0.2-1.7-0.6c-0.3-0.4-0.4-1-0.4-1.9V18c0-0.8,0.2-1.4,0.5-1.8c0.3-0.3,0.9-0.5,1.7-0.5
	c1,0,1.7,0.4,2.3,1.1c0.5,0.8,0.8,1.9,0.8,3.4v1.3H60c0.3-0.5,0.7-1.1,1.2-1.8c0.5-0.7,1.1-1.3,1.7-1.9c0.7-0.6,1.5-1.1,2.4-1.5
	c0.9-0.4,2-0.6,3.1-0.6H69c0.9,0,1.5,0.2,1.9,0.6C71.3,16.6,71.5,17.2,71.5,18z"/>
<path id="XMLID_74_" class="st0" d="M93.9,35.4c0.2-0.2,0.3-0.3,0.6-0.4s0.5-0.2,0.7-0.2c0.3,0,0.6,0.1,0.8,0.3s0.4,0.5,0.4,0.8
	c0,0.6-0.2,1.2-0.7,1.8C93.4,40.6,90.1,42,86,42c-2,0-3.9-0.3-5.4-0.9s-2.8-1.4-3.9-2.5c-1-1.1-1.8-2.4-2.3-3.9s-0.8-3.3-0.8-5.2
	c0-4.5,1-8,3.1-10.3s5.1-3.5,9.2-3.5c1.6,0,3,0.2,4.3,0.7c1.3,0.5,2.4,1.1,3.3,2s1.6,2,2.1,3.3s0.8,2.8,0.8,4.5c0,1.7-1,2.6-3,2.6
	H79.4c0,0.1,0,0.3,0,0.5s0,0.4,0,0.7c0,1.5,0.1,2.9,0.4,4.1s0.7,2.2,1.3,3.1c0.6,0.8,1.4,1.5,2.3,1.9c0.9,0.5,2,0.7,3.2,0.7
	c1,0,1.9-0.1,2.6-0.4s1.4-0.6,1.9-1c0.5-0.4,1-0.8,1.3-1.2c0.4-0.4,0.7-0.8,0.9-1.1L93.9,35.4z M85.6,17.8c-1.7,0-3.1,0.7-4.1,2.1
	c-1.1,1.4-1.7,3.7-1.9,6.7h9.8c0.6,0,1.1-0.1,1.3-0.3c0.3-0.2,0.4-0.6,0.4-1.2c0-1.2-0.1-2.2-0.4-3.1c-0.3-0.9-0.7-1.7-1.2-2.3
	c-0.5-0.6-1.1-1.1-1.8-1.4C87,18,86.3,17.8,85.6,17.8z"/>
<path id="XMLID_77_" class="st0" d="M109.8,12v3.7h5.8c0.6,0,1.1,0.1,1.4,0.3c0.3,0.2,0.4,0.5,0.4,0.8c0,0.4-0.2,0.7-0.5,0.9
	c-0.3,0.3-0.8,0.4-1.3,0.4h-5.8V35c0,0.8,0.1,1.5,0.3,2.1s0.4,1.1,0.7,1.5c0.3,0.4,0.6,0.7,1,0.9c0.4,0.2,0.8,0.3,1.2,0.3
	c0.7,0,1.3-0.1,1.7-0.4c0.5-0.2,0.9-0.6,1.2-0.9c0.3-0.4,0.6-0.8,0.8-1.2c0.2-0.4,0.5-0.8,0.7-1.2s0.5-0.7,0.7-0.9
	c0.3-0.2,0.6-0.4,1-0.4c0.4,0,0.7,0.1,1,0.3c0.2,0.2,0.4,0.5,0.4,0.9c0,0.3-0.1,0.6-0.3,1c-0.2,0.4-0.4,0.7-0.5,0.9
	c-0.9,1.3-2,2.3-3.2,3c-1.3,0.7-2.6,1-4.1,1c-1.6,0-2.8-0.2-3.9-0.6s-1.8-1-2.5-1.7c-0.6-0.7-1-1.6-1.3-2.6c-0.2-1-0.4-2.2-0.4-3.4
	V18.2h-2.9c-0.6,0-1.1-0.1-1.3-0.3c-0.3-0.2-0.4-0.5-0.4-0.8c0-0.4,0.2-0.6,0.6-0.9c0.4-0.2,0.9-0.5,1.6-0.8
	c0.6-0.3,1.3-0.8,2.1-1.4c0.8-0.6,1.5-1.5,2.1-2.6c0.2-0.4,0.4-0.8,0.6-1c0.2-0.3,0.3-0.5,0.5-0.7s0.3-0.3,0.5-0.4
	c0.2-0.1,0.4-0.1,0.6-0.1c0.6,0,1,0.2,1.2,0.6C109.7,10.1,109.8,10.9,109.8,12z"/>
<path id="XMLID_79_" class="st0" d="M140.5,37.1l-0.2-0.1c-1.1,1.7-2.5,3-3.9,3.8c-1.5,0.8-3.3,1.2-5.3,1.2c-1.3,0-2.4-0.2-3.4-0.5
	c-1-0.3-1.8-0.8-2.5-1.4c-0.7-0.6-1.2-1.4-1.5-2.2c-0.3-0.9-0.5-1.8-0.5-2.9c0-1.1,0.2-2.2,0.6-3.3c0.4-1.1,1.1-2.1,2.1-3
	c1-0.9,2.3-1.6,4-2.1c1.7-0.5,3.9-0.8,6.5-0.8h3.8v-1.5c0-1.2-0.1-2.2-0.3-3c-0.2-0.8-0.5-1.5-0.9-2c-0.4-0.5-1-0.9-1.6-1.1
	c-0.7-0.2-1.5-0.3-2.4-0.3c-1.7,0-3.3,0.7-4.6,2.2c-1.1,1.2-2.2,1.8-3.2,1.8c-0.6,0-1.1-0.2-1.4-0.5c-0.3-0.3-0.5-0.8-0.5-1.3
	c0-0.7,0.3-1.3,0.9-1.8c0.6-0.5,1.5-1,2.5-1.4c1-0.4,2.2-0.7,3.4-0.9c1.3-0.2,2.6-0.3,3.9-0.3c1.9,0,3.5,0.2,4.7,0.6
	c1.2,0.4,2.2,1,3,1.8c0.7,0.8,1.3,1.8,1.6,3c0.3,1.2,0.4,2.6,0.4,4.2v14.4c0,0.8-0.1,1.5-0.4,1.9c-0.3,0.4-0.8,0.6-1.6,0.6
	c-1.1,0-2-0.4-2.5-1.2C140.7,40.1,140.5,38.8,140.5,37.1z M140.3,28h-3c-5.7,0-8.6,2.1-8.6,6.3c0,2.9,1.5,4.3,4.6,4.3
	c0.7,0,1.4-0.1,2.2-0.4c0.8-0.3,1.6-0.6,2.3-1.2c0.7-0.5,1.3-1.2,1.8-1.9c0.5-0.8,0.7-1.7,0.7-2.7V28z"/>
<path id="XMLID_82_" class="st0" d="M167.9,35.6c-0.1-1.1-0.4-1.9-1-2.6s-1.6-1.3-2.9-1.8l-3-1.1l-2-0.7c-0.9-0.3-1.7-0.7-2.5-1
	c-0.8-0.4-1.5-0.8-2-1.3c-0.6-0.5-1.1-1.1-1.4-1.8c-0.4-0.7-0.5-1.6-0.5-2.6c0-1,0.2-1.9,0.5-2.6c0.3-0.7,0.8-1.4,1.4-1.9
	s1.2-0.9,1.9-1.3c0.7-0.3,1.4-0.6,2.1-0.8c0.7-0.2,1.4-0.3,2.1-0.4c0.7-0.1,1.2-0.1,1.7-0.1c1.5,0,2.9,0.1,4.1,0.4
	c1.2,0.3,2.2,0.6,3,1.1c0.8,0.4,1.4,1,1.9,1.5c0.4,0.6,0.6,1.2,0.6,1.8c0,0.6-0.2,1-0.6,1.4s-0.9,0.5-1.4,0.5
	c-0.7,0-1.2-0.2-1.7-0.5c-0.5-0.3-0.8-0.8-1.1-1.4c-0.9-1.8-2.4-2.7-4.7-2.7c-1.4,0-2.5,0.3-3.3,1c-0.8,0.7-1.2,1.7-1.2,3.1
	c0,0.5,0.1,0.9,0.3,1.2s0.4,0.7,0.7,1c0.3,0.3,0.6,0.6,1,0.8c0.4,0.2,0.8,0.4,1.1,0.6l1.5,0.6l1.7,0.6c0.5,0.2,0.9,0.3,1.4,0.5
	s0.9,0.3,1.4,0.5c0.5,0.2,0.9,0.4,1.3,0.6c0.4,0.2,0.9,0.5,1.3,0.7c0.5,0.3,1,0.6,1.4,0.9c0.4,0.3,0.8,0.7,1.2,1.1
	c0.3,0.4,0.6,0.9,0.8,1.4c0.2,0.5,0.3,1.1,0.3,1.7c0,1.2-0.3,2.2-0.8,3.2c-0.5,1-1.3,1.8-2.2,2.5c-1,0.7-2.1,1.2-3.4,1.6
	c-1.3,0.4-2.8,0.6-4.4,0.6c-1.3,0-2.5-0.1-3.8-0.3c-1.2-0.2-2.3-0.6-3.3-1s-1.7-1-2.3-1.6c-0.6-0.6-0.9-1.4-0.9-2.2
	c0-0.3,0.1-0.5,0.2-0.8c0.1-0.2,0.3-0.4,0.5-0.6c0.2-0.2,0.4-0.3,0.7-0.4s0.5-0.1,0.8-0.1c1.3,0,2.3,0.6,2.9,1.9
	c0.2,0.4,0.4,0.7,0.6,1.1c0.2,0.4,0.6,0.7,1,1c0.4,0.3,0.9,0.5,1.5,0.7c0.6,0.2,1.4,0.3,2.3,0.3c0.8,0,1.5-0.1,2.1-0.3
	c0.7-0.2,1.2-0.4,1.7-0.8c0.5-0.4,0.9-0.8,1.1-1.3S167.9,36.4,167.9,35.6z"/>
<path id="XMLID_84_" class="st0" d="M185.2,6.5v21l8.7-8c0.7-0.6,1.3-1.2,1.9-1.7c0.5-0.5,1-0.9,1.5-1.2c0.5-0.3,0.9-0.5,1.3-0.7
	c0.4-0.1,0.8-0.2,1.3-0.2c1,0,1.5,0.5,1.5,1.4c0,0.3-0.1,0.5-0.2,0.8c-0.1,0.2-0.3,0.5-0.6,0.7s-0.6,0.5-1.1,0.8s-1,0.7-1.6,1.1
	l-1.8,1.1c-0.3,0.2-0.7,0.4-1,0.7c-0.3,0.2-0.6,0.4-0.9,0.7s-0.7,0.5-1.1,0.9c-0.4,0.3-0.8,0.7-1.3,1.1l-2.2,1.8
	c0.4,0.4,0.9,1,1.5,1.7c0.6,0.7,1.3,1.5,2.1,2.4c0.8,0.9,1.5,1.8,2.3,2.7c0.8,0.9,1.5,1.8,2.2,2.6c0.7,0.8,1.3,1.5,1.8,2.1
	c0.5,0.6,0.8,1,1,1.2c0.6,0.8,0.9,1.3,0.9,1.7c0,0.1,0,0.3-0.1,0.4c-0.1,0.1-0.2,0.2-0.3,0.3c-0.2,0.1-0.4,0.2-0.8,0.2
	c-0.3,0.1-0.8,0.1-1.4,0.1c-0.6,0-1.1,0-1.5-0.1c-0.4-0.1-0.7-0.2-1-0.3c-0.3-0.1-0.6-0.3-0.8-0.5s-0.5-0.5-0.7-0.7
	c0.1,0.1-0.1-0.1-0.4-0.5c-0.4-0.4-0.8-1-1.4-1.7c-0.6-0.7-1.2-1.5-1.9-2.4c-0.7-0.9-1.4-1.7-2.1-2.6s-1.3-1.6-1.9-2.4
	c-0.6-0.7-1-1.3-1.3-1.6l-0.6,0.6v8.4c0,0.8-0.1,1.4-0.2,1.8c-0.1,0.5-0.3,0.9-0.6,1.1s-0.6,0.5-1,0.6c-0.4,0.1-0.9,0.2-1.6,0.2
	c-0.8,0-1.4-0.2-1.7-0.6c-0.3-0.4-0.4-1-0.4-1.9v-35c0-0.9,0.1-1.5,0.4-1.9c0.3-0.4,0.8-0.6,1.7-0.6c1.2,0,2,0.3,2.6,1
	C184.9,3.8,185.2,4.9,185.2,6.5z"/>
<path id="XMLID_25_" class="st1" d="M36.7,5.4c0.5,0.3,1,0.6,1.4,1c1.7,1.3,2.7,3.1,3.1,5.2c0.3,1.2,0.2,2.5,0.1,3.7
	c-0.1,1.2-0.3,2.5-0.4,3.7c-0.1,0.8,0,1.6,0.2,2.3c0.1,0.4,0.4,0.8,0.7,1.1c0.7,0.6,1.5,0.7,2.4,0.2c0.7-0.4,1.3-1,1.7-1.7
	c0-0.1,0.1-0.1,0.2-0.2c0,0.1,0,0.1-0.1,0.2c-0.3,0.8-0.5,1.7-0.5,2.6c0.1,0.8,0.3,1.5,0.5,2.3c0.4,1.1,0.8,2.3,1.1,3.4
	c0.4,1.5,0.7,3.1,0.7,4.6c-0.1,3.1-1.5,5.3-4.2,6.8c-1.2,0.6-2.5,1.1-3.8,1.3c-1.6,0.3-3.1,0.1-4.6-0.5c-2.7-1.2-4.7-3.1-5.8-5.9
	c-0.9-2.5-0.8-5,0-7.5c0.6-1.8,1.5-3.5,2.6-5.1c1.2-1.8,2.5-3.6,3.8-5.4c1-1.4,1.8-2.8,2.4-4.4c0.4-1,0.6-2,0.5-3
	c-0.1-1.4-0.6-2.6-1.4-3.6C37.2,6.1,37,5.8,36.7,5.4C36.7,5.4,36.7,5.4,36.7,5.4z"/>
</svg>
