<?xml version="1.0" encoding="utf-8"?>
<!-- Generator: Adobe Illustrator 19.0.0, SVG Export Plug-In . SVG Version: 6.00 Build 0)  -->
<svg version="1.1" id="Camada_1" xmlns="http://www.w3.org/2000/svg" xmlns:xlink="http://www.w3.org/1999/xlink" x="0px" y="0px"
	 viewBox="189 86 718 621" style="enable-background:new 189 86 718 621;" xml:space="preserve">
<style type="text/css">
	.st0{fill:#B2B2B2;}
	.st1{fill:#AB3332;}
	.st2{fill:#C33D3E;}
	.st3{fill:#EDEEF0;}
	.st4{fill:#D8D9DD;}
	.st5{fill:none;}
	.st6{fill:#E6E6E6;}
</style>
<g id="XMLID_130_">
	<g id="XMLID_59_">
		<path id="XMLID_60_" class="st0" d="M263.2,626.1H228l-8.1,30.1c-0.2,0.5-0.5,0.9-0.9,0.9c-0.4,0.2-1,0.3-1.8,0.3
			c-0.2,0-0.6,0-1.1,0s-1.2-0.1-1.9-0.2l29.7-105.5c0-0.4,0.4-0.6,1.4-0.6c1,0,1.6,0.2,2,0.4l29.8,104c0.3,1.2-0.3,1.8-1.8,1.8
			c-0.4,0-0.9,0-1.5,0c-0.6,0-1.1-0.1-1.6-0.2L263.2,626.1z M229.2,621.4H262l-9.1-33.1c-0.9-3.3-1.8-6.6-2.7-9.7
			c-0.9-3.2-1.6-6-2.2-8.7c-0.7-2.7-1.2-5-1.6-7c-0.4-2-0.7-3.5-0.9-4.4c-0.1,0.9-0.3,2.3-0.9,4.4c-0.4,2-1,4.3-1.6,7
			c-0.7,2.7-1.4,5.6-2.2,8.7c-0.8,3.2-1.6,6.4-2.6,9.7L229.2,621.4z"/>
		<path id="XMLID_63_" class="st0" d="M288.3,586.6c3.3-2.1,6.6-3.6,10.1-4.7c3.5-1,7.2-1.5,11.5-1.5c3.9,0,7.4,0.5,10.5,1.6
			s5.8,2.8,7.9,5.3c2.2,2.5,3.8,5.9,4.9,10c1.1,4.1,1.6,9.3,1.6,15.4c0,10.3-0.9,18.4-2.8,24.4c-1.9,6-4.2,10.6-7,13.9
			c-2.8,3.2-5.7,5.3-8.7,6.2c-3,0.9-5.8,1.5-8,1.5c-3.6,0-6.7-0.7-9.4-2.1c-2.7-1.4-4.5-2.8-5.5-4.2v33.9c-0.9,0.3-1.7,0.4-2.6,0.4
			c-1.6,0-2.4-0.7-2.4-2L288.3,586.6L288.3,586.6z M293.3,645.6c1.7,2.9,3.8,5.1,6.4,6.5c2.6,1.4,5.2,2.1,7.8,2.1
			c1.8,0,4-0.4,6.6-1.2c2.6-0.8,5-2.5,7.3-5.2s4.3-6.6,6-11.8c1.6-5.2,2.5-12.3,2.5-21.2c0-5.8-0.4-10.6-1.3-14.5
			c-0.9-3.8-2.2-6.8-3.8-9.1c-1.7-2.2-3.8-3.8-6.3-4.7c-2.5-0.9-5.4-1.4-8.7-1.4c-3.2,0-6.1,0.4-8.8,1.2c-2.7,0.8-5.2,1.9-7.4,3.3
			v56H293.3z"/>
		<path id="XMLID_68_" class="st0" d="M350.5,586.6c3.3-2.1,6.6-3.6,10.1-4.7c3.5-1,7.2-1.5,11.5-1.5c3.9,0,7.4,0.5,10.5,1.6
			s5.8,2.8,7.9,5.3s3.8,5.9,4.9,10c1.1,4.1,1.6,9.3,1.6,15.4c0,10.3-0.9,18.4-2.8,24.4c-1.9,6-4.2,10.6-7,13.9
			c-2.8,3.2-5.7,5.3-8.7,6.2c-3,0.9-5.8,1.5-8,1.5c-3.6,0-6.7-0.7-9.4-2.1s-4.5-2.8-5.5-4.2v33.9c-0.9,0.3-1.7,0.4-2.6,0.4
			c-1.6,0-2.4-0.7-2.4-2L350.5,586.6L350.5,586.6z M355.5,645.6c1.7,2.9,3.8,5.1,6.4,6.5s5.2,2.1,7.8,2.1c1.8,0,4-0.4,6.6-1.2
			c2.6-0.8,5-2.5,7.3-5.2s4.3-6.6,6-11.8c1.6-5.2,2.5-12.3,2.5-21.2c0-5.8-0.4-10.6-1.3-14.5c-0.9-3.8-2.2-6.8-3.8-9.1
			c-1.7-2.2-3.8-3.8-6.3-4.7c-2.5-0.9-5.4-1.4-8.7-1.4c-3.2,0-6.1,0.4-8.8,1.2c-2.7,0.8-5.2,1.9-7.4,3.3v56H355.5z"/>
		<path id="XMLID_71_" class="st0" d="M405,586.6c0-2.2,0.1-3.5,0.3-4c0.2-0.4,0.7-0.7,1.6-0.7h10.7v-9.9c0-5.8,0.8-10.4,2.2-13.9
			c1.5-3.5,3.5-6.1,5.8-7.9c2.3-1.8,4.9-3,7.7-3.5c2.8-0.5,5.4-0.9,8-0.9c4.5,0,7.7,0.4,9.6,1.2s2.8,1.6,2.8,2.2
			c0,0.6-0.1,1.1-0.3,1.6c-0.2,0.4-0.3,0.9-0.5,1.5c-1.8-0.6-3.6-1-5.3-1.3c-1.7-0.3-3.8-0.3-6.1-0.3c-2.1,0-4.3,0.2-6.6,0.5
			s-4.3,1.3-6.2,2.7c-1.9,1.5-3.4,3.6-4.5,6.6s-1.7,6.9-1.7,11.9v9.7H440c0,2.2-0.1,3.5-0.3,4c-0.2,0.4-0.6,0.7-1.5,0.7h-16v68.9
			c0,1.1-0.5,1.6-1.6,1.6h-3.3v-70.6L405,586.6L405,586.6z"/>
		<path id="XMLID_73_" class="st0" d="M445.5,583.8c-0.3-0.9-0.3-1.5,0.2-1.6c0.4-0.2,1.9-0.3,4.4-0.3l14,51.2
			c0.7,2.6,1.3,5.2,1.8,7.6c0.5,2.5,1,4.7,1.5,6.7c0.4,2.3,0.9,4.5,1.4,6.6c0.4-2.1,0.8-4.3,1.2-6.6c0.4-2,0.9-4.2,1.4-6.8
			c0.5-2.5,1.1-5.1,1.8-7.7l12.8-49.3c0.2-0.9,0.5-1.5,0.9-1.6c0.4-0.2,2-0.3,4.6-0.3l-21.1,80.5c-2.4,9-5.3,15.2-8.6,18.6
			c-3.4,3.5-7.2,5.3-11.6,5.3c-2.9,0-5.3-0.3-7.2-0.9c-1.9-0.5-2.8-1.4-2.8-2.5c0-0.5,0.1-1.1,0.3-1.7c0.3-0.7,0.6-1.1,0.9-1.5
			c1.2,0.6,2.7,1,4.4,1.4c1.7,0.3,3.1,0.4,4.2,0.4c3.2,0,6.2-1.6,9-4.8c2.8-3.2,5.2-9,7.2-17.2L445.5,583.8z"/>
		<path id="XMLID_75_" class="st0" d="M539.3,652.6h33.1v3c0,0.8-0.2,1.3-0.4,1.5c-0.3,0.2-0.7,0.3-1.2,0.3H534V554.3
			c0-1.2,0.3-1.9,0.7-2.1c0.4-0.2,2-0.3,4.6-0.3V652.6L539.3,652.6z"/>
		<path id="XMLID_77_" class="st0" d="M584.6,555.2c0.1-3.3,1.3-5,3.5-5c2.2,0,3.3,1.7,3.3,5.1c-0.2,3.2-1.4,4.8-3.6,4.8
			C585.4,560.1,584.4,558.4,584.6,555.2z M590.6,655.6c0,0.8-0.3,1.3-0.8,1.5s-2,0.3-4.5,0.3v-72.6c0-1.4,0.4-2.2,1.2-2.4
			s2.2-0.3,4.1-0.3V655.6z"/>
		<path id="XMLID_80_" class="st0" d="M647.6,585.9c0,0.4-0.1,0.9-0.3,1.6c-0.2,0.7-0.4,1.2-0.9,1.7c-1.2-1-2.8-1.9-5-2.8
			c-2.1-0.9-4.7-1.3-7.5-1.3c-2.3,0-4.7,0.3-7.3,1.1s-4.9,2.4-7,4.9c-2.1,2.5-3.8,6.2-5.2,11s-2.1,11.4-2.1,19.7
			c0,6.8,0.5,12.3,1.5,16.6c0.9,4.2,2.2,7.5,3.9,9.7c1.6,2.3,3.6,3.9,6,4.7c2.3,0.8,4.8,1.2,7.5,1.2c3.7,0,6.9-0.6,9.5-1.7
			c2.6-1.1,4.6-2.4,6-3.8c0.6,1.1,0.9,2.2,0.9,3.3c0,0.7-0.4,1.5-1.3,2.2c-0.9,0.8-2.1,1.6-3.6,2.2c-1.6,0.7-3.5,1.3-5.6,1.7
			c-2.2,0.4-4.5,0.7-7,0.7c-3.2,0-6.2-0.4-9-1.2s-5.2-2.5-7.2-5.2c-2-2.7-3.6-6.5-4.8-11.4c-1.2-4.9-1.8-11.5-1.8-19.8
			c0-9.1,0.9-16.2,2.6-21.6c1.7-5.3,3.9-9.5,6.6-12.3c2.7-2.8,5.6-4.7,8.8-5.6c3.2-0.9,6.4-1.3,9.5-1.3c1.6,0,3.2,0.2,4.7,0.4
			c1.5,0.3,2.8,0.7,4.1,1.2c1.2,0.5,2.2,1.1,2.8,1.7C647.3,584.6,647.6,585.2,647.6,585.9z"/>
		<path id="XMLID_82_" class="st0" d="M684.1,580.5c3.5,0,6.3,0.6,8.6,1.7c2.3,1.1,4.3,2.8,5.8,4.8s2.6,4.6,3.3,7.4
			c0.7,2.9,1,6.1,1,9.7c0,3-0.1,6-0.3,8.9c-0.2,2.9-0.4,5.5-0.9,7.9c-3.1,0.6-6.3,1.1-9.7,1.5c-3.3,0.3-6.6,0.6-9.7,0.9
			c-3.1,0.2-6,0.3-8.8,0.3c-2.8,0.1-5.1,0.1-7,0.1h-4.7v0.8c0,6.6,0.5,11.9,1.6,15.9s2.5,7,4.3,9s4,3.3,6.5,3.9s5.2,0.9,8.1,0.9
			c3.6,0,7.1-0.5,10.4-1.5s6.2-2.3,8.5-4.1c0.3,0.8,0.5,1.5,0.6,2.1s0.2,1.1,0.2,1.6c0,0.7-0.5,1.5-1.6,2.2
			c-1.1,0.8-2.6,1.5-4.4,2.1c-1.8,0.7-3.9,1.2-6.3,1.6s-5,0.7-7.7,0.7c-3.6,0-7-0.3-10-1.1c-3-0.8-5.7-2.3-7.9-4.7
			c-2.2-2.4-4.1-5.9-5.3-10.4c-1.3-4.6-1.9-10.7-1.9-18.5c0-9.9,0.9-17.8,2.6-23.6c1.7-5.8,3.9-10.1,6.5-13.1
			c2.6-2.9,5.5-4.8,8.6-5.6C678,580.9,681,580.5,684.1,580.5z M684.1,585.2c-2.2,0-4.6,0.3-7,0.9c-2.5,0.5-4.7,2-6.8,4.2
			c-2.1,2.2-3.9,5.6-5.4,10.2c-1.5,4.5-2.4,10.7-2.7,18.6c1.3,0,3.4,0,6.1,0s5.8-0.1,9.1-0.2c3.4-0.1,6.8-0.3,10.4-0.7
			c3.5-0.3,6.8-0.9,9.7-1.5c0.2-2.1,0.3-4.1,0.4-5.7c0.1-1.7,0.2-3.5,0.2-5.3c-0.1-3.2-0.3-6.1-0.9-8.6s-1.2-4.7-2.2-6.5
			c-1-1.7-2.5-3.1-4.2-4.1C689.1,585.6,686.8,585.2,684.1,585.2z"/>
		<path id="XMLID_85_" class="st0" d="M718.1,585.9c3.8-1.7,7.8-3,11.9-4c4.1-0.9,8.4-1.5,12.8-1.5c4.1,0,7.5,0.4,10.2,1.4
			c2.7,0.9,4.7,2.2,6.2,4.1c1.5,1.8,2.5,4.1,3.1,6.7c0.5,2.7,0.9,5.7,0.9,9.1v53.9c0,0.8-0.3,1.3-0.7,1.5c-0.4,0.2-1.9,0.3-4.4,0.3
			v-54.7c0-3-0.2-5.6-0.6-7.9c-0.4-2.2-1.1-4.1-2.2-5.5c-1.1-1.5-2.7-2.5-4.7-3.3c-2-0.7-4.6-1-7.7-1c-1.4,0-2.9,0.1-4.6,0.3
			c-1.6,0.2-3.4,0.4-5.2,0.8c-1.8,0.3-3.6,0.8-5.3,1.4c-1.7,0.5-3.4,1.2-4.7,1.9v66.3c0,0.8-0.3,1.3-0.7,1.5
			c-0.4,0.2-1.8,0.3-4.1,0.3L718.1,585.9L718.1,585.9z"/>
		<path id="XMLID_87_" class="st0" d="M803,580.5c3.3,0,6.2,0.3,8.5,0.9c2.4,0.5,4.4,1.2,6,1.9s2.8,1.5,3.6,2.2
			c0.8,0.8,1.2,1.4,1.2,1.8c0,0.9-0.5,2-1.5,3.3c-2.7-1.8-5.4-3.2-8.2-4.1c-2.8-0.9-6-1.4-9.6-1.4c-2.7,0-5.2,0.3-7.5,0.8
			c-2.3,0.5-4.3,1.3-6.1,2.2c-1.7,1-3.1,2.2-4.1,3.7c-1,1.5-1.5,3.1-1.5,5c0,2.1,0.5,4.1,1.6,5.9s3.5,3.8,6.9,6l18.4,11.6
			c3.7,2.7,6.5,5.5,8.4,8.5c1.9,2.9,2.8,6.4,2.8,10.2c0,6.6-2.2,11.6-6.4,14.8c-4.2,3.3-10.3,4.9-17.9,4.9c-6.2,0-11-0.6-14.4-1.8
			c-3.4-1.2-5-2.4-5-3.8c0-0.6,0.1-1.2,0.3-1.8c0.2-0.6,0.5-1.1,1.1-1.6c2.3,1.5,4.8,2.6,7.4,3.3c2.7,0.7,6.1,0.9,10.4,0.9
			c6,0,10.7-1,14.2-3.3c3.5-2.2,5.3-5.6,5.3-10.4c0-3.5-0.9-6.6-2.6-9.2c-1.7-2.7-4.3-5.3-7.9-7.8L789.7,613
			c-2.3-1.4-4.2-2.8-5.6-4.1c-1.5-1.3-2.6-2.6-3.4-3.8c-0.8-1.3-1.3-2.5-1.6-3.8c-0.3-1.3-0.3-2.7-0.3-4.1c0-2.6,0.6-4.9,1.8-7
			c1.2-2.1,2.9-3.8,5.1-5.2c2.2-1.4,4.8-2.5,7.8-3.3C796.2,580.9,799.5,580.5,803,580.5z"/>
		<path id="XMLID_89_" class="st0" d="M863.1,580.5c3.5,0,6.3,0.6,8.6,1.7c2.3,1.1,4.3,2.8,5.8,4.8s2.6,4.6,3.3,7.4
			c0.7,2.9,1,6.1,1,9.7c0,3-0.1,6-0.3,8.9c-0.2,2.9-0.4,5.5-0.9,7.9c-3.1,0.6-6.3,1.1-9.7,1.5c-3.3,0.3-6.6,0.6-9.7,0.9
			c-3.1,0.2-6,0.3-8.8,0.3c-2.8,0.1-5.1,0.1-7,0.1h-4.7v0.8c0,6.6,0.5,11.9,1.6,15.9c1,4,2.5,7,4.3,9s4,3.3,6.5,3.9s5.2,0.9,8.1,0.9
			c3.6,0,7.1-0.5,10.4-1.5s6.2-2.3,8.5-4.1c0.3,0.8,0.5,1.5,0.6,2.1s0.2,1.1,0.2,1.6c0,0.7-0.5,1.5-1.6,2.2
			c-1.1,0.8-2.6,1.5-4.4,2.1c-1.8,0.7-3.9,1.2-6.3,1.6s-5,0.7-7.7,0.7c-3.6,0-7-0.3-10-1.1c-3-0.8-5.7-2.3-7.9-4.7
			c-2.2-2.4-4.1-5.9-5.3-10.4c-1.3-4.6-1.9-10.7-1.9-18.5c0-9.9,0.9-17.8,2.6-23.6c1.7-5.8,3.9-10.1,6.5-13.1
			c2.6-2.9,5.5-4.8,8.6-5.6C857,580.9,860.1,580.5,863.1,580.5z M863.1,585.2c-2.2,0-4.6,0.3-7,0.9c-2.5,0.5-4.7,2-6.8,4.2
			c-2.1,2.2-3.9,5.6-5.4,10.2c-1.5,4.5-2.4,10.7-2.7,18.6c1.3,0,3.4,0,6.1,0c2.8,0,5.8-0.1,9.1-0.2c3.4-0.1,6.8-0.3,10.4-0.7
			c3.5-0.3,6.8-0.9,9.7-1.5c0.2-2.1,0.3-4.1,0.4-5.7c0.1-1.7,0.2-3.5,0.2-5.3c-0.1-3.2-0.3-6.1-0.9-8.6s-1.2-4.7-2.2-6.5
			c-1-1.7-2.5-3.1-4.2-4.1C868,585.6,865.8,585.2,863.1,585.2z"/>
	</g>
	<g id="XMLID_10_">
		<polygon id="XMLID_12_" class="st0" points="547.4,106.1 547,106.2 357.3,173 387.3,422 546.9,509.7 547,509.7 708.7,420.8 
			738.7,171.8 		"/>
		<g id="XMLID_7_">
			<polygon id="XMLID_9_" class="st1" points="547,127.3 547,489 691.8,408.9 719.7,186.2 			"/>
			<polygon id="XMLID_11_" class="st1" points="404.4,410 546.9,489 547,127.3 378.6,187.2 			"/>
		</g>
		<g id="XMLID_3_">
			<polygon id="XMLID_6_" class="st2" points="547,127.3 547,489 691.8,408.9 719.7,186.2 			"/>
			<polygon id="XMLID_8_" class="st2" points="404.4,410 546.9,489 547,127.3 378.6,187.2 			"/>
		</g>
		<polygon id="XMLID_65_" class="st1" points="719.7,186.2 547,127.3 547,489 691.8,408.9 		"/>
		<g id="XMLID_2_">
			<path id="XMLID_51_" class="st3" d="M483.8,270.1c0,0,21.9,10,30.1,9.6c6.4,3.2,2.8,27.1-12.1,32.2
				C486.8,317.1,470.9,292.6,483.8,270.1z"/>
			<path id="XMLID_50_" class="st4" d="M608.7,270.1c0,0-21.9,10-30.1,9.6c-6.4,3.2-2.8,27.1,12.1,32.2
				C605.6,317,621.6,292.6,608.7,270.1z"/>
			<g id="XMLID_4_">
				<path id="XMLID_5_" class="st5" d="M616.3,263.2c0,0-2-2.4-23.1-4c-21.4,0.3-40.4,0.1-46.2,0c-1.2,0-1.8,0-1.8,0
					s-22.2,0.4-47.9,0c-21.1,1.6-23.1,4-23.1,4c-30.3,21.6-4.1,50.1-4.1,50.1c29,2,42.7-6.5,54.3-9.3c11.6-2.8,20.9-2.8,20.9-2.8
					s0.6,0,1.8,0c3.2,0.1,10.6,0.7,19.1,2.7c11.6,2.8,25.3,11.3,54.3,9.3C620.4,313.4,646.6,284.8,616.3,263.2z"/>
				<path id="XMLID_18_" class="st6" d="M644.4,209.5c3.2-16.4,1.5-32.5-3.5-42.1c-20,1.1-31.6,6.9-46.1,18c-20.7-5-34.6-5-47.8-5.5
					c-13.2,0.5-27.1,0.5-47.8,5.5c-14.5-11.1-26.1-16.9-46.1-18c-5,9.6-6.7,25.6-3.5,42.1c-9.4,13.8-27.3,40.1-19,53.1
					c-1.5,11.6,0.5,27.8,7.5,44.6c5.1,28,47.9,44.4,73.2,43.9c-9.6,4.9-6.5,7.2-5.5,7.8c-4.1,10.2-8.8,16.7-6,36
					c0,7.8-0.1,27.8,0.2,28.2c0.3,0.5,1.1,0.5,1.4,1.2c0.2,0.7,0.2,4.5,0,5.4c-0.2,1-1.6,8.4-11.5,13.8c-6,4.1-1,6.5,0.7,6.8
					c5.5,0,9.5,0.3,19.2-3.7c9.7-4.8,3.6-18.8,9.7-23.8c0.4-0.3,0.2,0,0.5-0.5s-1.5-39.6,2.9-44.1c1.9,0.2-2.4,13.2-0.5,35.7
					c0.3,2.7,2.3,7.8,2.8,10.5c1.4,6.6,2.7,16.5-6.6,26c-6.1,6.2-3.9,7.7-2.5,8.8c3.2,2.3,22-0.9,24.1-6.7c1.3-3.7-1.3-2.5-1.7-3.4
					c6.8-7,6.2-16.3,5.9-24.2c-0.2-0.3-1.1-0.2-1.1-0.6c1.6-2.8,2.8-2.5,2.4-8.9c-0.1-8.1,0.9-13.5-0.1-17.9c-0.1-0.5-0.6-1.3,1-1.8
					h0.7h0.7c1.6,0.5,1.1,1.3,1,1.8c-1,4.4,0,9.8-0.1,17.9c-0.4,6.4,0.8,6.1,2.4,8.9c0,0.3-0.9,0.3-1.1,0.6
					c-0.3,7.9-0.9,17.2,5.9,24.2c-0.4,0.9-3-0.3-1.7,3.4c2,5.8,20.9,9.1,24.1,6.7c1.4-1,3.5-2.6-2.5-8.8c-9.3-9.5-8-19.5-6.6-26
					c0.6-2.7,2.5-7.8,2.8-10.5c2-22.5-2.4-35.5-0.5-35.7c4.4,4.5,2.7,43.6,2.9,44.1c0.3,0.5,0.1,0.2,0.5,0.5c6,5,0,19,9.7,23.8
					c9.7,4,13.7,3.7,19.2,3.7c1.7-0.3,6.7-2.7,0.7-6.8c-10-5.3-11.3-12.8-11.5-13.8s-0.2-4.8,0-5.4c0.2-0.7,1.1-0.7,1.4-1.2
					s0.2-20.5,0.2-28.2c2.7-19.4-1.9-25.9-6-36c1-0.7,4.1-2.9-5.5-7.8c25.3,0.4,68.1-15.9,73.2-43.9c7-16.7,9-33,7.5-44.6
					C671.7,249.6,653.8,223.2,644.4,209.5z M620.4,313.4c-29,2-42.7-6.5-54.3-9.3c-8.5-2.1-15.9-2.6-19.1-2.7c-1.1,0-1.8,0-1.8,0
					s-9.4,0-20.9,2.8c-11.6,2.8-25.3,11.3-54.3,9.3c0,0-26.2-28.5,4.1-50.1c0,0,2-2.4,23.1-4c25.7,0.4,47.9,0,47.9,0s0.6,0,1.8,0
					c5.7,0.1,24.7,0.3,46.2,0c21.1,1.6,23.1,4,23.1,4C646.6,284.8,620.4,313.4,620.4,313.4z"/>
			</g>
			<g id="XMLID_35_">
				<path id="XMLID_58_" class="st3" d="M545.2,301.3c0,0-9.4,0-20.9,2.8c-11.6,2.8-25.3,11.3-54.3,9.3c0,0-26.2-28.5,4.1-50.1
					c0,0,2-2.4,23.1-4c25.7,0.4,47.9,0,47.9,0s0.6,0,1.8,0v-79.4c-13.2,0.5-27.1,0.5-47.8,5.5c-14.5-11.1-26.1-16.9-46.1-18
					c-5,9.6-6.7,25.6-3.5,42.1c-9.4,13.8-27.3,40.1-19,53.1c-1.5,11.6,0.5,27.8,7.5,44.6c5.1,28,47.9,44.4,73.2,43.9
					c-9.6,4.9-6.5,7.2-5.5,7.8c-4.1,10.2-8.8,16.7-6,36c0,7.8-0.1,27.8,0.2,28.2c0.3,0.5,1.1,0.5,1.4,1.2c0.2,0.7,0.2,4.5,0,5.4
					c-0.2,1-1.6,8.4-11.5,13.8c-6,4.1-1,6.5,0.7,6.8c5.5,0,9.5,0.3,19.2-3.7c9.7-4.8,3.6-18.8,9.7-23.8c0.4-0.3,0.2,0,0.5-0.5
					s-1.5-39.6,2.9-44.1c1.9,0.2-2.4,13.2-0.5,35.7c0.3,2.7,2.3,7.8,2.8,10.5c1.4,6.6,2.7,16.5-6.6,26c-6.1,6.2-3.9,7.7-2.5,8.8
					c3.2,2.3,22-0.9,24.1-6.7c1.3-3.7-1.3-2.5-1.7-3.4c6.8-7,6.2-16.3,5.9-24.2c-0.2-0.3-1.1-0.2-1.1-0.6c1.6-2.8,2.8-2.5,2.4-8.9
					c-0.1-8.1,0.9-13.5-0.1-17.9c-0.1-0.5-0.6-1.3,1-1.8h0.7v-94.3C545.9,301.3,545.2,301.3,545.2,301.3z"/>
				<path id="XMLID_66_" class="st4" d="M644.4,209.5c3.2-16.4,1.5-32.5-3.5-42.1c-20,1.1-31.6,6.9-46.1,18c-20.7-5-34.6-5-47.8-5.5
					v79.4c5.7,0.1,24.7,0.3,46.2,0c21.1,1.6,23.1,4,23.1,4c30.3,21.6,4.1,50.1,4.1,50.1c-29,2-42.7-6.5-54.3-9.3
					c-8.5-2.1-15.9-2.6-19.1-2.7v94.2h0.7c1.6,0.5,1.1,1.3,1,1.8c-1,4.4,0,9.8-0.1,17.9c-0.4,6.4,0.8,6.1,2.4,8.9
					c0,0.3-0.9,0.3-1.1,0.6c-0.3,7.9-0.9,17.2,5.9,24.2c-0.4,0.9-3-0.3-1.7,3.4c2,5.8,20.9,9.1,24.1,6.7c1.4-1,3.5-2.6-2.5-8.8
					c-9.3-9.5-8-19.5-6.6-26c0.6-2.7,2.5-7.8,2.8-10.5c2-22.5-2.4-35.5-0.5-35.7c4.4,4.5,2.7,43.6,2.9,44.1c0.3,0.5,0.1,0.2,0.5,0.5
					c6,5,0,19,9.7,23.8c9.7,4,13.7,3.7,19.2,3.7c1.7-0.3,6.7-2.7,0.7-6.8c-10-5.3-11.3-12.8-11.5-13.8s-0.2-4.8,0-5.4
					c0.2-0.7,1.1-0.7,1.4-1.2s0.2-20.5,0.2-28.2c2.7-19.4-1.9-25.9-6-36c1-0.7,4.1-2.9-5.5-7.8c25.3,0.4,68.1-15.9,73.2-43.9
					c7-16.7,9-33,7.5-44.6C671.7,249.6,653.8,223.2,644.4,209.5z"/>
			</g>
		</g>
	</g>
</g>
</svg>
