<?xml version="1.0" encoding="utf-8"?>
<!-- Generator: Adobe Illustrator 19.0.0, SVG Export Plug-In . SVG Version: 6.00 Build 0)  -->
<svg version="1.1" id="Camada_1" xmlns="http://www.w3.org/2000/svg" xmlns:xlink="http://www.w3.org/1999/xlink" x="0px" y="0px"
	 viewBox="0 0 262 312" style="enable-background:new 0 0 262 312;" xml:space="preserve">
<style type="text/css">
	.st0{fill:#EDEEF0;}
	.st1{fill:none;}
	.st2{fill:#E6E6E6;}
	.st3{fill:#D8D9DD;}
</style>
<path id="XMLID_5_" class="st0" d="M193.2,111.2c0,0-21.9,10-30.1,9.6c-6.4,3.2-2.8,27.1,12.1,32.2
	C190.2,158.2,206.1,133.7,193.2,111.2z"/>
<path id="XMLID_51_" class="st1" d="M201.3,104.3c0,0-2-2.4-23.1-4c-21.4,0.3-40.4,0.1-46.2,0v42c3.2,0.1,10.6,0.7,19.1,2.7
	c11.6,2.8,25.3,11.3,54.3,9.3C205.4,154.5,231.6,125.9,201.3,104.3z"/>
<path id="XMLID_52_" class="st1" d="M130.2,100.4c0,0-22.2,0.4-47.9,0c-21.1,1.6-23.1,4-23.1,4c-30.3,21.6-4.1,50.1-4.1,50.1
	c29,2,42.7-6.5,54.3-9.3c11.6-2.8,20.9-2.8,20.9-2.8s0.6,0,1.8,0v-42C130.8,100.4,130.2,100.4,130.2,100.4z"/>
<path id="XMLID_54_" class="st2" d="M229.4,50.6c3.2-16.4,1.5-32.5-3.5-42.1c-20,1.1-31.6,6.9-46.1,18c-20.7-5-34.6-5-47.8-5.5v79.4
	c5.7,0.1,24.7,0.3,46.2,0c21.1,1.6,23.1,4,23.1,4c30.3,21.6,4.1,50.1,4.1,50.1c-29,2-42.7-6.5-54.3-9.3c-8.5-2.1-15.9-2.6-19.1-2.7
	v94.3h0.7c1.6,0.5,1.1,1.3,1,1.8c-1,4.4,0,9.8-0.1,17.9c-0.4,6.4,0.8,6.1,2.4,8.9c0,0.3-0.9,0.3-1.1,0.6c-0.3,7.9-0.9,17.2,5.9,24.2
	c-0.4,0.9-3-0.3-1.7,3.4c2,5.8,20.9,9.1,24.1,6.7c1.4-1,3.5-2.6-2.5-8.8c-9.3-9.5-8-19.5-6.6-26c0.6-2.7,2.5-7.8,2.8-10.5
	c2-22.5-2.4-35.5-0.5-35.7c4.4,4.5,2.7,43.6,2.9,44.1c0.3,0.5,0.1,0.2,0.5,0.5c6,5,0,19,9.7,23.8c9.7,4,13.7,3.7,19.2,3.7
	c1.7-0.3,6.7-2.7,0.7-6.8c-10-5.3-11.3-12.8-11.5-13.8c-0.2-1-0.2-4.8,0-5.4c0.2-0.7,1.1-0.7,1.4-1.2c0.3-0.5,0.2-20.5,0.2-28.2
	c2.7-19.4-1.9-25.9-6-36c1-0.7,4.1-2.9-5.5-7.8c25.3,0.4,68.1-15.9,73.2-43.9c7-16.7,9-33,7.5-44.6
	C256.7,90.7,238.8,64.3,229.4,50.6z"/>
<path id="XMLID_55_" class="st3" d="M130.2,142.4c0,0-9.4,0-20.9,2.8c-11.6,2.8-25.3,11.3-54.3,9.3c0,0-26.2-28.5,4.1-50.1
	c0,0,2-2.4,23.1-4c25.7,0.4,47.9,0,47.9,0s0.6,0,1.8,0V21c-13.2,0.5-27.1,0.5-47.8,5.5C69.7,15.4,58.1,9.7,38.1,8.5
	c-5,9.6-6.7,25.6-3.5,42.1c-9.4,13.8-27.3,40.1-19,53.1c-1.5,11.6,0.5,27.8,7.5,44.6c5.1,28,47.9,44.4,73.2,43.9
	c-9.6,4.9-6.5,7.2-5.5,7.8c-4.1,10.2-8.8,16.7-6,36c0,7.8-0.1,27.8,0.2,28.2c0.3,0.5,1.1,0.5,1.4,1.2c0.2,0.7,0.2,4.5,0,5.4
	c-0.2,1-1.6,8.4-11.5,13.8c-6,4.1-1,6.5,0.7,6.8c5.5,0,9.5,0.3,19.2-3.7c9.7-4.8,3.6-18.8,9.7-23.8c0.4-0.3,0.2,0,0.5-0.5
	s-1.5-39.6,2.9-44.1c1.9,0.2-2.4,13.2-0.5,35.7c0.3,2.7,2.3,7.8,2.8,10.5c1.4,6.6,2.7,16.5-6.6,26c-6.1,6.2-3.9,7.7-2.5,8.8
	c3.2,2.3,22-0.9,24.1-6.7c1.3-3.7-1.3-2.5-1.7-3.4c6.8-7,6.2-16.3,5.9-24.2c-0.2-0.3-1.1-0.2-1.1-0.6c1.6-2.8,2.8-2.5,2.4-8.9
	c-0.1-8.1,0.9-13.5-0.1-17.9c-0.1-0.5-0.6-1.3,1-1.8h0.7v-94.3C130.9,142.4,130.2,142.4,130.2,142.4z"/>
<path id="XMLID_18_" class="st3" d="M98.4,120.8c-8.2,0.4-30.1-9.6-30.1-9.6c-12.9,22.5,3,47,18,41.9S104.9,124,98.4,120.8z"/>
<path id="XMLID_4_" class="st3" d="M-324.7,62.2c0,0,21.9,10,30.1,9.6c6.4,3.2,2.8,27.1-12.1,32.2S-337.6,84.7-324.7,62.2z"/>
</svg>
