<?xml version="1.0" encoding="utf-8"?>
<!-- Generator: Adobe Illustrator 19.0.0, SVG Export Plug-In . SVG Version: 6.00 Build 0)  -->
<svg version="1.1" id="Camada_1" xmlns="http://www.w3.org/2000/svg" xmlns:xlink="http://www.w3.org/1999/xlink" x="0px" y="0px"
	 viewBox="0 0 278.8 95.7" style="enable-background:new 0 0 278.8 95.7;" xml:space="preserve">
<style type="text/css">
	.st0{fill:#0C5052;}
	.st1{fill:#2B9194;}
</style>
<polyline id="XMLID_428_" class="st0" points="104.5,47.9 79,92.1 104.4,92.1 129.6,47.8 129.6,47.8 104.4,4.1 79,4.1 104.5,48.1 
	"/>
<polyline id="XMLID_425_" class="st0" points="28.1,48.1 53.3,92.1 28.2,92.1 2.6,48.2 2.6,48.2 28.2,4.1 53.3,4.1 28.1,48.1 "/>
<polygon id="XMLID_422_" class="st1" points="79,4.1 28.1,92.1 53.4,92.1 104.4,4.1 "/>
<g id="XMLID_207_">
	<g id="XMLID_648_">
		<g id="XMLID_703_">
			<g id="XMLID_704_">
				<path id="XMLID_705_" class="st0" d="M156.9,5.5c2.3,0,4,0.2,5,0.7c1,0.5,1.5,1,1.5,1.6c0,0.6-0.3,1.2-0.8,1.7
					c-0.4-0.3-1.1-0.6-2.1-0.9s-2.1-0.5-3.5-0.5c-1.8,0-3.2,0.4-4.3,1.2c-1.1,0.8-1.6,1.9-1.6,3.2c0,1.1,0.3,2,0.8,2.9
					c0.5,0.9,1.2,1.8,2.1,2.7l6.2,6.4c1.5,1.6,2.4,3,3,4.4c0.5,1.4,0.8,2.9,0.8,4.6c0,1.4-0.2,2.6-0.5,3.8c-0.3,1.2-0.9,2.2-1.6,3
					c-0.7,0.8-1.7,1.5-2.8,2c-1.1,0.5-2.5,0.7-4.2,0.7c-1.2,0-2.2-0.1-3.1-0.3c-0.8-0.2-1.6-0.4-2.1-0.7c-0.6-0.3-1-0.6-1.2-0.9
					s-0.4-0.6-0.4-0.9c0-0.3,0.1-0.7,0.2-1.1c0.1-0.4,0.3-0.7,0.6-1c0.6,0.5,1.3,1,2.2,1.3c0.9,0.4,2.1,0.5,3.6,0.5
					c2.2,0,3.8-0.6,4.8-1.8c1-1.2,1.4-2.7,1.4-4.6c0-0.7-0.1-1.4-0.2-2.1c-0.1-0.6-0.3-1.3-0.6-1.9s-0.6-1.3-1.1-1.9
					c-0.5-0.6-1-1.3-1.7-2.1l-5.6-5.9c-1.2-1.3-2.1-2.5-2.6-3.7c-0.6-1.1-0.9-2.4-0.9-3.7c0-2,0.8-3.7,2.3-5
					C152,6.1,154.1,5.5,156.9,5.5z"/>
			</g>
		</g>
		<g id="XMLID_699_">
			<g id="XMLID_700_">
				<path id="XMLID_701_" class="st0" d="M170.8,18.9h-3.8c0-1.1,0-1.9,0.1-2.1c0.1-0.3,0.3-0.4,0.6-0.4h3.2V8.2
					c0-0.6,0.2-0.9,0.5-1c0.3-0.1,1.1-0.1,2.3-0.1v9.3h6.3c0,1.1,0,1.9-0.1,2.1c-0.1,0.3-0.2,0.4-0.5,0.4h-5.7v15.9
					c0,0.8,0,1.5,0.1,2.1c0,0.7,0.1,1.2,0.3,1.7c0.2,0.5,0.4,0.9,0.7,1.2c0.3,0.3,0.8,0.4,1.4,0.4c0.7,0,1.3-0.1,1.8-0.2
					c0.5-0.1,1-0.3,1.6-0.6c0.1,0.2,0.1,0.4,0.2,0.7c0,0.3,0.1,0.5,0.1,0.8c0,0.3-0.1,0.6-0.4,0.9c-0.2,0.2-0.6,0.4-1,0.6
					c-0.4,0.2-0.8,0.3-1.3,0.3c-0.5,0.1-1,0.1-1.5,0.1c-1.1,0-1.9-0.2-2.5-0.6c-0.6-0.4-1.1-1-1.4-1.7c-0.3-0.7-0.5-1.6-0.6-2.5
					c-0.1-1-0.1-2.1-0.1-3.2V18.9z"/>
			</g>
		</g>
		<g id="XMLID_694_">
			<g id="XMLID_695_">
				<path id="XMLID_696_" class="st0" d="M191.4,15.9c2.3,0,3.9,0.7,5,2.2c1,1.4,1.6,3.5,1.6,6c0,1.1,0,2.2-0.1,3.3
					c-0.1,1.1-0.2,2.1-0.4,2.9c-1.1,0.2-2.3,0.4-3.5,0.5c-1.2,0.1-2.4,0.2-3.5,0.3c-1.1,0.1-2.2,0.1-3.1,0.1c-1,0-1.7,0-2.3,0
					c0,1.9,0.1,3.4,0.4,4.6c0.3,1.2,0.7,2.1,1.2,2.7c0.5,0.6,1.2,1,1.9,1.2c0.7,0.2,1.6,0.3,2.5,0.3c1.2,0,2.3-0.1,3.4-0.4
					c1.1-0.3,2-0.7,2.8-1.3c0.1,0.3,0.2,0.7,0.3,1.1c0.1,0.4,0.1,0.7,0.1,1c0,0.3-0.2,0.6-0.6,0.9s-0.9,0.6-1.5,0.8
					c-0.6,0.2-1.4,0.4-2.3,0.6c-0.9,0.2-1.8,0.2-2.7,0.2c-1.2,0-2.4-0.1-3.4-0.4c-1-0.3-1.9-0.8-2.7-1.7c-0.7-0.9-1.3-2.1-1.8-3.7
					c-0.4-1.6-0.6-3.7-0.6-6.3c0-3.3,0.3-6,0.9-7.9c0.6-2,1.3-3.5,2.2-4.5c0.9-1,1.9-1.7,3-2C189.2,16,190.3,15.9,191.4,15.9z
					 M191.1,18.5c-0.7,0-1.3,0.1-2,0.3c-0.7,0.2-1.3,0.7-1.9,1.4c-0.6,0.7-1,1.8-1.4,3.1c-0.4,1.4-0.6,3.2-0.7,5.5c0.5,0,1.2,0,2,0
					c0.8,0,1.7,0,2.6-0.1c0.9-0.1,1.9-0.1,2.8-0.2c0.9-0.1,1.7-0.2,2.5-0.4c0.1-0.6,0.1-1.2,0.2-1.8s0.1-1.1,0.1-1.7
					c0-2.1-0.3-3.6-0.9-4.6C193.7,19,192.7,18.5,191.1,18.5z"/>
			</g>
		</g>
		<g id="XMLID_690_">
			<g id="XMLID_691_">
				<path id="XMLID_692_" class="st0" d="M200.7,17.1c0-0.2,0-0.3,0-0.4c0-0.1,0.1-0.2,0.3-0.2s0.5-0.1,0.9-0.1s1,0,1.7,0l2.1,9.4
					c0.3,1.7,0.7,3.3,0.9,4.8c0.3,1.5,0.5,2.9,0.8,4.1c0.2,1.4,0.5,2.8,0.7,4h0.2c0.1-0.5,0.2-1.2,0.4-2.1c0.2-0.9,0.3-1.8,0.5-2.9
					c0.2-1,0.4-2.1,0.6-3.2c0.2-1.1,0.4-2.1,0.6-3.1l1.8-9.5c0-0.3,0.1-0.5,0.2-0.6s0.4-0.2,0.8-0.2h1.9l2.2,10.3
					c0.3,1.3,0.6,2.7,0.9,4c0.3,1.3,0.5,2.5,0.8,3.6c0.2,1.2,0.5,2.4,0.7,3.6h0.2c0.1-0.7,0.2-1.5,0.3-2.5c0.1-1,0.3-2.1,0.5-3.2
					c0.2-1.2,0.4-2.4,0.6-3.6c0.2-1.2,0.5-2.4,0.7-3.6l1.8-8.7c0-0.2,0.1-0.3,0.1-0.4c0.1-0.1,0.2-0.2,0.4-0.2
					c0.2-0.1,0.5-0.1,0.8-0.1c0.4,0,0.9,0,1.6,0c-1.1,4.9-2,9.3-2.9,13.1c-0.4,1.7-0.7,3.3-1.1,4.9c-0.3,1.6-0.7,3-0.9,4.2
					c-0.3,1.2-0.6,2.6-1,4.1c-0.2,0-0.3,0.1-0.5,0.1c-0.2,0-0.4,0.1-0.6,0.1c-0.2,0-0.4,0-0.7,0c-0.2,0-0.5-0.3-0.8-0.8
					s-0.6-1.2-0.8-2.1l-0.8-3.6c-0.3-1.4-0.7-2.8-1-4.3c-0.3-1.4-0.6-2.8-0.9-4c-0.3-1.3-0.5-2.4-0.7-3.5c-0.2-1.1-0.4-1.9-0.5-2.7
					c-0.1,0.7-0.3,1.6-0.4,2.7c-0.2,1.1-0.4,2.3-0.6,3.5c-0.2,1.3-0.5,2.6-0.8,4c-0.3,1.4-0.6,2.8-1,4.3l-1.4,6.3
					c-0.3,0-0.6,0.1-0.8,0.1c-0.2,0-0.5,0.1-0.8,0.1s-0.5,0-0.6,0c-0.2,0-0.5-0.2-0.7-0.7c-0.2-0.5-0.4-1.1-0.6-1.8
					c-0.2-0.8-0.4-1.8-0.7-2.9s-0.5-2.3-0.8-3.5c-0.3-1.2-0.6-2.5-0.9-3.8s-0.6-2.6-0.9-3.8C202.2,23.3,201.5,20.3,200.7,17.1z"/>
			</g>
		</g>
		<g id="XMLID_685_">
			<g id="XMLID_686_">
				<path id="XMLID_687_" class="st0" d="M229.4,18.2c0-0.5,0.1-0.8,0.4-1c0.5-0.3,1.5-0.6,3-0.9c1.5-0.3,3.2-0.4,5.1-0.4
					c2.1,0,3.6,0.5,4.7,1.4c1,0.9,1.6,2.6,1.6,4.9v3.1c0,3,0,5.8-0.1,8.6c-0.1,2.7-0.1,5.1-0.2,7.2c-0.6,0.4-1.5,0.8-2.6,1.2
					c-1.1,0.4-2.6,0.6-4.5,0.6c-0.9,0-1.9-0.1-2.8-0.2c-0.9-0.1-1.7-0.5-2.4-1s-1.3-1.3-1.7-2.3c-0.4-1-0.6-2.4-0.6-4.2
					c0-1.8,0.2-3.3,0.6-4.4c0.4-1.1,1-2,1.7-2.6c0.7-0.6,1.6-1,2.5-1.2c0.9-0.2,1.9-0.3,2.9-0.3c0.7,0,1.4,0,2.2,0.1
					c0.8,0.1,1.5,0.3,2.1,0.5v-4.6c0-0.8-0.1-1.5-0.3-2.1c-0.2-0.5-0.5-1-0.8-1.3s-0.8-0.5-1.3-0.6c-0.5-0.1-1.1-0.2-1.7-0.2
					c-1.7,0-3.1,0.1-4.5,0.4c-1.3,0.3-2.3,0.6-3,0.9C229.6,19.4,229.4,18.8,229.4,18.2z M241.4,29.4c-0.5-0.2-1-0.3-1.7-0.4
					c-0.6-0.1-1.2-0.1-1.7-0.1c-0.7,0-1.4,0.1-2.1,0.2c-0.7,0.1-1.3,0.4-1.8,0.8c-0.5,0.4-0.9,1-1.2,1.8c-0.3,0.8-0.5,1.9-0.5,3.3
					c0,1.2,0.1,2.2,0.4,2.9c0.3,0.7,0.6,1.2,1.1,1.6s1,0.6,1.6,0.7c0.6,0.1,1.2,0.1,1.9,0.1c0.8,0,1.6-0.1,2.3-0.4
					c0.7-0.2,1.2-0.5,1.5-0.8c0-0.6,0.1-1.2,0.1-2s0.1-1.6,0.1-2.5c0-0.9,0-1.8,0.1-2.7C241.4,31.1,241.4,30.2,241.4,29.4z"/>
			</g>
		</g>
		<g id="XMLID_681_">
			<g id="XMLID_682_">
				<path id="XMLID_683_" class="st0" d="M249.5,17.7c1.2-0.5,2.6-1,4-1.3c1.5-0.3,2.9-0.5,4.4-0.5c1.4,0,2.5,0.1,3.5,0.4
					c0.9,0.3,1.7,0.7,2.2,1.3c0.6,0.6,0.9,1.3,1.1,2.2c0.2,0.9,0.3,2,0.3,3.2v18.7c0,0.2,0,0.3-0.1,0.4c0,0.1-0.1,0.2-0.3,0.2
					c-0.2,0.1-0.5,0.1-0.9,0.1s-0.9,0-1.7,0V23.7c0-0.9-0.1-1.7-0.2-2.4c-0.1-0.7-0.3-1.2-0.6-1.7c-0.3-0.4-0.7-0.8-1.3-1
					s-1.3-0.3-2.2-0.3c-0.8,0-1.7,0.1-2.7,0.3c-1,0.2-2,0.5-2.8,0.9v22.1c0,0.2,0,0.3-0.1,0.4c0,0.1-0.1,0.2-0.3,0.2
					c-0.2,0.1-0.5,0.1-0.9,0.1c-0.4,0-0.9,0-1.6,0V17.7z"/>
			</g>
		</g>
		<g id="XMLID_676_">
			<g id="XMLID_677_">
				<path id="XMLID_678_" class="st0" d="M149.2,52.7c0-0.5,0.2-0.7,0.7-0.7h5.4c3.3,0,5.6,0.9,7,2.6c1.4,1.8,2.1,4.2,2.1,7.2
					c0,2-0.2,3.7-0.7,5.1s-1.1,2.6-1.9,3.5c-0.8,0.9-1.8,1.6-3,2c-1.1,0.4-2.4,0.6-3.7,0.6H152v14.7c0,0.2,0,0.3-0.1,0.4
					c0,0.1-0.1,0.2-0.3,0.2c-0.2,0.1-0.5,0.1-0.8,0.1c-0.4,0-0.9,0-1.6,0V52.7z M161.3,61.6c0-1-0.1-1.9-0.3-2.8
					c-0.2-0.9-0.5-1.6-0.9-2.2c-0.5-0.6-1-1.1-1.8-1.5c-0.7-0.4-1.6-0.5-2.8-0.5H152v15.7h3.3C159.3,70.3,161.3,67.4,161.3,61.6z"/>
			</g>
		</g>
		<g id="XMLID_671_">
			<g id="XMLID_672_">
				<path id="XMLID_673_" class="st0" d="M166.8,64.2c0-0.5,0.1-0.8,0.4-1c0.5-0.3,1.5-0.6,3-0.9c1.5-0.3,3.2-0.4,5.1-0.4
					c2.1,0,3.6,0.5,4.7,1.4c1,0.9,1.6,2.6,1.6,4.9v3.1c0,3,0,5.8-0.1,8.6c-0.1,2.7-0.1,5.1-0.2,7.2c-0.6,0.4-1.5,0.8-2.6,1.2
					s-2.6,0.6-4.5,0.6c-0.9,0-1.9-0.1-2.8-0.2c-0.9-0.1-1.7-0.5-2.4-1c-0.7-0.5-1.3-1.3-1.7-2.3c-0.4-1-0.6-2.4-0.6-4.2
					c0-1.8,0.2-3.3,0.6-4.4c0.4-1.1,1-2,1.7-2.6c0.7-0.6,1.6-1,2.5-1.2s1.9-0.3,2.9-0.3c0.7,0,1.4,0,2.2,0.1c0.8,0.1,1.5,0.3,2,0.5
					v-4.6c0-0.8-0.1-1.5-0.3-2.1c-0.2-0.5-0.5-1-0.8-1.3s-0.8-0.5-1.3-0.6c-0.5-0.1-1.1-0.2-1.7-0.2c-1.7,0-3.1,0.1-4.5,0.4
					s-2.3,0.6-3,0.9C166.9,65.4,166.8,64.8,166.8,64.2z M178.8,75.4c-0.5-0.2-1-0.3-1.7-0.4c-0.6-0.1-1.2-0.1-1.7-0.1
					c-0.7,0-1.4,0.1-2.1,0.2c-0.7,0.1-1.3,0.4-1.8,0.8c-0.5,0.4-0.9,1-1.2,1.8c-0.3,0.8-0.5,1.9-0.5,3.3c0,1.2,0.1,2.2,0.4,2.9
					c0.3,0.7,0.6,1.2,1.1,1.6c0.4,0.4,1,0.6,1.6,0.7c0.6,0.1,1.2,0.1,1.9,0.1c0.8,0,1.6-0.1,2.3-0.4s1.2-0.5,1.5-0.8
					c0-0.6,0.1-1.2,0.1-2c0-0.8,0.1-1.6,0.1-2.5s0-1.8,0.1-2.7C178.8,77.1,178.8,76.2,178.8,75.4z"/>
			</g>
		</g>
		<g id="XMLID_667_">
			<g id="XMLID_668_">
				<path id="XMLID_669_" class="st0" d="M199.7,63.9c0,0.2,0,0.5-0.1,0.8s-0.1,0.6-0.3,0.9c-0.4-0.3-1-0.5-1.7-0.8
					c-0.7-0.3-1.5-0.4-2.4-0.4c-0.7,0-1.4,0.1-2.2,0.3c-0.8,0.2-1.5,0.7-2.1,1.6c-0.6,0.8-1.1,2-1.5,3.5c-0.4,1.5-0.6,3.6-0.6,6.2
					c0,2.1,0.1,3.8,0.4,5.2c0.3,1.3,0.6,2.4,1.1,3.1c0.5,0.7,1.1,1.2,1.8,1.5c0.7,0.3,1.5,0.4,2.3,0.4c1.1,0,2-0.2,2.9-0.5
					c0.8-0.3,1.5-0.7,1.9-1.1c0.2,0.6,0.4,1.1,0.4,1.7c0,0.6-0.5,1.2-1.6,1.7c-1.1,0.5-2.5,0.8-4.3,0.8c-1.2,0-2.2-0.1-3.2-0.4
					c-1-0.3-1.8-0.9-2.4-1.8c-0.7-0.9-1.2-2.2-1.6-3.9c-0.4-1.7-0.6-3.9-0.6-6.7c0-3.1,0.3-5.6,0.9-7.4c0.6-1.9,1.3-3.3,2.2-4.3
					c0.9-1,1.9-1.6,3-1.9s2.2-0.4,3.2-0.4c1.2,0,2.2,0.2,3.1,0.6C199.3,62.9,199.7,63.3,199.7,63.9z"/>
			</g>
		</g>
		<g id="XMLID_663_">
			<g id="XMLID_664_">
				<path id="XMLID_665_" class="st0" d="M204,51.6c0-0.7,0.2-1.1,0.6-1.2s1.1-0.2,2.3-0.2v13.9c1-0.8,2.1-1.4,3.2-1.7
					c1.2-0.3,2.3-0.5,3.3-0.5c1.2,0,2.2,0.2,3,0.5c0.8,0.3,1.4,0.8,1.8,1.4c0.4,0.6,0.8,1.3,0.9,2.2c0.2,0.9,0.2,1.8,0.2,2.9v18.8
					c0,0.2,0,0.3-0.1,0.4c-0.1,0.1-0.2,0.2-0.4,0.2s-0.5,0.1-0.9,0.1s-0.9,0-1.6,0V69.4c0-0.7-0.1-1.4-0.2-2
					c-0.1-0.6-0.3-1.1-0.6-1.5c-0.3-0.4-0.7-0.8-1.3-1c-0.5-0.2-1.2-0.4-2.1-0.4c-0.8,0-1.7,0.1-2.7,0.4c-1,0.3-1.9,0.8-2.8,1.6v21
					c0,0.2,0,0.3-0.1,0.4c0,0.1-0.1,0.2-0.3,0.2s-0.5,0.1-0.8,0.1c-0.4,0-0.9,0-1.7,0V51.6z"/>
			</g>
		</g>
		<g id="XMLID_658_">
			<g id="XMLID_659_">
				<path id="XMLID_660_" class="st0" d="M233,61.9c2.3,0,3.9,0.7,5,2.2c1,1.4,1.6,3.5,1.6,6c0,1.1,0,2.2-0.1,3.3
					c-0.1,1.1-0.2,2.1-0.4,2.9c-1.1,0.2-2.3,0.4-3.5,0.5c-1.2,0.1-2.4,0.2-3.5,0.3c-1.1,0.1-2.2,0.1-3.1,0.1s-1.7,0-2.3,0
					c0,1.9,0.1,3.4,0.4,4.6c0.3,1.2,0.7,2.1,1.2,2.7c0.5,0.6,1.2,1,1.9,1.2c0.7,0.2,1.6,0.3,2.5,0.3c1.2,0,2.3-0.1,3.4-0.4
					s2-0.7,2.8-1.3c0.1,0.3,0.2,0.7,0.3,1.1c0.1,0.4,0.1,0.7,0.1,1c0,0.3-0.2,0.6-0.6,0.9s-0.9,0.6-1.5,0.8
					c-0.6,0.2-1.4,0.4-2.3,0.6c-0.9,0.2-1.8,0.2-2.7,0.2c-1.2,0-2.4-0.1-3.4-0.4s-1.9-0.8-2.7-1.7s-1.3-2.1-1.8-3.7
					c-0.4-1.6-0.6-3.7-0.6-6.3c0-3.3,0.3-6,0.9-7.9c0.6-2,1.3-3.5,2.2-4.5c0.9-1,1.9-1.7,3-2C230.8,62,231.9,61.9,233,61.9z
					 M232.7,64.5c-0.7,0-1.3,0.1-2,0.3c-0.7,0.2-1.3,0.7-1.9,1.4c-0.6,0.7-1,1.8-1.4,3.1s-0.6,3.2-0.7,5.5c0.5,0,1.2,0,2,0
					c0.8,0,1.7,0,2.6-0.1c0.9-0.1,1.9-0.1,2.8-0.2c0.9-0.1,1.7-0.2,2.5-0.4c0.1-0.6,0.1-1.2,0.2-1.8s0.1-1.1,0.1-1.7
					c0-2.1-0.3-3.6-0.9-4.6C235.3,65,234.3,64.5,232.7,64.5z"/>
			</g>
		</g>
		<g id="XMLID_654_">
			<g id="XMLID_655_">
				<path id="XMLID_656_" class="st0" d="M257,63.9c0,0.2,0,0.5-0.1,0.8s-0.1,0.6-0.3,0.9c-0.4-0.3-1-0.5-1.7-0.8
					c-0.7-0.3-1.5-0.4-2.4-0.4c-0.7,0-1.4,0.1-2.2,0.3c-0.8,0.2-1.5,0.7-2.1,1.6c-0.6,0.8-1.1,2-1.5,3.5c-0.4,1.5-0.6,3.6-0.6,6.2
					c0,2.1,0.1,3.8,0.4,5.2c0.3,1.3,0.6,2.4,1.1,3.1c0.5,0.7,1.1,1.2,1.8,1.5c0.7,0.3,1.5,0.4,2.3,0.4c1.1,0,2-0.2,2.9-0.5
					c0.8-0.3,1.5-0.7,1.9-1.1c0.2,0.6,0.4,1.1,0.4,1.7c0,0.6-0.5,1.2-1.6,1.7c-1.1,0.5-2.5,0.8-4.3,0.8c-1.2,0-2.2-0.1-3.2-0.4
					c-1-0.3-1.8-0.9-2.4-1.8c-0.7-0.9-1.2-2.2-1.6-3.9c-0.4-1.7-0.6-3.9-0.6-6.7c0-3.1,0.3-5.6,0.9-7.4c0.6-1.9,1.3-3.3,2.2-4.3
					c0.9-1,1.9-1.6,3-1.9s2.2-0.4,3.2-0.4c1.2,0,2.2,0.2,3.1,0.6C256.5,62.9,257,63.3,257,63.9z"/>
			</g>
		</g>
		<g id="XMLID_649_">
			<g id="XMLID_650_">
				<path id="XMLID_651_" class="st0" d="M259.5,75.4c0-4.8,0.8-8.3,2.3-10.4c1.5-2.1,3.7-3.2,6.4-3.2c1.3,0,2.5,0.2,3.5,0.6
					c1,0.4,1.8,1.1,2.5,2.2c0.7,1,1.2,2.4,1.5,4.1c0.3,1.7,0.5,3.9,0.5,6.6c0,4.7-0.7,8.1-2.2,10.3c-1.5,2.2-3.6,3.2-6.4,3.2
					c-1.2,0-2.4-0.1-3.4-0.4c-1-0.3-1.9-0.9-2.6-1.9c-0.7-1-1.2-2.3-1.6-4.1C259.7,80.7,259.5,78.3,259.5,75.4z M262.6,75.6
					c0,2.3,0.1,4.1,0.3,5.5c0.2,1.4,0.6,2.5,1,3.3c0.4,0.8,1,1.3,1.6,1.6c0.6,0.3,1.3,0.4,2.2,0.4c0.8,0,1.6-0.2,2.2-0.6
					c0.7-0.4,1.2-1,1.7-1.9c0.5-0.9,0.9-2,1.1-3.4c0.3-1.4,0.4-3.1,0.4-5.2c0-2.2-0.1-4.1-0.3-5.5c-0.2-1.4-0.6-2.5-1-3.3
					c-0.4-0.8-1-1.3-1.6-1.6s-1.3-0.4-2.2-0.4c-0.8,0-1.6,0.2-2.3,0.5c-0.7,0.3-1.3,1-1.7,1.8c-0.5,0.9-0.9,2-1.1,3.5
					C262.7,71.6,262.6,73.4,262.6,75.6z"/>
			</g>
		</g>
	</g>
</g>
</svg>
